<svg xmlns="http://www.w3.org/2000/svg" width="1280" height="620" viewBox="0 0 1280 620">
  <defs>
    <marker id="arrow" viewBox="0 0 10 10" refX="9" refY="5" markerWidth="8" markerHeight="8" orient="auto-start-reverse">
      <path d="M 0 0 L 10 5 L 0 10 z" fill="#3b82f6"/>
    </marker>
    <marker id="arrowSoft" viewBox="0 0 10 10" refX="9" refY="5" markerWidth="8" markerHeight="8" orient="auto-start-reverse">
      <path d="M 0 0 L 10 5 L 0 10 z" fill="#f59e0b"/>
    </marker>
    <style>
      .title { font: 700 30px "PingFang SC","Microsoft YaHei","Noto Sans CJK SC",Arial,sans-serif; fill: #0f172a; }
      .sub { font: 500 16px "PingFang SC","Microsoft YaHei","Noto Sans CJK SC",Arial,sans-serif; fill: #475569; }
      .label { font: 700 18px "PingFang SC","Microsoft YaHei","Noto Sans CJK SC",Arial,sans-serif; fill: #0f172a; }
      .body { font: 500 15px "PingFang SC","Microsoft YaHei","Noto Sans CJK SC",Arial,sans-serif; fill: #1f2937; }
      .code { font: 600 15px "Menlo","Consolas","Courier New",monospace; fill: #0f172a; }
      .small { font: 500 13px "PingFang SC","Microsoft YaHei","Noto Sans CJK SC",Arial,sans-serif; fill: #334155; }
    </style>
  </defs>

  <rect width="1280" height="620" fill="#ffffff"/>

  <text x="640" y="48" text-anchor="middle" class="title">DDIM 核心原理总览</text>
  <text x="640" y="78" text-anchor="middle" class="sub">
    <tspan>训练目标不变，改变的是采样路径：保持 q(x</tspan><tspan baseline-shift="sub" font-size="11">t</tspan><tspan>|x</tspan><tspan baseline-shift="sub" font-size="11">0</tspan><tspan>) 不变，重构反向更新方式</tspan>
  </text>

  <rect x="70" y="138" width="285" height="154" rx="18" fill="#eff6ff" stroke="#93c5fd" stroke-width="2"/>
  <text x="212" y="176" text-anchor="middle" class="label">训练数据 / 边缘分布</text>
  <g data-formula="$x_t = \sqrt{\bar{\alpha}_t}\cdot x_0$" transform="translate(166.233 211.000) scale(1 -1)"><path d="M9.603,8.890 L5.585,4.600 L8.047,0.140 L6.397,0.140 L4.548,3.610 L1.328,0.140 L-0.415,0.140 L3.890,4.750 L1.603,8.890 L3.250,8.890 L4.930,5.725 L7.860,8.890 L9.603,8.890 Z M14.204,3.640 L14.052,2.858 L12.045,2.858 L11.394,-0.467 Q11.361,-0.653 11.345,-0.779 Q11.329,-0.905 11.329,-0.975 Q11.329,-1.325 11.539,-1.484 Q11.749,-1.643 12.215,-1.643 L13.231,-1.643 L13.062,-2.485 L12.099,-2.485 Q11.203,-2.485 10.762,-2.135 Q10.323,-1.785 10.323,-1.075 Q10.323,-0.949 10.338,-0.798 Q10.354,-0.647 10.388,-0.467 L11.038,2.858 L10.184,2.858 L10.344,3.640 L11.180,3.640 L11.520,5.379 L12.526,5.379 L12.192,3.640 L14.204,3.640 Z M19.110,7.405 L29.125,7.405 L29.125,6.093 L19.110,6.093 L19.110,7.405 Z M19.110,4.218 L29.125,4.218 L29.125,2.890 L19.110,2.890 L19.110,4.218 Z M45.594,17.283 L39.579,-2.485 L39.129,-2.485 L36.657,5.552 Q36.539,5.938 36.388,6.109 Q36.239,6.281 35.993,6.281 Q35.629,6.281 35.266,5.992 L35.137,6.206 L36.891,7.554 L37.159,7.554 L39.589,-0.334 L39.632,-0.334 L44.983,17.283 L45.594,17.283 Z M51.485,12.280 L56.157,12.280 L56.157,11.123 L51.485,11.123 L51.485,12.280 Z M53.796,4.208 L53.803,6.013 Q53.811,7.857 52.421,7.865 Q51.381,7.873 50.733,7.005 Q49.921,5.935 49.646,4.505 Q49.311,2.785 49.733,1.965 Q50.171,1.130 51.116,1.130 Q52.163,1.130 53.046,2.795 L53.796,4.208 Z M52.663,9.082 Q55.101,9.123 55.068,6.598 Q55.068,6.598 56.288,8.888 L57.568,8.888 L55.046,4.145 L55.021,2.435 Q55.021,2.053 55.233,1.732 Q55.476,1.357 55.726,1.357 L56.421,1.357 L56.186,0.138 L55.318,0.138 Q54.583,0.138 54.053,0.795 Q53.803,1.123 53.796,1.810 Q53.288,0.973 52.413,0.263 Q51.998,-0.065 50.881,-0.058 Q49.053,-0.043 48.388,1.130 Q47.708,2.348 48.131,4.505 Q48.583,6.825 49.771,7.880 Q51.108,9.060 52.663,9.082 Z M62.684,3.638 L62.531,2.855 L60.524,2.855 L59.873,-0.470 Q59.840,-0.655 59.824,-0.781 Q59.808,-0.907 59.808,-0.977 Q59.808,-1.327 60.018,-1.487 Q60.228,-1.646 60.694,-1.646 L61.711,-1.646 L61.541,-2.488 L60.578,-2.488 Q59.682,-2.488 59.241,-2.138 Q58.802,-1.788 58.802,-1.077 Q58.802,-0.951 58.818,-0.801 Q58.834,-0.650 58.867,-0.470 L59.518,2.855 L58.664,2.855 L58.823,3.638 L59.660,3.638 L59.999,5.377 L61.005,5.377 L60.671,3.638 L62.684,3.638 Z M69.604,6.688 L71.254,6.688 L71.254,4.702 L69.604,4.702 L69.604,6.688 Z M85.700,8.890 L81.682,4.600 L84.145,0.140 L82.495,0.140 L80.645,3.610 L77.425,0.140 L75.682,0.140 L79.987,4.750 L77.700,8.890 L79.347,8.890 L81.027,5.725 L83.957,8.890 L85.700,8.890 Z M89.126,4.952 Q88.273,4.952 87.843,4.112 Q87.414,3.274 87.414,1.589 Q87.414,-0.089 87.843,-0.929 Q88.273,-1.769 89.126,-1.769 Q89.985,-1.769 90.414,-0.929 Q90.844,-0.089 90.844,1.589 Q90.844,3.274 90.414,4.112 Q89.985,4.952 89.126,4.952 Z M89.126,5.827 Q90.499,5.827 91.224,4.741 Q91.948,3.656 91.948,1.589 Q91.948,-0.473 91.224,-1.559 Q90.499,-2.644 89.126,-2.644 Q87.754,-2.644 87.029,-1.559 Q86.305,-0.473 86.305,1.589 Q86.305,3.656 87.029,4.741 Q87.754,5.827 89.126,5.827 Z M45.248,16.240 L45.248,17.240 L64.777,17.240 L64.777,16.240 L45.248,16.240 Z" fill="#0f172a"/></g><g data-formula="$+\sqrt{1-\bar{\alpha}_t}\cdot\epsilon$" transform="translate(164.417 236.000) scale(1 -1)"><path d="M7.360,10.172 L7.360,5.820 L11.710,5.820 L11.710,4.492 L7.360,4.492 L7.360,0.140 L6.048,0.140 L6.048,4.492 L1.695,4.492 L1.695,5.820 L6.048,5.820 L6.048,10.172 L7.360,10.172 Z M25.062,17.283 L19.047,-2.485 L18.597,-2.485 L16.125,5.552 Q16.007,5.938 15.856,6.109 Q15.707,6.281 15.461,6.281 Q15.097,6.281 14.734,5.992 L14.605,6.206 L16.359,7.554 L16.627,7.554 L19.057,-0.334 L19.100,-0.334 L24.451,17.283 L25.062,17.283 Z M28.701,1.465 L31.279,1.465 L31.279,10.365 L28.474,9.803 L28.474,11.240 L31.264,11.803 L32.841,11.803 L32.841,1.465 L35.419,1.465 L35.419,0.138 L28.701,0.138 L28.701,1.465 Z M41.708,5.817 L51.723,5.817 L51.723,4.490 L41.708,4.490 L41.708,5.817 Z M60.773,12.280 L65.446,12.280 L65.446,11.123 L60.773,11.123 L60.773,12.280 Z M63.084,4.208 L63.091,6.013 Q63.099,7.857 61.709,7.865 Q60.669,7.873 60.021,7.005 Q59.209,5.935 58.934,4.505 Q58.599,2.785 59.021,1.965 Q59.459,1.130 60.404,1.130 Q61.451,1.130 62.334,2.795 L63.084,4.208 Z M61.951,9.082 Q64.389,9.123 64.356,6.598 Q64.356,6.598 65.576,8.888 L66.856,8.888 L64.334,4.145 L64.309,2.435 Q64.309,2.053 64.521,1.732 Q64.764,1.357 65.014,1.357 L65.709,1.357 L65.474,0.138 L64.606,0.138 Q63.871,0.138 63.341,0.795 Q63.091,1.123 63.084,1.810 Q62.576,0.973 61.701,0.263 Q61.286,-0.065 60.169,-0.058 Q58.341,-0.043 57.676,1.130 Q56.996,2.348 57.419,4.505 Q57.871,6.825 59.059,7.880 Q60.396,9.060 61.951,9.082 Z M71.972,3.638 L71.820,2.855 L69.812,2.855 L69.161,-0.470 Q69.128,-0.655 69.112,-0.781 Q69.097,-0.907 69.097,-0.977 Q69.097,-1.327 69.307,-1.487 Q69.517,-1.646 69.982,-1.646 L70.999,-1.646 L70.829,-2.488 L69.867,-2.488 Q68.971,-2.488 68.530,-2.138 Q68.090,-1.788 68.090,-1.077 Q68.090,-0.951 68.106,-0.801 Q68.122,-0.650 68.155,-0.470 L68.806,2.855 L67.952,2.855 L68.111,3.638 L68.948,3.638 L69.287,5.377 L70.294,5.377 L69.959,3.638 L71.972,3.638 Z M78.893,6.688 L80.543,6.688 L80.543,4.702 L78.893,4.702 L78.893,6.688 Z M88.543,4.860 Q87.698,5.048 87.331,5.555 Q87.058,5.913 87.058,6.397 Q87.058,7.725 88.323,8.500 Q89.323,9.110 90.856,9.110 Q91.448,9.110 92.096,9.015 Q92.746,8.922 93.471,8.735 L93.221,7.430 Q92.503,7.655 91.901,7.758 Q91.283,7.860 90.731,7.860 Q89.801,7.860 89.191,7.500 Q88.456,7.070 88.456,6.445 Q88.456,6.030 88.838,5.742 Q89.293,5.397 90.198,5.397 L91.408,5.397 L91.183,4.210 L90.026,4.210 Q88.948,4.210 88.316,3.812 Q87.456,3.272 87.456,2.430 Q87.456,1.897 87.918,1.548 Q88.496,1.110 89.676,1.110 Q90.401,1.110 91.096,1.250 Q91.793,1.397 92.401,1.688 L92.136,0.350 Q91.393,0.133 90.713,0.022 Q90.033,-0.088 89.408,-0.088 Q87.551,-0.088 86.676,0.625 Q86.011,1.173 86.011,2.093 Q86.011,3.335 86.886,4.100 Q87.533,4.673 88.543,4.860 Z M24.716,16.240 L24.716,17.240 L74.065,17.240 L74.065,16.240 L24.716,16.240 Z" fill="#0f172a"/></g><text x="212" y="270" text-anchor="middle" class="small">
    <tspan>训练只关心每个时间步的 q(x</tspan><tspan baseline-shift="sub" font-size="10">t</tspan><tspan>|x</tspan><tspan baseline-shift="sub" font-size="10">0</tspan><tspan>)</tspan>
  </text>

  <path d="M 355 215 C 395 215, 415 215, 455 215" fill="none" stroke="#3b82f6" stroke-width="3.5" marker-end="url(#arrow)"/>

  <rect x="470" y="116" width="340" height="198" rx="18" fill="#f8fafc" stroke="#cbd5e1" stroke-width="2"/>
  <text x="640" y="154" text-anchor="middle" class="label">训练目标不变</text>
  <g data-formula="$L_{simple}=\mathbb{E}\,\|\epsilon-\epsilon_\theta(x_t,t)\|^2$" transform="translate(549.181 190.000) scale(1 -1)"><path d="M2.688,11.787 L4.272,11.787 L2.272,1.435 L7.953,1.435 L7.695,0.122 L0.430,0.122 L2.688,11.787 Z M14.514,3.442 L14.323,2.490 Q13.924,2.709 13.480,2.817 Q13.037,2.928 12.568,2.928 Q11.774,2.928 11.317,2.656 Q10.862,2.387 10.862,1.921 Q10.862,1.381 11.922,1.090 Q12.005,1.069 12.043,1.057 L12.365,0.959 Q13.371,0.681 13.707,0.374 Q14.043,0.068 14.043,-0.462 Q14.043,-1.437 13.270,-2.049 Q12.496,-2.662 11.243,-2.662 Q10.757,-2.662 10.221,-2.567 Q9.686,-2.474 9.040,-2.279 L9.236,-1.239 Q9.789,-1.524 10.325,-1.671 Q10.862,-1.818 11.354,-1.818 Q12.092,-1.818 12.554,-1.502 Q13.016,-1.185 13.016,-0.698 Q13.016,-0.173 11.802,0.151 L11.698,0.177 L11.354,0.264 Q10.587,0.467 10.232,0.798 Q9.877,1.129 9.877,1.643 Q9.877,2.621 10.612,3.195 Q11.348,3.769 12.612,3.769 Q13.109,3.769 13.581,3.687 Q14.056,3.607 14.514,3.442 Z M16.800,6.008 L17.806,6.008 L17.560,4.732 L16.553,4.732 L16.800,6.008 Z M16.340,3.623 L17.346,3.623 L16.149,-2.502 L15.143,-2.502 L16.340,3.623 Z M27.918,1.195 L27.202,-2.502 L26.196,-2.502 L26.901,1.162 Q26.945,1.396 26.966,1.566 Q26.989,1.736 26.989,1.857 Q26.989,2.348 26.714,2.621 Q26.441,2.894 25.949,2.894 Q25.216,2.894 24.642,2.345 Q24.068,1.795 23.898,0.915 L23.226,-2.502 L22.220,-2.502 L22.936,1.162 Q22.980,1.363 23.001,1.535 Q23.023,1.708 23.023,1.845 Q23.023,2.343 22.750,2.618 Q22.477,2.894 21.996,2.894 Q21.252,2.894 20.677,2.345 Q20.103,1.795 19.933,0.915 L19.261,-2.502 L18.255,-2.502 L19.452,3.623 L20.458,3.623 L20.267,2.670 Q20.677,3.208 21.226,3.488 Q21.777,3.769 22.406,3.769 Q23.072,3.769 23.501,3.419 Q23.932,3.069 24.019,2.446 Q24.478,3.092 25.081,3.430 Q25.687,3.769 26.359,3.769 Q27.146,3.769 27.575,3.316 Q28.006,2.863 28.006,2.032 Q28.006,1.851 27.983,1.634 Q27.962,1.419 27.918,1.195 Z M34.327,1.270 Q34.327,2.075 33.977,2.501 Q33.627,2.928 32.971,2.928 Q32.523,2.928 32.115,2.699 Q31.708,2.469 31.391,2.032 Q31.079,1.599 30.892,0.987 Q30.707,0.374 30.707,-0.228 Q30.707,-0.992 31.057,-1.405 Q31.407,-1.818 32.052,-1.818 Q32.528,-1.818 32.936,-1.594 Q33.344,-1.370 33.633,-0.943 Q33.944,-0.495 34.135,0.112 Q34.327,0.719 34.327,1.270 Z M31.211,2.693 Q31.615,3.223 32.164,3.496 Q32.714,3.769 33.388,3.769 Q34.327,3.769 34.847,3.153 Q35.367,2.539 35.367,1.430 Q35.367,0.521 35.043,-0.301 Q34.721,-1.124 34.114,-1.774 Q33.710,-2.207 33.200,-2.434 Q32.693,-2.662 32.129,-2.662 Q31.478,-2.662 31.036,-2.391 Q30.593,-2.119 30.374,-1.584 L29.744,-4.832 L28.738,-4.832 L30.385,3.623 L31.391,3.623 L31.211,2.693 Z M37.931,6.008 L38.938,6.008 L37.280,-2.502 L36.274,-2.502 L37.931,6.008 Z M44.379,1.108 Q44.396,1.195 44.403,1.288 Q44.412,1.381 44.412,1.473 Q44.412,2.140 44.020,2.529 Q43.630,2.917 42.958,2.917 Q42.209,2.917 41.633,2.443 Q41.059,1.970 40.765,1.101 L44.379,1.108 Z M45.254,0.320 L40.572,0.320 Q40.539,0.112 40.529,-0.009 Q40.518,-0.130 40.518,-0.217 Q40.518,-0.977 40.985,-1.393 Q41.453,-1.808 42.307,-1.808 Q42.963,-1.808 43.547,-1.661 Q44.134,-1.512 44.636,-1.229 L44.445,-2.224 Q43.903,-2.443 43.325,-2.552 Q42.749,-2.662 42.153,-2.662 Q40.879,-2.662 40.193,-2.053 Q39.507,-1.442 39.507,-0.320 Q39.507,0.637 39.848,1.460 Q40.189,2.282 40.852,2.928 Q41.278,3.332 41.866,3.551 Q42.454,3.769 43.115,3.769 Q44.155,3.769 44.769,3.146 Q45.385,2.523 45.385,1.473 Q45.385,1.221 45.352,0.934 Q45.320,0.647 45.254,0.320 Z M51.133,7.388 L61.148,7.388 L61.148,6.075 L51.133,6.075 L51.133,7.388 Z M51.133,4.200 L61.148,4.200 L61.148,2.873 L51.133,2.873 L51.133,4.200 Z M76.586,10.570 L76.441,9.978 L71.336,9.978 L70.233,5.788 L74.746,5.788 L74.568,5.195 L70.073,5.195 L68.873,0.715 L74.568,0.715 L74.441,0.122 L66.233,0.122 L69.033,10.570 L76.586,10.570 Z M70.746,9.978 L69.496,9.978 L67.001,0.715 L68.281,0.715 L70.746,9.978 Z M82.143,12.350 L82.143,-3.650 L80.815,-3.650 L80.815,12.350 L82.143,12.350 Z M87.331,4.843 Q86.486,5.030 86.118,5.538 Q85.846,5.895 85.846,6.380 Q85.846,7.708 87.111,8.482 Q88.111,9.092 89.643,9.092 Q90.236,9.092 90.883,8.998 Q91.533,8.905 92.258,8.717 L92.008,7.413 Q91.291,7.638 90.688,7.740 Q90.071,7.843 89.518,7.843 Q88.588,7.843 87.978,7.482 Q87.243,7.053 87.243,6.428 Q87.243,6.013 87.626,5.725 Q88.081,5.380 88.986,5.380 L90.196,5.380 L89.971,4.192 L88.813,4.192 Q87.736,4.192 87.103,3.795 Q86.243,3.255 86.243,2.413 Q86.243,1.880 86.706,1.530 Q87.283,1.093 88.463,1.093 Q89.188,1.093 89.883,1.232 Q90.581,1.380 91.188,1.670 L90.923,0.333 Q90.181,0.115 89.501,0.005 Q88.821,-0.105 88.196,-0.105 Q86.338,-0.105 85.463,0.608 Q84.798,1.155 84.798,2.075 Q84.798,3.317 85.673,4.083 Q86.321,4.655 87.331,4.843 Z M97.634,5.803 L107.649,5.803 L107.649,4.475 L97.634,4.475 L97.634,5.803 Z M115.620,4.843 Q114.775,5.030 114.407,5.538 Q114.135,5.895 114.135,6.380 Q114.135,7.708 115.400,8.482 Q116.400,9.092 117.932,9.092 Q118.525,9.092 119.172,8.998 Q119.822,8.905 120.547,8.717 L120.297,7.413 Q119.580,7.638 118.977,7.740 Q118.360,7.843 117.807,7.843 Q116.877,7.843 116.267,7.482 Q115.532,7.053 115.532,6.428 Q115.532,6.013 115.915,5.725 Q116.370,5.380 117.275,5.380 L118.485,5.380 L118.260,4.192 L117.102,4.192 Q116.025,4.192 115.392,3.795 Q114.532,3.255 114.532,2.413 Q114.532,1.880 114.995,1.530 Q115.572,1.093 116.752,1.093 Q117.477,1.093 118.172,1.232 Q118.870,1.380 119.477,1.670 L119.212,0.333 Q118.470,0.115 117.790,0.005 Q117.110,-0.105 116.485,-0.105 Q114.627,-0.105 113.752,0.608 Q113.087,1.155 113.087,2.075 Q113.087,3.317 113.962,4.083 Q114.610,4.655 115.620,4.843 Z M126.209,1.381 L122.730,1.381 Q122.495,-0.256 122.735,-0.949 Q123.036,-1.802 123.851,-1.802 Q124.670,-1.802 125.295,-0.943 Q125.841,-0.189 126.209,1.381 Z M126.377,2.310 Q126.525,3.864 126.333,4.410 Q126.034,5.274 125.229,5.274 Q124.392,5.274 123.780,4.420 Q123.298,3.733 122.920,2.310 L126.377,2.310 Z M125.388,6.095 Q126.700,6.095 127.225,4.935 Q127.750,3.782 127.351,1.736 Q126.958,-0.305 125.978,-1.463 Q125.005,-2.629 123.692,-2.629 Q122.374,-2.629 121.855,-1.463 Q121.335,-0.305 121.729,1.736 Q122.128,3.782 123.095,4.935 Q124.070,6.095 125.388,6.095 Z M133.361,12.263 Q132.316,10.467 131.806,8.707 Q131.298,6.950 131.298,5.145 Q131.298,3.343 131.811,1.573 Q132.323,-0.198 133.361,-1.988 L132.111,-1.988 Q130.941,-0.150 130.358,1.623 Q129.776,3.395 129.776,5.145 Q129.776,6.888 130.353,8.652 Q130.933,10.420 132.111,12.263 L133.361,12.263 Z M144.245,8.873 L140.228,4.583 L142.690,0.122 L141.040,0.122 L139.190,3.593 L135.970,0.122 L134.228,0.122 L138.533,4.732 L136.245,8.873 L137.893,8.873 L139.573,5.708 L142.503,8.873 L144.245,8.873 Z M148.847,3.623 L148.695,2.840 L146.688,2.840 L146.037,-0.485 Q146.003,-0.670 145.988,-0.796 Q145.972,-0.922 145.972,-0.992 Q145.972,-1.342 146.182,-1.502 Q146.392,-1.661 146.857,-1.661 L147.874,-1.661 L147.704,-2.502 L146.742,-2.502 Q145.846,-2.502 145.405,-2.152 Q144.966,-1.802 144.966,-1.092 Q144.966,-0.966 144.981,-0.816 Q144.997,-0.665 145.030,-0.485 L145.681,2.840 L144.827,2.840 L144.987,3.623 L145.823,3.623 L146.163,5.362 L147.169,5.362 L146.835,3.623 L148.847,3.623 Z M150.815,2.107 L152.463,2.107 L152.463,0.763 L151.183,-1.738 L150.175,-1.738 L150.815,0.763 L150.815,2.107 Z M163.909,8.873 L163.691,7.755 L160.824,7.755 L159.894,3.005 Q159.846,2.740 159.824,2.560 Q159.801,2.380 159.801,2.280 Q159.801,1.780 160.101,1.552 Q160.401,1.325 161.066,1.325 L162.519,1.325 L162.276,0.122 L160.901,0.122 Q159.621,0.122 158.991,0.623 Q158.364,1.123 158.364,2.138 Q158.364,2.317 158.386,2.533 Q158.409,2.748 158.456,3.005 L159.386,7.755 L158.166,7.755 L158.394,8.873 L159.589,8.873 L160.074,11.357 L161.511,11.357 L161.034,8.873 L163.909,8.873 Z M164.700,12.263 L165.950,12.263 Q167.120,10.420 167.702,8.652 Q168.285,6.888 168.285,5.145 Q168.285,3.395 167.702,1.623 Q167.120,-0.150 165.950,-1.988 L164.700,-1.988 Q165.737,-0.198 166.250,1.573 Q166.762,3.343 166.762,5.145 Q166.762,6.950 166.250,8.707 Q165.737,10.467 164.700,12.263 Z M173.019,12.350 L173.019,-3.650 L171.692,-3.650 L171.692,12.350 L173.019,12.350 Z M177.352,7.177 L181.207,7.177 L181.207,6.248 L176.024,6.248 L176.024,7.177 Q176.652,7.828 177.737,8.923 Q178.824,10.021 179.102,10.339 Q179.632,10.934 179.842,11.347 Q180.054,11.760 180.054,12.159 Q180.054,12.810 179.597,13.219 Q179.140,13.631 178.407,13.631 Q177.887,13.631 177.310,13.450 Q176.734,13.270 176.078,12.903 L176.078,14.019 Q176.745,14.287 177.324,14.423 Q177.905,14.560 178.386,14.560 Q179.655,14.560 180.409,13.925 Q181.163,13.291 181.163,12.231 Q181.163,11.727 180.974,11.275 Q180.787,10.825 180.288,10.213 Q180.152,10.054 179.419,9.296 Q178.687,8.538 177.352,7.177 Z" fill="#0f172a"/></g><text x="640" y="226" text-anchor="middle" class="body">模型学习的是“噪声预测”</text>
  <text x="640" y="252" text-anchor="middle" class="body">不是显式学习完整的联合轨迹</text>
  <text x="640" y="278" text-anchor="middle" class="body">所以采样路径可以重新设计</text>

  <path d="M 810 215 C 850 215, 870 215, 910 215" fill="none" stroke="#f59e0b" stroke-width="3.5" marker-end="url(#arrowSoft)"/>

  <rect x="925" y="92" width="285" height="248" rx="18" fill="#fff7ed" stroke="#fdba74" stroke-width="2"/>
  <text x="1067" y="130" text-anchor="middle" class="label">采样路径重构</text>

  <rect x="950" y="152" width="235" height="60" rx="14" fill="#ffffff" stroke="#f97316" stroke-width="2"/>
  <text x="1067" y="177" text-anchor="middle" class="body">DDPM：随机马尔可夫链</text>
  <text x="1067" y="199" text-anchor="middle" class="small">每步注入噪声，必须逐步走完</text>

  <rect x="950" y="226" width="235" height="84" rx="14" fill="#ffffff" stroke="#22c55e" stroke-width="2"/>
  <text x="1067" y="252" text-anchor="middle" class="body">DDIM：非马尔可夫采样</text>
  <text x="1067" y="274" text-anchor="middle" class="small">
    <tspan>可跳步 / σ</tspan><tspan baseline-shift="sub" font-size="10">t</tspan><tspan> 可控 / 轨迹可确定</tspan>
  </text>
  <text x="1067" y="296" text-anchor="middle" class="small">同一模型，换一条更短的路</text>

  <path d="M 640 314 C 640 352, 640 360, 640 390" fill="none" stroke="#cbd5e1" stroke-width="2.5" stroke-dasharray="8 6"/>

  <rect x="140" y="406" width="1000" height="114" rx="20" fill="#0f172a"/>
  <text x="640" y="446" text-anchor="middle" style="font:700 22px 'PingFang SC','Microsoft YaHei','Noto Sans CJK SC',Arial,sans-serif; fill:#ffffff;">DDIM = 训练不变 + 采样路径重构 + 随机性可控</text>
  <text x="640" y="480" text-anchor="middle" style="font:500 16px 'PingFang SC','Microsoft YaHei','Noto Sans CJK SC',Arial,sans-serif; fill:#cbd5e1;">
    <tspan>它保留 DDPM 已学好的噪声预测器，只重新定义 x</tspan><tspan baseline-shift="sub" font-size="12">t</tspan><tspan> → x</tspan><tspan baseline-shift="sub" font-size="12">t−1</tspan><tspan> 的更新方式</tspan>
  </text>
  <text x="640" y="506" text-anchor="middle" style="font:500 16px 'PingFang SC','Microsoft YaHei','Noto Sans CJK SC',Arial,sans-serif; fill:#cbd5e1;">所以既能加速采样，也能在 η = 0 时得到稳定的确定性轨迹</text>
</svg>
