<svg xmlns="http://www.w3.org/2000/svg" width="1280" height="720" viewBox="0 0 1280 720">
  <defs>
    <marker id="arrowBlue" viewBox="0 0 10 10" refX="9" refY="5" markerWidth="8" markerHeight="8" orient="auto">
      <path d="M 0 0 L 10 5 L 0 10 z" fill="#2563eb"/>
    </marker>
    <marker id="arrowGreen" viewBox="0 0 10 10" refX="9" refY="5" markerWidth="8" markerHeight="8" orient="auto">
      <path d="M 0 0 L 10 5 L 0 10 z" fill="#16a34a"/>
    </marker>
    <style>
      .title { font: 700 30px "PingFang SC","Microsoft YaHei","Noto Sans CJK SC",Arial,sans-serif; fill: #0f172a; }
      .sub { font: 500 16px "PingFang SC","Microsoft YaHei","Noto Sans CJK SC",Arial,sans-serif; fill: #475569; }
      .panel { fill: #ffffff; stroke: #d7dee8; stroke-width: 2; }
      .label { font: 700 21px "PingFang SC","Microsoft YaHei","Noto Sans CJK SC",Arial,sans-serif; fill: #0f172a; }
      .body { font: 500 16px "PingFang SC","Microsoft YaHei","Noto Sans CJK SC",Arial,sans-serif; fill: #334155; }
      .small { font: 500 14px "PingFang SC","Microsoft YaHei","Noto Sans CJK SC",Arial,sans-serif; fill: #475569; }
      .code { font: 600 16px "Arial Unicode MS","STIXGeneral","Times New Roman","PingFang SC",serif; fill: #0f172a; }
    </style>
  </defs>

  <rect width="1280" height="720" fill="#f8fafc"/>
  <rect x="36" y="28" width="1208" height="664" rx="24" class="panel"/>

  <text x="640" y="74" text-anchor="middle" class="title">Flow Matching 确定性 ODE 生成路径</text>
  <text x="640" y="104" text-anchor="middle" class="sub">先构造从噪声到数据的连续路径，再让网络直接拟合路径上的速度场</text>

  <rect x="82" y="150" width="300" height="204" rx="20" fill="#eff6ff" stroke="#93c5fd" stroke-width="2"/>
  <text x="232" y="190" text-anchor="middle" class="label">起点分布</text>
  <g data-formula="$x_0\sim\mathcal{N}(0,I)$" transform="translate(189.110 226.000) scale(1 -1)"><path d="M9.603,8.830 L5.585,4.540 L8.047,0.080 L6.397,0.080 L4.548,3.550 L1.328,0.080 L-0.415,0.080 L3.890,4.690 L1.603,8.830 L3.250,8.830 L4.930,5.665 L7.860,8.830 L9.603,8.830 Z M13.028,4.893 Q12.176,4.893 11.745,4.053 Q11.317,3.214 11.317,1.529 Q11.317,-0.149 11.745,-0.989 Q12.176,-1.829 13.028,-1.829 Q13.888,-1.829 14.316,-0.989 Q14.747,-0.149 14.747,1.529 Q14.747,3.214 14.316,4.053 Q13.888,4.893 13.028,4.893 Z M13.028,5.768 Q14.402,5.768 15.127,4.681 Q15.851,3.596 15.851,1.529 Q15.851,-0.532 15.127,-1.619 Q14.402,-2.704 13.028,-2.704 Q11.656,-2.704 10.932,-1.619 Q10.207,-0.532 10.207,1.529 Q10.207,3.596 10.932,4.681 Q11.656,5.768 13.028,5.768 Z M31.859,6.470 L31.859,5.072 Q31.039,4.463 30.339,4.192 Q29.642,3.925 28.884,3.925 Q28.024,3.925 26.884,4.385 Q26.807,4.415 26.752,4.440 Q26.704,4.455 26.587,4.503 Q25.377,4.978 24.642,4.978 Q23.954,4.978 23.282,4.680 Q22.609,4.385 21.844,3.728 L21.844,5.128 Q22.664,5.737 23.364,6.005 Q24.064,6.275 24.822,6.275 Q25.682,6.275 26.829,5.815 Q26.914,5.775 26.954,5.760 Q27.002,5.745 27.119,5.697 Q28.329,5.220 29.064,5.220 Q29.734,5.220 30.394,5.513 Q31.057,5.808 31.859,6.470 Z M47.408,2.080 L47.425,2.080 Q49.905,10.255 50.193,11.025 Q50.353,11.425 50.480,11.615 Q51.248,12.800 52.305,12.800 Q52.898,12.800 53.298,12.408 Q53.698,12.015 53.698,11.455 Q53.698,11.025 53.473,10.760 Q53.248,10.495 52.848,10.495 Q52.593,10.495 52.415,10.640 Q52.240,10.785 52.168,10.953 Q52.098,11.120 51.968,11.263 Q51.840,11.408 51.680,11.408 Q51.520,11.408 51.375,11.350 Q51.233,11.295 51.135,11.223 Q51.040,11.152 50.935,11.008 Q50.833,10.865 50.768,10.768 Q50.705,10.672 50.633,10.488 Q50.560,10.305 50.535,10.225 Q50.513,10.145 50.448,9.960 Q50.385,9.775 50.385,9.745 L47.328,-0.305 L47.008,-0.305 Q44.368,3.280 42.880,7.312 L42.848,7.312 Q42.688,6.527 42.568,5.982 Q42.448,5.440 42.208,4.560 Q41.968,3.680 41.743,3.055 Q41.520,2.433 41.183,1.713 Q40.848,0.993 40.495,0.542 Q40.145,0.095 39.680,-0.208 Q39.218,-0.512 38.705,-0.512 Q38.113,-0.512 37.713,-0.120 Q37.313,0.273 37.313,0.833 Q37.313,1.265 37.535,1.528 Q37.760,1.792 38.160,1.792 Q38.418,1.792 38.593,1.647 Q38.768,1.505 38.840,1.335 Q38.913,1.167 39.040,1.022 Q39.168,0.880 39.328,0.880 Q39.728,0.880 40.095,1.280 Q40.465,1.680 40.768,2.400 Q41.073,3.120 41.328,3.935 Q41.585,4.753 41.815,5.800 Q42.048,6.848 42.208,7.663 Q42.368,8.480 42.543,9.433 Q42.720,10.385 42.818,10.815 L43.248,10.815 Q43.378,10.495 43.858,9.280 Q44.338,8.065 44.528,7.600 Q44.720,7.135 45.153,6.135 Q45.585,5.135 45.880,4.575 Q46.178,4.015 46.593,3.310 Q47.008,2.607 47.408,2.080 Z M56.945,12.220 Q55.900,10.425 55.390,8.665 Q54.882,6.907 54.882,5.103 Q54.882,3.300 55.395,1.530 Q55.907,-0.240 56.945,-2.030 L55.695,-2.030 Q54.525,-0.193 53.942,1.580 Q53.360,3.353 53.360,5.103 Q53.360,6.845 53.937,8.610 Q54.517,10.377 55.695,12.220 L56.945,12.220 Z M63.312,10.705 Q62.094,10.705 61.479,9.505 Q60.867,8.308 60.867,5.900 Q60.867,3.502 61.479,2.303 Q62.094,1.103 63.312,1.103 Q64.539,1.103 65.152,2.303 Q65.767,3.502 65.767,5.900 Q65.767,8.308 65.152,9.505 Q64.539,10.705 63.312,10.705 Z M63.312,11.955 Q65.274,11.955 66.309,10.402 Q67.344,8.853 67.344,5.900 Q67.344,2.955 66.309,1.403 Q65.274,-0.147 63.312,-0.147 Q61.352,-0.147 60.317,1.403 Q59.282,2.955 59.282,5.900 Q59.282,8.853 60.317,10.402 Q61.352,11.955 63.312,11.955 Z M70.282,2.065 L71.929,2.065 L71.929,0.720 L70.649,-1.780 L69.642,-1.780 L70.282,0.720 L70.282,2.065 Z M79.312,11.745 L80.900,11.745 L78.625,0.080 L77.040,0.080 L79.312,11.745 Z M82.611,12.220 L83.861,12.220 Q85.031,10.377 85.613,8.610 Q86.196,6.845 86.196,5.103 Q86.196,3.353 85.613,1.580 Q85.031,-0.193 83.861,-2.030 L82.611,-2.030 Q83.648,-0.240 84.161,1.530 Q84.673,3.300 84.673,5.103 Q84.673,6.907 84.161,8.665 Q83.648,10.425 82.611,12.220 Z" fill="#0f172a"/></g><text x="232" y="260" text-anchor="middle" class="body">简单噪声分布</text>
  <text x="232" y="286" text-anchor="middle" class="body">采样容易、密度已知</text>
  <text x="232" y="324" text-anchor="middle" class="small">目标：沿连续时间 t ∈ [0,1] 把噪声推到数据分布</text>

  <rect x="898" y="150" width="300" height="204" rx="20" fill="#ecfdf5" stroke="#86efac" stroke-width="2"/>
  <text x="1048" y="190" text-anchor="middle" class="label">终点分布</text>
  <g data-formula="$x_1\sim p_{data}(x)$" transform="translate(1001.671 226.000) scale(1 -1)"><path d="M9.603,8.770 L5.585,4.480 L8.047,0.020 L6.397,0.020 L4.548,3.490 L1.328,0.020 L-0.415,0.020 L3.890,4.630 L1.603,8.770 L3.250,8.770 L4.930,5.605 L7.860,8.770 L9.603,8.770 Z M10.858,-1.676 L12.662,-1.676 L12.662,4.554 L10.699,4.160 L10.699,5.167 L12.652,5.560 L13.756,5.560 L13.756,-1.676 L15.560,-1.676 L15.560,-2.605 L10.858,-2.605 L10.858,-1.676 Z M31.859,6.410 L31.859,5.013 Q31.039,4.402 30.339,4.133 Q29.642,3.865 28.884,3.865 Q28.024,3.865 26.884,4.325 Q26.807,4.355 26.752,4.380 Q26.704,4.395 26.587,4.442 Q25.377,4.918 24.642,4.918 Q23.954,4.918 23.282,4.620 Q22.609,4.325 21.844,3.667 L21.844,5.067 Q22.664,5.678 23.364,5.945 Q24.064,6.215 24.822,6.215 Q25.682,6.215 26.829,5.755 Q26.914,5.715 26.954,5.700 Q27.002,5.685 27.119,5.638 Q28.329,5.160 29.064,5.160 Q29.734,5.160 30.394,5.452 Q31.057,5.748 31.859,6.410 Z M44.610,5.410 Q44.610,6.560 44.110,7.168 Q43.610,7.777 42.673,7.777 Q42.033,7.777 41.450,7.450 Q40.868,7.123 40.415,6.498 Q39.970,5.880 39.703,5.005 Q39.438,4.130 39.438,3.270 Q39.438,2.178 39.938,1.588 Q40.438,0.998 41.360,0.998 Q42.040,0.998 42.623,1.318 Q43.205,1.637 43.618,2.248 Q44.063,2.888 44.335,3.755 Q44.610,4.623 44.610,5.410 Z M40.158,7.442 Q40.735,8.200 41.520,8.590 Q42.305,8.980 43.268,8.980 Q44.610,8.980 45.353,8.100 Q46.095,7.223 46.095,5.638 Q46.095,4.340 45.633,3.165 Q45.173,1.990 44.305,1.060 Q43.728,0.443 43.000,0.118 Q42.275,-0.208 41.470,-0.208 Q40.540,-0.208 39.908,0.180 Q39.275,0.568 38.963,1.333 L38.063,-3.308 L36.625,-3.308 L38.978,8.770 L40.415,8.770 L40.158,7.442 Z M51.510,-1.686 Q51.106,-2.216 50.553,-2.491 Q50.002,-2.764 49.328,-2.764 Q48.409,-2.764 47.875,-2.138 Q47.343,-1.511 47.343,-0.423 Q47.343,0.485 47.665,1.308 Q47.989,2.130 48.602,2.781 Q49.006,3.214 49.513,3.439 Q50.023,3.667 50.581,3.667 Q51.171,3.667 51.622,3.382 Q52.074,3.098 52.320,2.568 L52.977,5.905 L53.988,5.905 L52.331,-2.605 L51.319,-2.605 L51.510,-1.686 Z M48.388,-0.243 Q48.388,-1.035 48.745,-1.478 Q49.104,-1.921 49.739,-1.921 Q50.208,-1.921 50.611,-1.695 Q51.013,-1.468 51.319,-1.025 Q51.641,-0.565 51.827,0.036 Q52.014,0.638 52.014,1.224 Q52.014,1.983 51.655,2.409 Q51.297,2.836 50.668,2.836 Q50.192,2.836 49.781,2.612 Q49.372,2.388 49.083,1.968 Q48.764,1.513 48.575,0.911 Q48.388,0.310 48.388,-0.243 Z M59.955,0.890 L59.271,-2.605 L58.264,-2.605 L58.450,-1.676 Q58.007,-2.222 57.440,-2.493 Q56.875,-2.764 56.180,-2.764 Q55.398,-2.764 54.897,-2.287 Q54.399,-1.807 54.399,-1.058 Q54.399,0.015 55.254,0.638 Q56.110,1.261 57.613,1.261 L59.013,1.261 L59.068,1.530 Q59.080,1.574 59.085,1.625 Q59.090,1.677 59.090,1.786 Q59.090,2.274 58.693,2.544 Q58.298,2.815 57.580,2.815 Q57.088,2.815 56.570,2.689 Q56.054,2.563 55.508,2.311 L55.683,3.242 Q56.252,3.455 56.796,3.560 Q57.340,3.667 57.848,3.667 Q58.931,3.667 59.496,3.196 Q60.063,2.727 60.063,1.829 Q60.063,1.649 60.035,1.406 Q60.009,1.163 59.955,0.890 Z M58.866,0.473 L57.860,0.473 Q56.623,0.473 56.030,0.143 Q55.436,-0.188 55.436,-0.883 Q55.436,-1.364 55.739,-1.637 Q56.044,-1.910 56.579,-1.910 Q57.400,-1.910 58.012,-1.322 Q58.625,-0.734 58.823,0.249 L58.866,0.473 Z M65.537,3.520 L65.385,2.738 L63.378,2.738 L62.727,-0.587 Q62.693,-0.773 62.678,-0.899 Q62.662,-1.025 62.662,-1.095 Q62.662,-1.445 62.872,-1.604 Q63.082,-1.763 63.547,-1.763 L64.564,-1.763 L64.394,-2.605 L63.432,-2.605 Q62.536,-2.605 62.095,-2.255 Q61.656,-1.905 61.656,-1.195 Q61.656,-1.069 61.671,-0.918 Q61.687,-0.768 61.720,-0.587 L62.371,2.738 L61.517,2.738 L61.677,3.520 L62.513,3.520 L62.853,5.259 L63.859,5.259 L63.525,3.520 L65.537,3.520 Z M71.209,0.890 L70.525,-2.605 L69.519,-2.605 L69.704,-1.676 Q69.262,-2.222 68.695,-2.493 Q68.129,-2.764 67.435,-2.764 Q66.652,-2.764 66.152,-2.287 Q65.653,-1.807 65.653,-1.058 Q65.653,0.015 66.509,0.638 Q67.365,1.261 68.868,1.261 L70.268,1.261 L70.322,1.530 Q70.334,1.574 70.340,1.625 Q70.345,1.677 70.345,1.786 Q70.345,2.274 69.948,2.544 Q69.552,2.815 68.835,2.815 Q68.343,2.815 67.825,2.689 Q67.309,2.563 66.763,2.311 L66.938,3.242 Q67.506,3.455 68.051,3.560 Q68.595,3.667 69.102,3.667 Q70.186,3.667 70.751,3.196 Q71.318,2.727 71.318,1.829 Q71.318,1.649 71.290,1.406 Q71.264,1.163 71.209,0.890 Z M70.121,0.473 L69.115,0.473 Q67.877,0.473 67.284,0.143 Q66.691,-0.188 66.691,-0.883 Q66.691,-1.364 66.994,-1.637 Q67.298,-1.910 67.834,-1.910 Q68.654,-1.910 69.267,-1.322 Q69.879,-0.734 70.077,0.249 L70.121,0.473 Z M77.454,12.160 Q76.409,10.365 75.899,8.605 Q75.391,6.848 75.391,5.043 Q75.391,3.240 75.904,1.470 Q76.416,-0.300 77.454,-2.090 L76.204,-2.090 Q75.034,-0.253 74.451,1.520 Q73.869,3.292 73.869,5.043 Q73.869,6.785 74.446,8.550 Q75.026,10.318 76.204,12.160 L77.454,12.160 Z M88.338,8.770 L84.321,4.480 L86.783,0.020 L85.133,0.020 L83.283,3.490 L80.063,0.020 L78.321,0.020 L82.626,4.630 L80.338,8.770 L81.986,8.770 L83.666,5.605 L86.596,8.770 L88.338,8.770 Z M89.487,12.160 L90.737,12.160 Q91.907,10.318 92.490,8.550 Q93.072,6.785 93.072,5.043 Q93.072,3.292 92.490,1.520 Q91.907,-0.253 90.737,-2.090 L89.487,-2.090 Q90.525,-0.300 91.037,1.470 Q91.550,3.240 91.550,5.043 Q91.550,6.848 91.037,8.605 Q90.525,10.365 89.487,12.160 Z" fill="#0f172a"/></g><text x="1048" y="260" text-anchor="middle" class="body">真实数据分布</text>
  <text x="1048" y="286" text-anchor="middle" class="body">图像、视频或多模态样本</text>
  <text x="1048" y="324" text-anchor="middle" class="small">终点由训练数据直接提供监督</text>

  <path d="M 382 252 C 500 180, 782 180, 898 252" fill="none" stroke="#2563eb" stroke-width="5" marker-end="url(#arrowBlue)"/>
  <text x="640" y="174" text-anchor="middle" class="body">连续流映射 φ<tspan baseline-shift="sub" font-size="11">t</tspan></text>

  <rect x="312" y="400" width="656" height="170" rx="22" fill="#ffffff" stroke="#cbd5e1" stroke-width="2"/>
  <text x="640" y="442" text-anchor="middle" class="label">训练时先指定路径，再匹配速度</text>
  <g data-formula="$x(t)=(1-t)x_0+t x_1$" transform="translate(562.732 482.000) scale(1 -1)"><path d="M9.603,8.770 L5.585,4.480 L8.047,0.020 L6.397,0.020 L4.548,3.490 L1.328,0.020 L-0.415,0.020 L3.890,4.630 L1.603,8.770 L3.250,8.770 L4.930,5.605 L7.860,8.770 L9.603,8.770 Z M14.429,12.160 Q13.384,10.365 12.874,8.605 Q12.366,6.848 12.366,5.043 Q12.366,3.240 12.879,1.470 Q13.391,-0.300 14.429,-2.090 L13.179,-2.090 Q12.009,-0.253 11.426,1.520 Q10.844,3.292 10.844,5.043 Q10.844,6.785 11.421,8.550 Q12.001,10.318 13.179,12.160 L14.429,12.160 Z M22.476,8.770 L22.258,7.652 L19.391,7.652 L18.461,2.902 Q18.413,2.638 18.391,2.458 Q18.368,2.277 18.368,2.178 Q18.368,1.677 18.668,1.450 Q18.968,1.222 19.633,1.222 L21.086,1.222 L20.843,0.020 L19.468,0.020 Q18.188,0.020 17.558,0.520 Q16.931,1.020 16.931,2.035 Q16.931,2.215 16.953,2.430 Q16.976,2.645 17.023,2.902 L17.953,7.652 L16.733,7.652 L16.961,8.770 L18.156,8.770 L18.641,11.255 L20.078,11.255 L19.601,8.770 L22.476,8.770 Z M23.267,12.160 L24.517,12.160 Q25.687,10.318 26.269,8.550 Q26.852,6.785 26.852,5.043 Q26.852,3.292 26.269,1.520 Q25.687,-0.253 24.517,-2.090 L23.267,-2.090 Q24.304,-0.300 24.817,1.470 Q25.329,3.240 25.329,5.043 Q25.329,6.848 24.817,8.605 Q24.304,10.365 23.267,12.160 Z M33.039,7.285 L43.054,7.285 L43.054,5.973 L33.039,5.973 L33.039,7.285 Z M33.039,4.098 L43.054,4.098 L43.054,2.770 L33.039,2.770 L33.039,4.098 Z M52.827,12.160 Q51.782,10.365 51.272,8.605 Q50.765,6.848 50.765,5.043 Q50.765,3.240 51.277,1.470 Q51.790,-0.300 52.827,-2.090 L51.577,-2.090 Q50.407,-0.253 49.825,1.520 Q49.242,3.292 49.242,5.043 Q49.242,6.785 49.820,8.550 Q50.400,10.318 51.577,12.160 L52.827,12.160 Z M56.094,1.347 L58.672,1.347 L58.672,10.248 L55.867,9.685 L55.867,11.123 L58.657,11.685 L60.234,11.685 L60.234,1.347 L62.812,1.347 L62.812,0.020 L56.094,0.020 L56.094,1.347 Z M69.101,5.700 L79.116,5.700 L79.116,4.373 L69.101,4.373 L69.101,5.700 Z M90.695,8.770 L90.477,7.652 L87.610,7.652 L86.680,2.902 Q86.632,2.638 86.610,2.458 Q86.587,2.277 86.587,2.178 Q86.587,1.677 86.887,1.450 Q87.187,1.222 87.852,1.222 L89.305,1.222 L89.062,0.020 L87.687,0.020 Q86.407,0.020 85.777,0.520 Q85.150,1.020 85.150,2.035 Q85.150,2.215 85.172,2.430 Q85.195,2.645 85.242,2.902 L86.172,7.652 L84.952,7.652 L85.180,8.770 L86.375,8.770 L86.860,11.255 L88.297,11.255 L87.820,8.770 L90.695,8.770 Z M91.486,12.160 L92.736,12.160 Q93.906,10.318 94.488,8.550 Q95.071,6.785 95.071,5.043 Q95.071,3.292 94.488,1.520 Q93.906,-0.253 92.736,-2.090 L91.486,-2.090 Q92.523,-0.300 93.036,1.470 Q93.548,3.240 93.548,5.043 Q93.548,6.848 93.036,8.605 Q92.523,10.365 91.486,12.160 Z M106.048,8.770 L102.030,4.480 L104.493,0.020 L102.843,0.020 L100.993,3.490 L97.773,0.020 L96.030,0.020 L100.335,4.630 L98.048,8.770 L99.695,8.770 L101.375,5.605 L104.305,8.770 L106.048,8.770 Z M109.474,4.833 Q108.621,4.833 108.191,3.993 Q107.762,3.154 107.762,1.469 Q107.762,-0.209 108.191,-1.049 Q108.621,-1.889 109.474,-1.889 Q110.333,-1.889 110.762,-1.049 Q111.192,-0.209 111.192,1.469 Q111.192,3.154 110.762,3.993 Q110.333,4.833 109.474,4.833 Z M109.474,5.708 Q110.847,5.708 111.572,4.621 Q112.296,3.536 112.296,1.469 Q112.296,-0.593 111.572,-1.679 Q110.847,-2.764 109.474,-2.764 Q108.102,-2.764 107.377,-1.679 Q106.653,-0.593 106.653,1.469 Q106.653,3.536 107.377,4.621 Q108.102,5.708 109.474,5.708 Z M123.955,10.053 L123.955,5.700 L128.305,5.700 L128.305,4.373 L123.955,4.373 L123.955,0.020 L122.642,0.020 L122.642,4.373 L118.290,4.373 L118.290,5.700 L122.642,5.700 L122.642,10.053 L123.955,10.053 Z M139.883,8.770 L139.665,7.652 L136.798,7.652 L135.868,2.902 Q135.820,2.638 135.798,2.458 Q135.775,2.277 135.775,2.178 Q135.775,1.677 136.075,1.450 Q136.375,1.222 137.040,1.222 L138.493,1.222 L138.250,0.020 L136.875,0.020 Q135.595,0.020 134.965,0.520 Q134.338,1.020 134.338,2.035 Q134.338,2.215 134.360,2.430 Q134.383,2.645 134.430,2.902 L135.360,7.652 L134.140,7.652 L134.368,8.770 L135.563,8.770 L136.048,11.255 L137.485,11.255 L137.008,8.770 L139.883,8.770 Z M148.994,8.770 L144.976,4.480 L147.439,0.020 L145.789,0.020 L143.939,3.490 L140.719,0.020 L138.976,0.020 L143.281,4.630 L140.994,8.770 L142.641,8.770 L144.321,5.605 L147.251,8.770 L148.994,8.770 Z M150.250,-1.676 L152.054,-1.676 L152.054,4.554 L150.090,4.160 L150.090,5.167 L152.043,5.560 L153.148,5.560 L153.148,-1.676 L154.952,-1.676 L154.952,-2.605 L150.250,-2.605 L150.250,-1.676 Z" fill="#0f172a"/></g><g data-formula="$v_{target}(x(t),t)=x_1-x_0$" transform="translate(553.672 518.000) scale(1 -1)"><path d="M1.147,8.770 L2.672,8.770 L3.953,1.333 L8.140,8.770 L9.665,8.770 L4.688,0.020 L2.750,0.020 L1.147,8.770 Z M14.204,3.520 L14.052,2.738 L12.045,2.738 L11.394,-0.587 Q11.361,-0.773 11.345,-0.899 Q11.329,-1.025 11.329,-1.095 Q11.329,-1.445 11.539,-1.604 Q11.749,-1.763 12.215,-1.763 L13.231,-1.763 L13.062,-2.605 L12.099,-2.605 Q11.203,-2.605 10.762,-2.255 Q10.323,-1.905 10.323,-1.195 Q10.323,-1.069 10.338,-0.918 Q10.354,-0.768 10.388,-0.587 L11.038,2.738 L10.184,2.738 L10.344,3.520 L11.180,3.520 L11.520,5.259 L12.526,5.259 L12.192,3.520 L14.204,3.520 Z M19.877,0.890 L19.192,-2.605 L18.186,-2.605 L18.372,-1.676 Q17.929,-2.222 17.362,-2.493 Q16.797,-2.764 16.102,-2.764 Q15.320,-2.764 14.819,-2.287 Q14.320,-1.807 14.320,-1.058 Q14.320,0.015 15.176,0.638 Q16.032,1.261 17.535,1.261 L18.935,1.261 L18.989,1.530 Q19.002,1.574 19.007,1.625 Q19.012,1.677 19.012,1.786 Q19.012,2.274 18.615,2.544 Q18.219,2.815 17.502,2.815 Q17.010,2.815 16.492,2.689 Q15.976,2.563 15.430,2.311 L15.605,3.242 Q16.174,3.455 16.718,3.560 Q17.262,3.667 17.770,3.667 Q18.853,3.667 19.418,3.196 Q19.985,2.727 19.985,1.829 Q19.985,1.649 19.957,1.406 Q19.931,1.163 19.877,0.890 Z M18.788,0.473 L17.782,0.473 Q16.545,0.473 15.951,0.143 Q15.358,-0.188 15.358,-0.883 Q15.358,-1.364 15.661,-1.637 Q15.965,-1.910 16.501,-1.910 Q17.322,-1.910 17.934,-1.322 Q18.547,-0.734 18.744,0.249 L18.788,0.473 Z M25.716,2.591 Q25.564,2.673 25.366,2.717 Q25.170,2.760 24.946,2.760 Q24.141,2.760 23.539,2.150 Q22.939,1.541 22.741,0.517 L22.123,-2.605 L21.117,-2.605 L22.314,3.520 L23.320,3.520 L23.130,2.568 Q23.529,3.098 24.083,3.382 Q24.640,3.667 25.268,3.667 Q25.433,3.667 25.590,3.648 Q25.749,3.630 25.909,3.587 L25.716,2.591 Z M32.006,3.520 L30.961,-1.846 Q30.660,-3.403 29.810,-4.168 Q28.959,-4.934 27.521,-4.934 Q26.991,-4.934 26.536,-4.855 Q26.082,-4.777 25.689,-4.612 L25.876,-3.634 Q26.247,-3.874 26.662,-3.988 Q27.078,-4.103 27.549,-4.103 Q28.506,-4.103 29.120,-3.580 Q29.736,-3.058 29.932,-2.080 L30.020,-1.620 Q29.600,-2.101 29.042,-2.353 Q28.483,-2.605 27.838,-2.605 Q26.908,-2.605 26.375,-1.991 Q25.843,-1.375 25.843,-0.297 Q25.843,0.550 26.165,1.362 Q26.488,2.174 27.073,2.804 Q27.461,3.219 27.978,3.443 Q28.494,3.667 29.057,3.667 Q29.675,3.667 30.134,3.380 Q30.594,3.093 30.820,2.568 L30.995,3.520 L32.006,3.520 Z M30.491,1.273 Q30.491,2.017 30.141,2.421 Q29.791,2.825 29.145,2.825 Q28.746,2.825 28.385,2.666 Q28.025,2.508 27.768,2.223 Q27.351,1.754 27.118,1.117 Q26.887,0.480 26.887,-0.199 Q26.887,-0.953 27.239,-1.359 Q27.593,-1.763 28.254,-1.763 Q29.211,-1.763 29.850,-0.897 Q30.491,-0.029 30.491,1.273 Z M37.824,1.005 Q37.842,1.093 37.849,1.185 Q37.857,1.278 37.857,1.371 Q37.857,2.038 37.465,2.426 Q37.075,2.815 36.403,2.815 Q35.654,2.815 35.078,2.340 Q34.504,1.868 34.210,0.998 L37.824,1.005 Z M38.699,0.218 L34.018,0.218 Q33.984,0.009 33.974,-0.111 Q33.963,-0.232 33.963,-0.320 Q33.963,-1.079 34.431,-1.496 Q34.898,-1.910 35.752,-1.910 Q36.408,-1.910 36.993,-1.763 Q37.579,-1.614 38.081,-1.331 L37.891,-2.327 Q37.348,-2.546 36.771,-2.654 Q36.195,-2.764 35.598,-2.764 Q34.324,-2.764 33.638,-2.155 Q32.952,-1.544 32.952,-0.423 Q32.952,0.534 33.293,1.357 Q33.634,2.179 34.298,2.825 Q34.723,3.229 35.311,3.448 Q35.899,3.667 36.561,3.667 Q37.600,3.667 38.214,3.044 Q38.830,2.421 38.830,1.371 Q38.830,1.119 38.797,0.832 Q38.766,0.545 38.699,0.218 Z M44.064,3.520 L43.911,2.738 L41.904,2.738 L41.253,-0.587 Q41.220,-0.773 41.204,-0.899 Q41.188,-1.025 41.188,-1.095 Q41.188,-1.445 41.398,-1.604 Q41.608,-1.763 42.074,-1.763 L43.091,-1.763 L42.921,-2.605 L41.958,-2.605 Q41.062,-2.605 40.621,-2.255 Q40.182,-1.905 40.182,-1.195 Q40.182,-1.069 40.198,-0.918 Q40.214,-0.768 40.247,-0.587 L40.898,2.738 L40.044,2.738 L40.203,3.520 L41.040,3.520 L41.379,5.259 L42.385,5.259 L42.051,3.520 L44.064,3.520 Z M49.117,12.160 Q48.072,10.365 47.562,8.605 Q47.055,6.848 47.055,5.043 Q47.055,3.240 47.567,1.470 Q48.080,-0.300 49.117,-2.090 L47.867,-2.090 Q46.697,-0.253 46.115,1.520 Q45.532,3.292 45.532,5.043 Q45.532,6.785 46.110,8.550 Q46.690,10.318 47.867,12.160 L49.117,12.160 Z M60.002,8.770 L55.984,4.480 L58.447,0.020 L56.797,0.020 L54.947,3.490 L51.727,0.020 L49.984,0.020 L54.289,4.630 L52.002,8.770 L53.649,8.770 L55.329,5.605 L58.259,8.770 L60.002,8.770 Z M64.828,12.160 Q63.783,10.365 63.273,8.605 Q62.765,6.848 62.765,5.043 Q62.765,3.240 63.278,1.470 Q63.790,-0.300 64.828,-2.090 L63.578,-2.090 Q62.408,-0.253 61.825,1.520 Q61.243,3.292 61.243,5.043 Q61.243,6.785 61.820,8.550 Q62.400,10.318 63.578,12.160 L64.828,12.160 Z M72.875,8.770 L72.658,7.652 L69.790,7.652 L68.860,2.902 Q68.813,2.638 68.790,2.458 Q68.768,2.277 68.768,2.178 Q68.768,1.677 69.068,1.450 Q69.368,1.222 70.033,1.222 L71.485,1.222 L71.243,0.020 L69.868,0.020 Q68.588,0.020 67.958,0.520 Q67.330,1.020 67.330,2.035 Q67.330,2.215 67.353,2.430 Q67.375,2.645 67.423,2.902 L68.353,7.652 L67.133,7.652 L67.360,8.770 L68.555,8.770 L69.040,11.255 L70.478,11.255 L70.000,8.770 L72.875,8.770 Z M73.666,12.160 L74.916,12.160 Q76.086,10.318 76.669,8.550 Q77.251,6.785 77.251,5.043 Q77.251,3.292 76.669,1.520 Q76.086,-0.253 74.916,-2.090 L73.666,-2.090 Q74.704,-0.300 75.216,1.470 Q75.729,3.240 75.729,5.043 Q75.729,6.848 75.216,8.605 Q74.704,10.365 73.666,12.160 Z M80.501,2.005 L82.148,2.005 L82.148,0.660 L80.868,-1.840 L79.861,-1.840 L80.501,0.660 L80.501,2.005 Z M93.594,8.770 L93.376,7.652 L90.509,7.652 L89.579,2.902 Q89.531,2.638 89.509,2.458 Q89.486,2.277 89.486,2.178 Q89.486,1.677 89.786,1.450 Q90.086,1.222 90.751,1.222 L92.204,1.222 L91.961,0.020 L90.586,0.020 Q89.306,0.020 88.676,0.520 Q88.049,1.020 88.049,2.035 Q88.049,2.215 88.071,2.430 Q88.094,2.645 88.141,2.902 L89.071,7.652 L87.851,7.652 L88.079,8.770 L89.274,8.770 L89.759,11.255 L91.196,11.255 L90.719,8.770 L93.594,8.770 Z M94.385,12.160 L95.635,12.160 Q96.805,10.318 97.387,8.550 Q97.970,6.785 97.970,5.043 Q97.970,3.292 97.387,1.520 Q96.805,-0.253 95.635,-2.090 L94.385,-2.090 Q95.422,-0.300 95.935,1.470 Q96.447,3.240 96.447,5.043 Q96.447,6.848 95.935,8.605 Q95.422,10.365 94.385,12.160 Z M104.157,7.285 L114.172,7.285 L114.172,5.973 L104.157,5.973 L104.157,7.285 Z M104.157,4.098 L114.172,4.098 L114.172,2.770 L104.157,2.770 L104.157,4.098 Z M128.588,8.770 L124.570,4.480 L127.033,0.020 L125.383,0.020 L123.533,3.490 L120.313,0.020 L118.570,0.020 L122.875,4.630 L120.588,8.770 L122.235,8.770 L123.915,5.605 L126.845,8.770 L128.588,8.770 Z M129.843,-1.676 L131.648,-1.676 L131.648,4.554 L129.684,4.160 L129.684,5.167 L131.637,5.560 L132.741,5.560 L132.741,-1.676 L134.546,-1.676 L134.546,-2.605 L129.843,-2.605 L129.843,-1.676 Z M140.829,5.700 L150.844,5.700 L150.844,4.373 L140.829,4.373 L140.829,5.700 Z M165.260,8.770 L161.243,4.480 L163.705,0.020 L162.055,0.020 L160.205,3.490 L156.985,0.020 L155.243,0.020 L159.548,4.630 L157.260,8.770 L158.908,8.770 L160.588,5.605 L163.518,8.770 L165.260,8.770 Z M168.686,4.833 Q167.834,4.833 167.403,3.993 Q166.975,3.154 166.975,1.469 Q166.975,-0.209 167.403,-1.049 Q167.834,-1.889 168.686,-1.889 Q169.545,-1.889 169.974,-1.049 Q170.405,-0.209 170.405,1.469 Q170.405,3.154 169.974,3.993 Q169.545,4.833 168.686,4.833 Z M168.686,5.708 Q170.060,5.708 170.784,4.621 Q171.509,3.536 171.509,1.469 Q171.509,-0.593 170.784,-1.679 Q170.060,-2.764 168.686,-2.764 Q167.314,-2.764 166.590,-1.679 Q165.865,-0.593 165.865,1.469 Q165.865,3.536 166.590,4.621 Q167.314,5.708 168.686,5.708 Z" fill="#0f172a"/></g><text x="640" y="548" text-anchor="middle" class="body">网络不用显式计算散度，只需回归“当前点应该往哪走、多快走”</text>

  <path d="M 640 354 L 640 400" fill="none" stroke="#16a34a" stroke-width="4" marker-end="url(#arrowGreen)"/>

  <rect x="120" y="608" width="1040" height="52" rx="18" fill="#0f172a"/>
  <text x="640" y="641" text-anchor="middle" style="font:700 18px 'PingFang SC','Microsoft YaHei','Noto Sans CJK SC',Arial,sans-serif; fill:#ffffff;">Flow Matching 的核心不是“逐步去噪”，而是“学习一条把噪声连续推到数据的确定性速度场”</text>
</svg>
