<svg xmlns="http://www.w3.org/2000/svg" width="1280" height="720" viewBox="0 0 1280 720">
  <defs>
    <marker id="arrowGreen" viewBox="0 0 10 10" refX="9" refY="5" markerWidth="8" markerHeight="8" orient="auto">
      <path d="M 0 0 L 10 5 L 0 10 z" fill="#16a34a"/>
    </marker>
    <marker id="arrowOrange" viewBox="0 0 10 10" refX="9" refY="5" markerWidth="8" markerHeight="8" orient="auto">
      <path d="M 0 0 L 10 5 L 0 10 z" fill="#f97316"/>
    </marker>
    <style>
      .title { font: 700 30px "PingFang SC","Microsoft YaHei","Noto Sans CJK SC",Arial,sans-serif; fill: #0f172a; }
      .subtitle { font: 500 16px "PingFang SC","Microsoft YaHei","Noto Sans CJK SC",Arial,sans-serif; fill: #475569; }
      .label { font: 700 18px "PingFang SC","Microsoft YaHei","Noto Sans CJK SC",Arial,sans-serif; fill: #0f172a; }
      .body { font: 500 15px "PingFang SC","Microsoft YaHei","Noto Sans CJK SC",Arial,sans-serif; fill: #334155; }
      .small { font: 500 13px "PingFang SC","Microsoft YaHei","Noto Sans CJK SC",Arial,sans-serif; fill: #475569; }
      .code { font: 600 14px "Menlo","Consolas","Courier New",monospace; fill: #111827; }
    </style>
  </defs>

  <rect width="1280" height="720" fill="#ffffff"/>

  <text x="640" y="46" text-anchor="middle" class="title">Probability Flow ODE 与 Reverse-time SDE 的关系</text>
  <text x="640" y="76" text-anchor="middle" class="subtitle">同一个 Score 网络，两类反向轨迹；理论上边缘分布一致，但轨迹性质不同</text>

  <rect x="92" y="138" width="220" height="96" rx="18" fill="#eff6ff" stroke="#93c5fd" stroke-width="2"/>
  <text x="202" y="174" text-anchor="middle" class="label">初始噪声</text>
  <g data-formula="$x_T\sim p_T(x)$" transform="translate(165.007 204.000) scale(1 -1)"><path d="M9.603,8.770 L5.585,4.480 L8.047,0.020 L6.397,0.020 L4.548,3.490 L1.328,0.020 L-0.415,0.020 L3.890,4.630 L1.603,8.770 L3.250,8.770 L4.930,5.605 L7.860,8.770 L9.603,8.770 Z M10.130,5.560 L17.038,5.560 L16.863,4.629 L13.947,4.629 L12.547,-2.605 L11.438,-2.605 L12.838,4.629 L9.950,4.629 L10.130,5.560 Z M31.575,6.410 L31.575,5.013 Q30.755,4.402 30.055,4.133 Q29.357,3.865 28.600,3.865 Q27.740,3.865 26.600,4.325 Q26.522,4.355 26.467,4.380 Q26.420,4.395 26.302,4.442 Q25.092,4.918 24.357,4.918 Q23.670,4.918 22.997,4.620 Q22.325,4.325 21.560,3.667 L21.560,5.067 Q22.380,5.678 23.080,5.945 Q23.780,6.215 24.537,6.215 Q25.397,6.215 26.545,5.755 Q26.630,5.715 26.670,5.700 Q26.717,5.685 26.835,5.638 Q28.045,5.160 28.780,5.160 Q29.450,5.160 30.110,5.452 Q30.772,5.748 31.575,6.410 Z M44.326,5.410 Q44.326,6.560 43.826,7.168 Q43.326,7.777 42.388,7.777 Q41.748,7.777 41.166,7.450 Q40.583,7.123 40.131,6.498 Q39.686,5.880 39.418,5.005 Q39.153,4.130 39.153,3.270 Q39.153,2.178 39.653,1.588 Q40.153,0.998 41.076,0.998 Q41.756,0.998 42.338,1.318 Q42.921,1.637 43.333,2.248 Q43.778,2.888 44.051,3.755 Q44.326,4.623 44.326,5.410 Z M39.873,7.442 Q40.451,8.200 41.236,8.590 Q42.021,8.980 42.983,8.980 Q44.326,8.980 45.068,8.100 Q45.811,7.223 45.811,5.638 Q45.811,4.340 45.348,3.165 Q44.888,1.990 44.021,1.060 Q43.443,0.443 42.716,0.118 Q41.991,-0.208 41.186,-0.208 Q40.256,-0.208 39.623,0.180 Q38.991,0.568 38.678,1.333 L37.778,-3.308 L36.341,-3.308 L38.693,8.770 L40.131,8.770 L39.873,7.442 Z M47.206,5.560 L54.113,5.560 L53.938,4.629 L51.023,4.629 L49.623,-2.605 L48.513,-2.605 L49.913,4.629 L47.026,4.629 L47.206,5.560 Z M58.783,12.160 Q57.738,10.365 57.228,8.605 Q56.721,6.848 56.721,5.043 Q56.721,3.240 57.233,1.470 Q57.746,-0.300 58.783,-2.090 L57.533,-2.090 Q56.363,-0.253 55.781,1.520 Q55.198,3.292 55.198,5.043 Q55.198,6.785 55.776,8.550 Q56.356,10.318 57.533,12.160 L58.783,12.160 Z M69.668,8.770 L65.651,4.480 L68.113,0.020 L66.463,0.020 L64.613,3.490 L61.393,0.020 L59.651,0.020 L63.956,4.630 L61.668,8.770 L63.316,8.770 L64.996,5.605 L67.926,8.770 L69.668,8.770 Z M70.817,12.160 L72.067,12.160 Q73.237,10.318 73.819,8.550 Q74.402,6.785 74.402,5.043 Q74.402,3.292 73.819,1.520 Q73.237,-0.253 72.067,-2.090 L70.817,-2.090 Q71.854,-0.300 72.367,1.470 Q72.879,3.240 72.879,5.043 Q72.879,6.848 72.367,8.605 Q71.854,10.365 70.817,12.160 Z" fill="#0f172a"/></g><rect x="968" y="138" width="220" height="96" rx="18" fill="#ecfdf5" stroke="#86efac" stroke-width="2"/>
  <text x="1078" y="174" text-anchor="middle" class="label">数据分布</text>
  <g data-formula="$x_0\sim p_0(x)$" transform="translate(1040.722 204.000) scale(1 -1)"><path d="M9.603,8.770 L5.585,4.480 L8.047,0.020 L6.397,0.020 L4.548,3.490 L1.328,0.020 L-0.415,0.020 L3.890,4.630 L1.603,8.770 L3.250,8.770 L4.930,5.605 L7.860,8.770 L9.603,8.770 Z M13.028,4.833 Q12.176,4.833 11.745,3.993 Q11.317,3.154 11.317,1.469 Q11.317,-0.209 11.745,-1.049 Q12.176,-1.889 13.028,-1.889 Q13.888,-1.889 14.316,-1.049 Q14.747,-0.209 14.747,1.469 Q14.747,3.154 14.316,3.993 Q13.888,4.833 13.028,4.833 Z M13.028,5.708 Q14.402,5.708 15.127,4.621 Q15.851,3.536 15.851,1.469 Q15.851,-0.593 15.127,-1.679 Q14.402,-2.764 13.028,-2.764 Q11.656,-2.764 10.932,-1.679 Q10.207,-0.593 10.207,1.469 Q10.207,3.536 10.932,4.621 Q11.656,5.708 13.028,5.708 Z M31.859,6.410 L31.859,5.013 Q31.039,4.402 30.339,4.133 Q29.642,3.865 28.884,3.865 Q28.024,3.865 26.884,4.325 Q26.807,4.355 26.752,4.380 Q26.704,4.395 26.587,4.442 Q25.377,4.918 24.642,4.918 Q23.954,4.918 23.282,4.620 Q22.609,4.325 21.844,3.667 L21.844,5.067 Q22.664,5.678 23.364,5.945 Q24.064,6.215 24.822,6.215 Q25.682,6.215 26.829,5.755 Q26.914,5.715 26.954,5.700 Q27.002,5.685 27.119,5.638 Q28.329,5.160 29.064,5.160 Q29.734,5.160 30.394,5.452 Q31.057,5.748 31.859,6.410 Z M44.610,5.410 Q44.610,6.560 44.110,7.168 Q43.610,7.777 42.673,7.777 Q42.033,7.777 41.450,7.450 Q40.868,7.123 40.415,6.498 Q39.970,5.880 39.703,5.005 Q39.438,4.130 39.438,3.270 Q39.438,2.178 39.938,1.588 Q40.438,0.998 41.360,0.998 Q42.040,0.998 42.623,1.318 Q43.205,1.637 43.618,2.248 Q44.063,2.888 44.335,3.755 Q44.610,4.623 44.610,5.410 Z M40.158,7.442 Q40.735,8.200 41.520,8.590 Q42.305,8.980 43.268,8.980 Q44.610,8.980 45.353,8.100 Q46.095,7.223 46.095,5.638 Q46.095,4.340 45.633,3.165 Q45.173,1.990 44.305,1.060 Q43.728,0.443 43.000,0.118 Q42.275,-0.208 41.470,-0.208 Q40.540,-0.208 39.908,0.180 Q39.275,0.568 38.963,1.333 L38.063,-3.308 L36.625,-3.308 L38.978,8.770 L40.415,8.770 L40.158,7.442 Z M50.388,4.833 Q49.536,4.833 49.106,3.993 Q48.677,3.154 48.677,1.469 Q48.677,-0.209 49.106,-1.049 Q49.536,-1.889 50.388,-1.889 Q51.248,-1.889 51.676,-1.049 Q52.107,-0.209 52.107,1.469 Q52.107,3.154 51.676,3.993 Q51.248,4.833 50.388,4.833 Z M50.388,5.708 Q51.762,5.708 52.487,4.621 Q53.211,3.536 53.211,1.469 Q53.211,-0.593 52.487,-1.679 Q51.762,-2.764 50.388,-2.764 Q49.016,-2.764 48.292,-1.679 Q47.567,-0.593 47.567,1.469 Q47.567,3.536 48.292,4.621 Q49.016,5.708 50.388,5.708 Z M59.352,12.160 Q58.307,10.365 57.797,8.605 Q57.290,6.848 57.290,5.043 Q57.290,3.240 57.802,1.470 Q58.315,-0.300 59.352,-2.090 L58.102,-2.090 Q56.932,-0.253 56.350,1.520 Q55.767,3.292 55.767,5.043 Q55.767,6.785 56.345,8.550 Q56.925,10.318 58.102,12.160 L59.352,12.160 Z M70.237,8.770 L66.219,4.480 L68.682,0.020 L67.032,0.020 L65.182,3.490 L61.962,0.020 L60.219,0.020 L64.524,4.630 L62.237,8.770 L63.884,8.770 L65.564,5.605 L68.494,8.770 L70.237,8.770 Z M71.386,12.160 L72.636,12.160 Q73.806,10.318 74.388,8.550 Q74.971,6.785 74.971,5.043 Q74.971,3.292 74.388,1.520 Q73.806,-0.253 72.636,-2.090 L71.386,-2.090 Q72.423,-0.300 72.936,1.470 Q73.448,3.240 73.448,5.043 Q73.448,6.848 72.936,8.605 Q72.423,10.365 71.386,12.160 Z" fill="#0f172a"/></g><path d="M 320 168 C 438 94, 610 118, 746 162 S 960 196, 966 186" fill="none" stroke="#f97316" stroke-width="4" stroke-dasharray="10 8" marker-end="url(#arrowOrange)"/>
  <path d="M 320 210 C 452 288, 606 258, 732 220 S 936 134, 966 184" fill="none" stroke="#f97316" stroke-width="4" stroke-dasharray="10 8" marker-end="url(#arrowOrange)" opacity="0.78"/>
  <path d="M 320 190 C 500 198, 700 196, 966 186" fill="none" stroke="#16a34a" stroke-width="5" marker-end="url(#arrowGreen)"/>

  <text x="640" y="132" text-anchor="middle" class="label" fill="#f97316">Reverse-time SDE：随机轨迹</text>
  <text x="640" y="255" text-anchor="middle" class="label" fill="#16a34a">PF-ODE：确定性轨迹</text>

  <rect x="95" y="314" width="520" height="160" rx="18" fill="#fff7ed" stroke="#fdba74" stroke-width="2"/>
  <text x="355" y="350" text-anchor="middle" class="label">Reverse-time SDE</text>
  <g data-formula="$dx=[f-g^2s_\theta]dt+g\,d\bar{w}$" transform="translate(263.035 384.000) scale(1 -1)"><path d="M6.688,1.435 Q6.110,0.677 5.320,0.285 Q4.532,-0.105 3.570,-0.105 Q2.257,-0.105 1.495,0.790 Q0.735,1.685 0.735,3.240 Q0.735,4.538 1.195,5.713 Q1.657,6.888 2.533,7.817 Q3.110,8.435 3.835,8.758 Q4.562,9.082 5.360,9.082 Q6.203,9.082 6.848,8.675 Q7.492,8.270 7.845,7.513 L8.783,12.280 L10.228,12.280 L7.860,0.122 L6.415,0.122 L6.688,1.435 Z M2.228,3.498 Q2.228,2.365 2.738,1.732 Q3.250,1.100 4.157,1.100 Q4.827,1.100 5.402,1.423 Q5.978,1.748 6.415,2.380 Q6.875,3.038 7.140,3.895 Q7.407,4.755 7.407,5.593 Q7.407,6.678 6.895,7.285 Q6.383,7.895 5.485,7.895 Q4.805,7.895 4.218,7.575 Q3.633,7.255 3.220,6.655 Q2.765,6.005 2.495,5.145 Q2.228,4.288 2.228,3.498 Z M19.759,8.873 L15.741,4.583 L18.204,0.122 L16.554,0.122 L14.704,3.593 L11.484,0.122 L9.741,0.122 L14.046,4.732 L11.759,8.873 L13.406,8.873 L15.086,5.708 L18.016,8.873 L19.759,8.873 Z M24.437,7.388 L34.452,7.388 L34.452,6.075 L24.437,6.075 L24.437,7.388 Z M24.437,4.200 L34.452,4.200 L34.452,2.873 L24.437,2.873 L24.437,4.200 Z M40.641,12.280 L43.953,12.280 L43.953,11.162 L42.078,11.162 L42.078,-0.870 L43.953,-0.870 L43.953,-1.988 L40.641,-1.988 L40.641,12.280 Z M53.155,12.280 L52.930,11.082 L51.555,11.082 Q50.773,11.082 50.418,10.775 Q50.063,10.467 49.890,9.645 L49.735,8.873 L52.103,8.873 L51.890,7.755 L49.523,7.755 L48.040,0.122 L46.593,0.122 L48.085,7.755 L46.710,7.755 L46.915,8.873 L48.290,8.873 L48.405,9.482 Q48.703,11.030 49.448,11.655 Q50.195,12.280 51.798,12.280 L53.155,12.280 Z M55.953,5.803 L65.968,5.803 L65.968,4.475 L55.953,4.475 L55.953,5.803 Z M80.321,8.873 L78.829,1.208 Q78.399,-1.018 77.184,-2.110 Q75.969,-3.205 73.914,-3.205 Q73.156,-3.205 72.506,-3.093 Q71.859,-2.980 71.296,-2.745 L71.564,-1.347 Q72.094,-1.690 72.686,-1.853 Q73.281,-2.018 73.954,-2.018 Q75.321,-2.018 76.199,-1.270 Q77.079,-0.525 77.359,0.873 L77.484,1.530 Q76.884,0.843 76.086,0.482 Q75.289,0.122 74.366,0.122 Q73.039,0.122 72.276,1.000 Q71.516,1.880 71.516,3.420 Q71.516,4.630 71.976,5.790 Q72.439,6.950 73.274,7.850 Q73.829,8.443 74.566,8.763 Q75.304,9.082 76.109,9.082 Q76.991,9.082 77.646,8.672 Q78.304,8.262 78.626,7.513 L78.876,8.873 L80.321,8.873 Z M78.156,5.663 Q78.156,6.725 77.656,7.303 Q77.156,7.880 76.234,7.880 Q75.664,7.880 75.149,7.652 Q74.634,7.428 74.266,7.020 Q73.671,6.350 73.339,5.440 Q73.009,4.530 73.009,3.560 Q73.009,2.482 73.511,1.903 Q74.016,1.325 74.961,1.325 Q76.329,1.325 77.241,2.562 Q78.156,3.803 78.156,5.663 Z M83.830,7.177 L87.686,7.177 L87.686,6.248 L82.502,6.248 L82.502,7.177 Q83.130,7.828 84.215,8.923 Q85.302,10.021 85.580,10.339 Q86.111,10.934 86.321,11.347 Q86.532,11.760 86.532,12.159 Q86.532,12.810 86.076,13.219 Q85.619,13.631 84.886,13.631 Q84.366,13.631 83.788,13.450 Q83.213,13.270 82.556,12.903 L82.556,14.019 Q83.223,14.287 83.802,14.423 Q84.383,14.560 84.865,14.560 Q86.133,14.560 86.888,13.925 Q87.642,13.291 87.642,12.231 Q87.642,11.727 87.453,11.275 Q87.266,10.825 86.767,10.213 Q86.630,10.054 85.897,9.296 Q85.166,8.538 83.830,7.177 Z M97.245,8.615 L96.972,7.255 Q96.402,7.567 95.767,7.723 Q95.135,7.880 94.465,7.880 Q93.330,7.880 92.677,7.492 Q92.027,7.107 92.027,6.442 Q92.027,5.670 93.542,5.255 Q93.660,5.225 93.715,5.208 L94.175,5.067 Q95.612,4.670 96.092,4.232 Q96.572,3.795 96.572,3.038 Q96.572,1.645 95.467,0.770 Q94.362,-0.105 92.572,-0.105 Q91.877,-0.105 91.112,0.030 Q90.347,0.163 89.425,0.443 L89.705,1.927 Q90.495,1.520 91.260,1.310 Q92.027,1.100 92.730,1.100 Q93.785,1.100 94.445,1.552 Q95.105,2.005 95.105,2.700 Q95.105,3.450 93.370,3.913 L93.222,3.950 L92.730,4.075 Q91.635,4.365 91.127,4.838 Q90.620,5.310 90.620,6.045 Q90.620,7.442 91.670,8.262 Q92.722,9.082 94.527,9.082 Q95.237,9.082 95.912,8.965 Q96.590,8.850 97.245,8.615 Z M102.678,1.381 L99.199,1.381 Q98.965,-0.256 99.205,-0.949 Q99.506,-1.802 100.321,-1.802 Q101.140,-1.802 101.765,-0.943 Q102.311,-0.189 102.678,1.381 Z M102.846,2.310 Q102.995,3.864 102.803,4.410 Q102.503,5.274 101.698,5.274 Q100.862,5.274 100.249,4.420 Q99.768,3.733 99.390,2.310 L102.846,2.310 Z M101.858,6.095 Q103.170,6.095 103.695,4.935 Q104.220,3.782 103.821,1.736 Q103.427,-0.305 102.447,-1.463 Q101.474,-2.629 100.162,-2.629 Q98.844,-2.629 98.324,-1.463 Q97.805,-0.305 98.198,1.736 Q98.597,3.782 99.565,4.935 Q100.540,6.095 101.858,6.095 Z M109.738,12.280 L109.738,-1.988 L106.426,-1.988 L106.426,-0.870 L108.293,-0.870 L108.293,11.162 L106.426,11.162 L106.426,12.280 L109.738,12.280 Z M117.800,1.435 Q117.223,0.677 116.433,0.285 Q115.645,-0.105 114.683,-0.105 Q113.370,-0.105 112.608,0.790 Q111.848,1.685 111.848,3.240 Q111.848,4.538 112.308,5.713 Q112.770,6.888 113.645,7.817 Q114.223,8.435 114.948,8.758 Q115.675,9.082 116.473,9.082 Q117.315,9.082 117.960,8.675 Q118.605,8.270 118.958,7.513 L119.895,12.280 L121.340,12.280 L118.973,0.122 L117.528,0.122 L117.800,1.435 Z M113.340,3.498 Q113.340,2.365 113.850,1.732 Q114.363,1.100 115.270,1.100 Q115.940,1.100 116.515,1.423 Q117.090,1.748 117.528,2.380 Q117.988,3.038 118.253,3.895 Q118.520,4.755 118.520,5.593 Q118.520,6.678 118.008,7.285 Q117.495,7.895 116.598,7.895 Q115.918,7.895 115.330,7.575 Q114.745,7.255 114.333,6.655 Q113.878,6.005 113.608,5.145 Q113.340,4.288 113.340,3.498 Z M128.034,8.873 L127.816,7.755 L124.949,7.755 L124.019,3.005 Q123.971,2.740 123.949,2.560 Q123.926,2.380 123.926,2.280 Q123.926,1.780 124.226,1.552 Q124.526,1.325 125.191,1.325 L126.644,1.325 L126.401,0.122 L125.026,0.122 Q123.746,0.122 123.116,0.623 Q122.489,1.123 122.489,2.138 Q122.489,2.317 122.511,2.533 Q122.534,2.748 122.581,3.005 L123.511,7.755 L122.291,7.755 L122.519,8.873 L123.714,8.873 L124.199,11.357 L125.636,11.357 L125.159,8.873 L128.034,8.873 Z M138.020,10.155 L138.020,5.803 L142.370,5.803 L142.370,4.475 L138.020,4.475 L138.020,0.122 L136.707,0.122 L136.707,4.475 L132.355,4.475 L132.355,5.803 L136.707,5.803 L136.707,10.155 L138.020,10.155 Z M156.723,8.873 L155.231,1.208 Q154.801,-1.018 153.586,-2.110 Q152.371,-3.205 150.316,-3.205 Q149.558,-3.205 148.908,-3.093 Q148.261,-2.980 147.698,-2.745 L147.966,-1.347 Q148.496,-1.690 149.088,-1.853 Q149.683,-2.018 150.356,-2.018 Q151.723,-2.018 152.601,-1.270 Q153.481,-0.525 153.761,0.873 L153.886,1.530 Q153.286,0.843 152.488,0.482 Q151.691,0.122 150.768,0.122 Q149.441,0.122 148.678,1.000 Q147.918,1.880 147.918,3.420 Q147.918,4.630 148.378,5.790 Q148.841,6.950 149.676,7.850 Q150.231,8.443 150.968,8.763 Q151.706,9.082 152.511,9.082 Q153.393,9.082 154.048,8.672 Q154.706,8.262 155.028,7.513 L155.278,8.873 L156.723,8.873 Z M154.558,5.663 Q154.558,6.725 154.058,7.303 Q153.558,7.880 152.636,7.880 Q152.066,7.880 151.551,7.652 Q151.036,7.428 150.668,7.020 Q150.073,6.350 149.741,5.440 Q149.411,4.530 149.411,3.560 Q149.411,2.482 149.913,1.903 Q150.418,1.325 151.363,1.325 Q152.731,1.325 153.643,2.562 Q154.558,3.803 154.558,5.663 Z M166.625,1.435 Q166.047,0.677 165.257,0.285 Q164.470,-0.105 163.507,-0.105 Q162.195,-0.105 161.432,0.790 Q160.672,1.685 160.672,3.240 Q160.672,4.538 161.132,5.713 Q161.595,6.888 162.470,7.817 Q163.047,8.435 163.772,8.758 Q164.500,9.082 165.297,9.082 Q166.140,9.082 166.785,8.675 Q167.430,8.270 167.782,7.513 L168.720,12.280 L170.165,12.280 L167.797,0.122 L166.352,0.122 L166.625,1.435 Z M162.165,3.498 Q162.165,2.365 162.675,1.732 Q163.187,1.100 164.095,1.100 Q164.765,1.100 165.340,1.423 Q165.915,1.748 166.352,2.380 Q166.812,3.038 167.077,3.895 Q167.345,4.755 167.345,5.593 Q167.345,6.678 166.832,7.285 Q166.320,7.895 165.422,7.895 Q164.742,7.895 164.155,7.575 Q163.570,7.255 163.157,6.655 Q162.702,6.005 162.432,5.145 Q162.165,4.288 162.165,3.498 Z M175.925,12.030 L180.597,12.030 L180.597,10.873 L175.925,10.873 L175.925,12.030 Z M171.453,8.873 L172.876,8.873 L173.241,1.833 L176.508,8.873 L178.171,8.873 L178.656,1.833 L181.758,8.873 L183.196,8.873 L179.196,0.122 L177.516,0.122 L177.086,7.373 L173.741,0.122 L172.046,0.122 L171.453,8.873 Z" fill="#0f172a"/></g><text x="355" y="418" text-anchor="middle" class="body">保留随机噪声项，适合多样性和局部随机探索</text>
  <text x="355" y="446" text-anchor="middle" class="small">同一初始噪声下，若随机数不同，轨迹也会不同</text>

  <rect x="665" y="314" width="520" height="160" rx="18" fill="#ecfdf5" stroke="#86efac" stroke-width="2"/>
  <text x="925" y="350" text-anchor="middle" class="label">Probability Flow ODE</text>
  <g data-formula="$dx=[f-\frac{1}{2}g^2s_\theta]dt$" transform="translate(856.053 384.000) scale(1 -1)"><path d="M6.688,1.339 Q6.110,0.582 5.320,0.189 Q4.532,-0.201 3.570,-0.201 Q2.257,-0.201 1.495,0.694 Q0.735,1.589 0.735,3.144 Q0.735,4.442 1.195,5.617 Q1.657,6.792 2.533,7.722 Q3.110,8.339 3.835,8.662 Q4.562,8.987 5.360,8.987 Q6.203,8.987 6.848,8.579 Q7.492,8.174 7.845,7.417 L8.783,12.184 L10.228,12.184 L7.860,0.027 L6.415,0.027 L6.688,1.339 Z M2.228,3.402 Q2.228,2.269 2.738,1.637 Q3.250,1.004 4.157,1.004 Q4.827,1.004 5.402,1.327 Q5.978,1.652 6.415,2.284 Q6.875,2.942 7.140,3.799 Q7.407,4.659 7.407,5.497 Q7.407,6.582 6.895,7.189 Q6.383,7.799 5.485,7.799 Q4.805,7.799 4.218,7.479 Q3.633,7.159 3.220,6.559 Q2.765,5.909 2.495,5.049 Q2.228,4.192 2.228,3.402 Z M19.759,8.777 L15.741,4.487 L18.204,0.027 L16.554,0.027 L14.704,3.497 L11.484,0.027 L9.741,0.027 L14.046,4.637 L11.759,8.777 L13.406,8.777 L15.086,5.612 L18.016,8.777 L19.759,8.777 Z M24.437,7.292 L34.452,7.292 L34.452,5.979 L24.437,5.979 L24.437,7.292 Z M24.437,4.104 L34.452,4.104 L34.452,2.777 L24.437,2.777 L24.437,4.104 Z M40.641,12.184 L43.953,12.184 L43.953,11.067 L42.078,11.067 L42.078,-0.966 L43.953,-0.966 L43.953,-2.083 L40.641,-2.083 L40.641,12.184 Z M53.155,12.184 L52.930,10.987 L51.555,10.987 Q50.773,10.987 50.418,10.679 Q50.063,10.372 49.890,9.549 L49.735,8.777 L52.103,8.777 L51.890,7.659 L49.523,7.659 L48.040,0.027 L46.593,0.027 L48.085,7.659 L46.710,7.659 L46.915,8.777 L48.290,8.777 L48.405,9.387 Q48.703,10.934 49.448,11.559 Q50.195,12.184 51.798,12.184 L53.155,12.184 Z M55.953,5.707 L65.968,5.707 L65.968,4.379 L55.953,4.379 L55.953,5.707 Z M72.171,7.964 L73.975,7.964 L73.975,14.194 L72.011,13.800 L72.011,14.806 L73.965,15.200 L75.069,15.200 L75.069,7.964 L76.873,7.964 L76.873,7.035 L72.171,7.035 L72.171,7.964 Z M72.930,-5.349 L76.785,-5.349 L76.785,-6.278 L71.602,-6.278 L71.602,-5.349 Q72.230,-4.698 73.315,-3.602 Q74.402,-2.505 74.680,-2.187 Q75.211,-1.592 75.421,-1.179 Q75.632,-0.766 75.632,-0.367 Q75.632,0.284 75.175,0.694 Q74.719,1.105 73.986,1.105 Q73.466,1.105 72.888,0.925 Q72.312,0.745 71.656,0.377 L71.656,1.494 Q72.323,1.761 72.902,1.898 Q73.483,2.034 73.965,2.034 Q75.233,2.034 75.987,1.399 Q76.742,0.766 76.742,-0.295 Q76.742,-0.799 76.553,-1.250 Q76.365,-1.700 75.867,-2.313 Q75.730,-2.472 74.997,-3.230 Q74.266,-3.987 72.930,-5.349 Z M89.447,8.777 L87.955,1.112 Q87.525,-1.113 86.310,-2.206 Q85.095,-3.301 83.040,-3.301 Q82.282,-3.301 81.632,-3.188 Q80.985,-3.076 80.422,-2.841 L80.690,-1.443 Q81.220,-1.786 81.812,-1.948 Q82.407,-2.113 83.080,-2.113 Q84.447,-2.113 85.325,-1.366 Q86.205,-0.621 86.485,0.777 L86.610,1.434 Q86.010,0.747 85.212,0.387 Q84.415,0.027 83.492,0.027 Q82.165,0.027 81.402,0.904 Q80.642,1.784 80.642,3.324 Q80.642,4.534 81.102,5.694 Q81.565,6.854 82.400,7.754 Q82.955,8.347 83.692,8.667 Q84.430,8.987 85.235,8.987 Q86.117,8.987 86.772,8.577 Q87.430,8.167 87.752,7.417 L88.002,8.777 L89.447,8.777 Z M87.282,5.567 Q87.282,6.629 86.782,7.207 Q86.282,7.784 85.360,7.784 Q84.790,7.784 84.275,7.557 Q83.760,7.332 83.392,6.924 Q82.797,6.254 82.465,5.344 Q82.135,4.434 82.135,3.464 Q82.135,2.387 82.637,1.807 Q83.142,1.229 84.087,1.229 Q85.455,1.229 86.367,2.467 Q87.282,3.707 87.282,5.567 Z M92.956,7.081 L96.812,7.081 L96.812,6.152 L91.628,6.152 L91.628,7.081 Q92.256,7.732 93.341,8.828 Q94.428,9.925 94.706,10.243 Q95.237,10.838 95.447,11.251 Q95.658,11.664 95.658,12.063 Q95.658,12.714 95.202,13.124 Q94.745,13.535 94.012,13.535 Q93.492,13.535 92.914,13.355 Q92.339,13.175 91.682,12.807 L91.682,13.924 Q92.349,14.191 92.928,14.328 Q93.509,14.464 93.991,14.464 Q95.259,14.464 96.014,13.829 Q96.768,13.196 96.768,12.135 Q96.768,11.631 96.579,11.180 Q96.392,10.730 95.893,10.117 Q95.756,9.958 95.023,9.200 Q94.292,8.443 92.956,7.081 Z M106.371,8.519 L106.098,7.159 Q105.528,7.472 104.893,7.627 Q104.261,7.784 103.591,7.784 Q102.456,7.784 101.803,7.397 Q101.153,7.012 101.153,6.347 Q101.153,5.574 102.668,5.159 Q102.786,5.129 102.841,5.112 L103.301,4.972 Q104.738,4.574 105.218,4.137 Q105.698,3.699 105.698,2.942 Q105.698,1.549 104.593,0.674 Q103.488,-0.201 101.698,-0.201 Q101.003,-0.201 100.238,-0.066 Q99.473,0.067 98.551,0.347 L98.831,1.832 Q99.621,1.424 100.386,1.214 Q101.153,1.004 101.856,1.004 Q102.911,1.004 103.571,1.457 Q104.231,1.909 104.231,2.604 Q104.231,3.354 102.496,3.817 L102.348,3.854 L101.856,3.979 Q100.761,4.269 100.253,4.742 Q99.746,5.214 99.746,5.949 Q99.746,7.347 100.796,8.167 Q101.848,8.987 103.653,8.987 Q104.363,8.987 105.038,8.869 Q105.716,8.754 106.371,8.519 Z M111.804,1.285 L108.325,1.285 Q108.091,-0.351 108.330,-1.044 Q108.631,-1.898 109.447,-1.898 Q110.266,-1.898 110.891,-1.039 Q111.437,-0.285 111.804,1.285 Z M111.972,2.214 Q112.121,3.768 111.928,4.314 Q111.629,5.179 110.824,5.179 Q109.988,5.179 109.375,4.325 Q108.894,3.637 108.516,2.214 L111.972,2.214 Z M110.983,6.000 Q112.296,6.000 112.821,4.839 Q113.346,3.686 112.947,1.640 Q112.553,-0.400 111.573,-1.559 Q110.600,-2.724 109.288,-2.724 Q107.970,-2.724 107.450,-1.559 Q106.930,-0.400 107.324,1.640 Q107.723,3.686 108.691,4.839 Q109.666,6.000 110.983,6.000 Z M118.864,12.184 L118.864,-2.083 L115.551,-2.083 L115.551,-0.966 L117.419,-0.966 L117.419,11.067 L115.551,11.067 L115.551,12.184 L118.864,12.184 Z M126.926,1.339 Q126.349,0.582 125.559,0.189 Q124.771,-0.201 123.809,-0.201 Q122.496,-0.201 121.734,0.694 Q120.974,1.589 120.974,3.144 Q120.974,4.442 121.434,5.617 Q121.896,6.792 122.771,7.722 Q123.349,8.339 124.074,8.662 Q124.801,8.987 125.599,8.987 Q126.441,8.987 127.086,8.579 Q127.731,8.174 128.084,7.417 L129.021,12.184 L130.466,12.184 L128.099,0.027 L126.654,0.027 L126.926,1.339 Z M122.466,3.402 Q122.466,2.269 122.976,1.637 Q123.489,1.004 124.396,1.004 Q125.066,1.004 125.641,1.327 Q126.216,1.652 126.654,2.284 Q127.114,2.942 127.379,3.799 Q127.646,4.659 127.646,5.497 Q127.646,6.582 127.134,7.189 Q126.621,7.799 125.724,7.799 Q125.044,7.799 124.456,7.479 Q123.871,7.159 123.459,6.559 Q123.004,5.909 122.734,5.049 Q122.466,4.192 122.466,3.402 Z M137.160,8.777 L136.942,7.659 L134.075,7.659 L133.145,2.909 Q133.097,2.644 133.075,2.464 Q133.052,2.284 133.052,2.184 Q133.052,1.684 133.352,1.457 Q133.652,1.229 134.317,1.229 L135.770,1.229 L135.527,0.027 L134.152,0.027 Q132.872,0.027 132.242,0.527 Q131.615,1.027 131.615,2.042 Q131.615,2.222 131.637,2.437 Q131.660,2.652 131.707,2.909 L132.637,7.659 L131.417,7.659 L131.645,8.777 L132.840,8.777 L133.325,11.262 L134.762,11.262 L134.285,8.777 L137.160,8.777 Z M70.781,3.035 L70.781,4.035 L77.907,4.035 L77.907,3.035 L70.781,3.035 Z" fill="#0f172a"/></g><text x="925" y="418" text-anchor="middle" class="body">没有随机扩散项，适合复现、反演和似然估计</text>
  <text x="925" y="446" text-anchor="middle" class="small">同一初始噪声和数值配置下，轨迹通常稳定复现</text>

  <rect x="165" y="544" width="950" height="92" rx="18" fill="#0f172a"/>
  <text x="640" y="581" text-anchor="middle" style="font:700 20px 'PingFang SC','Microsoft YaHei','Noto Sans CJK SC',Arial,sans-serif; fill:#ffffff;">关键区分：边缘分布相同，不代表逐点轨迹相同</text>
  <text x="640" y="612" text-anchor="middle" style="font:500 15px 'PingFang SC','Microsoft YaHei','Noto Sans CJK SC',Arial,sans-serif; fill:#cbd5e1;">理论等价成立在精确 Score 和理想连续时间条件下；实际采样还受模型误差、步长和求解器影响</text>
</svg>
