<svg xmlns="http://www.w3.org/2000/svg" width="1280" height="720" viewBox="0 0 1280 720">
  <defs>
    <marker id="arrowBlue" viewBox="0 0 10 10" refX="9" refY="5" markerWidth="8" markerHeight="8" orient="auto">
      <path d="M 0 0 L 10 5 L 0 10 z" fill="#2563eb"/>
    </marker>
    <marker id="arrowOrange" viewBox="0 0 10 10" refX="9" refY="5" markerWidth="8" markerHeight="8" orient="auto">
      <path d="M 0 0 L 10 5 L 0 10 z" fill="#f97316"/>
    </marker>
    <style>
      .title { font: 700 30px "PingFang SC","Microsoft YaHei","Noto Sans CJK SC",Arial,sans-serif; fill: #0f172a; }
      .subtitle { font: 500 16px "PingFang SC","Microsoft YaHei","Noto Sans CJK SC",Arial,sans-serif; fill: #475569; }
      .label { font: 700 18px "PingFang SC","Microsoft YaHei","Noto Sans CJK SC",Arial,sans-serif; fill: #0f172a; }
      .body { font: 500 15px "PingFang SC","Microsoft YaHei","Noto Sans CJK SC",Arial,sans-serif; fill: #334155; }
      .small { font: 500 13px "PingFang SC","Microsoft YaHei","Noto Sans CJK SC",Arial,sans-serif; fill: #475569; }
      .code { font: 600 14px "Arial Unicode MS","STIXGeneral","Times New Roman","PingFang SC",serif; fill: #111827; }
    </style>
  </defs>

  <rect width="1280" height="720" fill="#ffffff"/>

  <text x="640" y="46" text-anchor="middle" class="title">Predictor-Corrector 采样机制</text>
  <text x="640" y="76" text-anchor="middle" class="subtitle">Predictor 负责跨时间步推进，Corrector 负责在当前时间层做局部修正</text>

  <rect x="78" y="152" width="210" height="102" rx="18" fill="#eff6ff" stroke="#93c5fd" stroke-width="2"/>
  <text x="183" y="188" text-anchor="middle" class="label">当前样本</text>
  <text x="183" y="220" text-anchor="middle" class="code">x_t</text>

  <path d="M 296 202 L 456 202" fill="none" stroke="#2563eb" stroke-width="4" marker-end="url(#arrowBlue)"/>
  <text x="376" y="178" text-anchor="middle" class="label" fill="#2563eb">Predictor</text>
  <text x="376" y="232" text-anchor="middle" class="small">SDE/ODE 数值推进</text>

  <rect x="470" y="152" width="260" height="102" rx="18" fill="#f8fafc" stroke="#cbd5e1" stroke-width="2"/>
  <text x="600" y="188" text-anchor="middle" class="label">粗略预测</text>
  <text x="600" y="220" text-anchor="middle" class="code">x'_(t−Δt)</text>

  <path d="M 738 202 L 898 202" fill="none" stroke="#f97316" stroke-width="4" marker-end="url(#arrowOrange)"/>
  <text x="818" y="178" text-anchor="middle" class="label" fill="#f97316">Corrector</text>
  <text x="818" y="232" text-anchor="middle" class="small">K 步 Langevin 局部校正</text>

  <rect x="912" y="152" width="250" height="102" rx="18" fill="#ecfdf5" stroke="#86efac" stroke-width="2"/>
  <text x="1037" y="188" text-anchor="middle" class="label">校正后样本</text>
  <text x="1037" y="220" text-anchor="middle" class="code">x_(t−Δt)</text>

  <path d="M 1037 262 C 1037 334, 183 334, 183 262" fill="none" stroke="#64748b" stroke-width="3" stroke-dasharray="8 8" marker-end="url(#arrowBlue)"/>
  <text x="610" y="320" text-anchor="middle" class="small">重复循环，直到 t = 0</text>

  <rect x="106" y="404" width="320" height="158" rx="18" fill="#eff6ff" stroke="#93c5fd" stroke-width="2"/>
  <text x="266" y="440" text-anchor="middle" class="label">Predictor 做什么</text>
  <text x="266" y="474" text-anchor="middle" class="body">沿反向生成方向快速前进</text>
  <text x="266" y="502" text-anchor="middle" class="body">减少从 T 到 0 的总步数</text>
  <text x="266" y="532" text-anchor="middle" class="small">代价：大步长会带来离散化误差</text>

  <rect x="480" y="404" width="320" height="158" rx="18" fill="#fff7ed" stroke="#fdba74" stroke-width="2"/>
  <text x="640" y="440" text-anchor="middle" class="label">Corrector 做什么</text>
  <text x="640" y="474" text-anchor="middle" class="body">利用 Score 指向高概率区域</text>
  <text x="640" y="502" text-anchor="middle" class="body">用随机噪声保留局部探索能力</text>
  <text x="640" y="532" text-anchor="middle" class="small">代价：额外网络前向和随机性</text>

  <rect x="854" y="404" width="320" height="158" rx="18" fill="#f8fafc" stroke="#cbd5e1" stroke-width="2"/>
  <text x="1014" y="440" text-anchor="middle" class="label">整体权衡</text>
  <text x="1014" y="474" text-anchor="middle" class="body">质量通常更稳，但速度更慢</text>
  <text x="1014" y="502" text-anchor="middle" class="body">需要调 Corrector 步数和步长</text>
  <text x="1014" y="532" text-anchor="middle" class="small">收益取决于模型、调度和求解器</text>

  <rect x="165" y="622" width="950" height="56" rx="16" fill="#0f172a"/>
  <text x="640" y="657" text-anchor="middle" style="font:600 16px 'PingFang SC','Microsoft YaHei','Noto Sans CJK SC',Arial,sans-serif; fill:#e2e8f0;">一句话：Predictor 负责“走过去”，Corrector 负责“站稳一点”</text>
</svg>
