<svg xmlns="http://www.w3.org/2000/svg" width="1280" height="760" viewBox="0 0 1280 760">
  <defs>
    <style>
      .title { font: 700 30px "PingFang SC","Microsoft YaHei","Noto Sans CJK SC",Arial,sans-serif; fill: #0f172a; }
      .sub { font: 500 16px "PingFang SC","Microsoft YaHei","Noto Sans CJK SC",Arial,sans-serif; fill: #475569; }
      .h { font: 700 22px "PingFang SC","Microsoft YaHei","Noto Sans CJK SC",Arial,sans-serif; fill: #0f172a; }
      .body { font: 500 16px "PingFang SC","Microsoft YaHei","Noto Sans CJK SC",Arial,sans-serif; fill: #334155; }
      .small { font: 500 14px "PingFang SC","Microsoft YaHei","Noto Sans CJK SC",Arial,sans-serif; fill: #475569; }
      .code { font: 600 15px "Menlo","Consolas","Courier New",monospace; fill: #0f172a; }
    </style>
  </defs>

  <rect width="1280" height="760" fill="#f8fafc"/>
  <rect x="34" y="28" width="1212" height="704" rx="24" fill="#ffffff" stroke="#d7dee8" stroke-width="2"/>

  <text x="640" y="74" text-anchor="middle" class="title">Rectified Flow、Flow Matching 与 Consistency Model 关系图</text>
  <text x="640" y="104" text-anchor="middle" class="sub">一个负责训练框架，一个是常用线性路径特例，一个负责把多步生成压成一步或少步一致性映射</text>

  <rect x="76" y="154" width="340" height="278" rx="22" fill="#eff6ff" stroke="#93c5fd" stroke-width="2"/>
  <text x="246" y="196" text-anchor="middle" class="h">Flow Matching</text>
  <text x="246" y="230" text-anchor="middle" class="body">通用训练框架</text>
  <g data-formula="$L=\mathbb{E}\,\|v_\theta(x(t),t)-v_{target}(x(t),t)\|^2$" transform="translate(128.964 266.000) scale(1 -1)"><path d="M2.520,11.051 L4.005,11.051 L2.130,1.345 L7.455,1.345 L7.214,0.115 L0.403,0.115 L2.520,11.051 Z M12.868,6.926 L22.257,6.926 L22.257,5.695 L12.868,5.695 L12.868,6.926 Z M12.868,3.938 L22.257,3.938 L22.257,2.693 L12.868,2.693 L12.868,3.938 Z M36.731,9.909 L36.595,9.354 L31.809,9.354 L30.775,5.426 L35.006,5.426 L34.840,4.870 L30.625,4.870 L29.500,0.670 L34.840,0.670 L34.720,0.115 L27.025,0.115 L29.650,9.909 L36.731,9.909 Z M31.256,9.354 L30.084,9.354 L27.745,0.670 L28.945,0.670 L31.256,9.354 Z M41.940,11.578 L41.940,-3.422 L40.696,-3.422 L40.696,11.578 L41.940,11.578 Z M44.920,8.318 L46.350,8.318 L47.550,1.345 L51.475,8.318 L52.905,8.318 L48.239,0.115 L46.422,0.115 L44.920,8.318 Z M57.500,1.294 L54.239,1.294 Q54.019,-0.240 54.244,-0.889 Q54.526,-1.690 55.290,-1.690 Q56.058,-1.690 56.644,-0.884 Q57.156,-0.177 57.500,1.294 Z M57.658,2.166 Q57.797,3.622 57.617,4.134 Q57.336,4.945 56.581,4.945 Q55.797,4.945 55.223,4.144 Q54.772,3.499 54.417,2.166 L57.658,2.166 Z M56.731,5.714 Q57.961,5.714 58.453,4.627 Q58.946,3.545 58.572,1.627 Q58.202,-0.285 57.284,-1.372 Q56.371,-2.464 55.141,-2.464 Q53.906,-2.464 53.418,-1.372 Q52.931,-0.285 53.300,1.627 Q53.674,3.545 54.582,4.627 Q55.495,5.714 56.731,5.714 Z M64.205,11.496 Q63.226,9.813 62.747,8.163 Q62.272,6.516 62.272,4.823 Q62.272,3.134 62.752,1.474 Q63.233,-0.185 64.205,-1.863 L63.033,-1.863 Q61.937,-0.141 61.390,1.521 Q60.844,3.183 60.844,4.823 Q60.844,6.457 61.386,8.112 Q61.929,9.769 63.033,11.496 L64.205,11.496 Z M74.410,8.318 L70.643,4.296 L72.952,0.115 L71.405,0.115 L69.671,3.368 L66.652,0.115 L65.018,0.115 L69.054,4.437 L66.910,8.318 L68.454,8.318 L70.029,5.351 L72.776,8.318 L74.410,8.318 Z M78.934,11.496 Q77.955,9.813 77.476,8.163 Q77.001,6.516 77.001,4.823 Q77.001,3.134 77.481,1.474 Q77.962,-0.185 78.934,-1.863 L77.762,-1.863 Q76.666,-0.141 76.119,1.521 Q75.573,3.183 75.573,4.823 Q75.573,6.457 76.115,8.112 Q76.658,9.769 77.762,11.496 L78.934,11.496 Z M86.479,8.318 L86.275,7.270 L83.586,7.270 L82.714,2.817 Q82.670,2.569 82.649,2.400 Q82.628,2.231 82.628,2.137 Q82.628,1.669 82.909,1.455 Q83.190,1.242 83.814,1.242 L85.175,1.242 L84.948,0.115 L83.659,0.115 Q82.459,0.115 81.868,0.584 Q81.280,1.052 81.280,2.004 Q81.280,2.173 81.301,2.374 Q81.322,2.576 81.367,2.817 L82.239,7.270 L81.095,7.270 L81.308,8.318 L82.429,8.318 L82.883,10.648 L84.231,10.648 L83.783,8.318 L86.479,8.318 Z M87.220,11.496 L88.392,11.496 Q89.489,9.769 90.035,8.112 Q90.581,6.457 90.581,4.823 Q90.581,3.183 90.035,1.521 Q89.489,-0.141 88.392,-1.863 L87.220,-1.863 Q88.193,-0.185 88.673,1.474 Q89.154,3.134 89.154,4.823 Q89.154,6.516 88.673,8.163 Q88.193,9.813 87.220,11.496 Z M93.628,1.976 L95.172,1.976 L95.172,0.715 L93.972,-1.629 L93.028,-1.629 L93.628,0.715 L93.628,1.976 Z M105.902,8.318 L105.698,7.270 L103.010,7.270 L102.138,2.817 Q102.094,2.569 102.073,2.400 Q102.052,2.231 102.052,2.137 Q102.052,1.669 102.333,1.455 Q102.614,1.242 103.237,1.242 L104.599,1.242 L104.372,0.115 L103.083,0.115 Q101.883,0.115 101.292,0.584 Q100.704,1.052 100.704,2.004 Q100.704,2.173 100.725,2.374 Q100.746,2.576 100.791,2.817 L101.662,7.270 L100.519,7.270 L100.732,8.318 L101.852,8.318 L102.307,10.648 L103.655,10.648 L103.207,8.318 L105.902,8.318 Z M106.644,11.496 L107.816,11.496 Q108.913,9.769 109.459,8.112 Q110.005,6.457 110.005,4.823 Q110.005,3.183 109.459,1.521 Q108.913,-0.141 107.816,-1.863 L106.644,-1.863 Q107.616,-0.185 108.097,1.474 Q108.577,3.134 108.577,4.823 Q108.577,6.516 108.097,8.163 Q107.616,9.813 106.644,11.496 Z M115.805,5.440 L125.194,5.440 L125.194,4.195 L115.805,4.195 L115.805,5.440 Z M130.782,8.318 L132.212,8.318 L133.412,1.345 L137.338,8.318 L138.768,8.318 L134.101,0.115 L132.285,0.115 L130.782,8.318 Z M143.023,3.396 L142.880,2.663 L140.999,2.663 L140.388,-0.454 Q140.357,-0.628 140.342,-0.746 Q140.328,-0.865 140.328,-0.930 Q140.328,-1.258 140.524,-1.408 Q140.721,-1.557 141.158,-1.557 L142.111,-1.557 L141.952,-2.346 L141.049,-2.346 Q140.209,-2.346 139.796,-2.018 Q139.384,-1.690 139.384,-1.024 Q139.384,-0.906 139.399,-0.765 Q139.414,-0.623 139.445,-0.454 L140.055,2.663 L139.255,2.663 L139.404,3.396 L140.188,3.396 L140.506,5.027 L141.450,5.027 L141.136,3.396 L143.023,3.396 Z M148.341,0.930 L147.700,-2.346 L146.756,-2.346 L146.930,-1.475 Q146.515,-1.987 145.983,-2.241 Q145.453,-2.495 144.802,-2.495 Q144.069,-2.495 143.600,-2.047 Q143.132,-1.598 143.132,-0.896 Q143.132,0.110 143.934,0.694 Q144.737,1.278 146.146,1.278 L147.458,1.278 L147.509,1.531 Q147.521,1.572 147.526,1.619 Q147.531,1.669 147.531,1.770 Q147.531,2.228 147.158,2.481 Q146.787,2.735 146.115,2.735 Q145.654,2.735 145.168,2.617 Q144.684,2.499 144.172,2.262 L144.336,3.135 Q144.869,3.335 145.380,3.434 Q145.890,3.534 146.366,3.534 Q147.381,3.534 147.911,3.093 Q148.443,2.653 148.443,1.811 Q148.443,1.642 148.416,1.414 Q148.392,1.186 148.341,0.930 Z M147.321,0.540 L146.377,0.540 Q145.217,0.540 144.661,0.230 Q144.105,-0.080 144.105,-0.732 Q144.105,-1.183 144.389,-1.439 Q144.674,-1.695 145.176,-1.695 Q145.946,-1.695 146.520,-1.144 Q147.094,-0.592 147.280,0.330 L147.321,0.540 Z M153.816,2.525 Q153.673,2.602 153.487,2.643 Q153.304,2.684 153.094,2.684 Q152.339,2.684 151.775,2.111 Q151.212,1.541 151.026,0.581 L150.447,-2.346 L149.504,-2.346 L150.626,3.396 L151.570,3.396 L151.391,2.504 Q151.765,3.001 152.285,3.266 Q152.807,3.534 153.396,3.534 Q153.550,3.534 153.697,3.516 Q153.847,3.499 153.996,3.458 L153.816,2.525 Z M159.712,3.396 L158.733,-1.634 Q158.451,-3.094 157.653,-3.811 Q156.856,-4.530 155.507,-4.530 Q155.010,-4.530 154.584,-4.456 Q154.159,-4.382 153.790,-4.228 L153.965,-3.311 Q154.313,-3.536 154.702,-3.642 Q155.092,-3.750 155.534,-3.750 Q156.431,-3.750 157.007,-3.260 Q157.584,-2.771 157.768,-1.854 L157.850,-1.422 Q157.457,-1.874 156.933,-2.110 Q156.410,-2.346 155.804,-2.346 Q154.933,-2.346 154.433,-1.770 Q153.934,-1.193 153.934,-0.182 Q153.934,0.612 154.236,1.373 Q154.539,2.134 155.087,2.725 Q155.452,3.114 155.936,3.324 Q156.420,3.534 156.948,3.534 Q157.527,3.534 157.957,3.265 Q158.388,2.996 158.600,2.504 L158.764,3.396 L159.712,3.396 Z M158.292,1.290 Q158.292,1.987 157.963,2.366 Q157.635,2.745 157.030,2.745 Q156.656,2.745 156.318,2.595 Q155.980,2.448 155.739,2.180 Q155.348,1.741 155.130,1.144 Q154.914,0.546 154.914,-0.090 Q154.914,-0.797 155.243,-1.178 Q155.575,-1.557 156.195,-1.557 Q157.092,-1.557 157.691,-0.745 Q158.292,0.069 158.292,1.290 Z M165.167,1.039 Q165.183,1.121 165.190,1.207 Q165.198,1.294 165.198,1.381 Q165.198,2.006 164.830,2.371 Q164.464,2.735 163.834,2.735 Q163.132,2.735 162.592,2.290 Q162.054,1.847 161.779,1.032 L165.167,1.039 Z M165.987,0.300 L161.598,0.300 Q161.567,0.105 161.557,-0.008 Q161.547,-0.121 161.547,-0.203 Q161.547,-0.915 161.985,-1.306 Q162.424,-1.695 163.224,-1.695 Q163.839,-1.695 164.387,-1.557 Q164.937,-1.417 165.408,-1.152 L165.229,-2.085 Q164.720,-2.290 164.179,-2.392 Q163.639,-2.495 163.080,-2.495 Q161.885,-2.495 161.242,-1.924 Q160.599,-1.352 160.599,-0.300 Q160.599,0.597 160.919,1.368 Q161.239,2.139 161.861,2.745 Q162.259,3.124 162.811,3.329 Q163.362,3.534 163.982,3.534 Q164.957,3.534 165.532,2.950 Q166.110,2.366 166.110,1.381 Q166.110,1.145 166.079,0.876 Q166.049,0.607 165.987,0.300 Z M171.016,3.396 L170.874,2.663 L168.992,2.663 L168.381,-0.454 Q168.350,-0.628 168.335,-0.746 Q168.321,-0.865 168.321,-0.930 Q168.321,-1.258 168.518,-1.408 Q168.714,-1.557 169.151,-1.557 L170.104,-1.557 L169.945,-2.346 L169.043,-2.346 Q168.203,-2.346 167.789,-2.018 Q167.377,-1.690 167.377,-1.024 Q167.377,-0.906 167.392,-0.765 Q167.407,-0.623 167.438,-0.454 L168.048,2.663 L167.248,2.663 L167.397,3.396 L168.181,3.396 L168.500,5.027 L169.443,5.027 L169.130,3.396 L171.016,3.396 Z M175.754,11.496 Q174.774,9.813 174.296,8.163 Q173.820,6.516 173.820,4.823 Q173.820,3.134 174.301,1.474 Q174.781,-0.185 175.754,-1.863 L174.582,-1.863 Q173.485,-0.141 172.939,1.521 Q172.393,3.183 172.393,4.823 Q172.393,6.457 172.934,8.112 Q173.478,9.769 174.582,11.496 L175.754,11.496 Z M185.958,8.318 L182.192,4.296 L184.500,0.115 L182.954,0.115 L181.219,3.368 L178.200,0.115 L176.567,0.115 L180.603,4.437 L178.458,8.318 L180.003,8.318 L181.578,5.351 L184.325,8.318 L185.958,8.318 Z M190.483,11.496 Q189.503,9.813 189.025,8.163 Q188.549,6.516 188.549,4.823 Q188.549,3.134 189.030,1.474 Q189.510,-0.185 190.483,-1.863 L189.311,-1.863 Q188.214,-0.141 187.668,1.521 Q187.122,3.183 187.122,4.823 Q187.122,6.457 187.663,8.112 Q188.207,9.769 189.311,11.496 L190.483,11.496 Z M198.027,8.318 L197.823,7.270 L195.135,7.270 L194.263,2.817 Q194.218,2.569 194.197,2.400 Q194.176,2.231 194.176,2.137 Q194.176,1.669 194.458,1.455 Q194.739,1.242 195.362,1.242 L196.724,1.242 L196.497,0.115 L195.208,0.115 Q194.008,0.115 193.417,0.584 Q192.829,1.052 192.829,2.004 Q192.829,2.173 192.850,2.374 Q192.871,2.576 192.915,2.817 L193.787,7.270 L192.643,7.270 L192.857,8.318 L193.977,8.318 L194.432,10.648 L195.779,10.648 L195.332,8.318 L198.027,8.318 Z M198.769,11.496 L199.940,11.496 Q201.037,9.769 201.583,8.112 Q202.130,6.457 202.130,4.823 Q202.130,3.183 201.583,1.521 Q201.037,-0.141 199.940,-1.863 L198.769,-1.863 Q199.741,-0.185 200.222,1.474 Q200.702,3.134 200.702,4.823 Q200.702,6.516 200.222,8.163 Q199.741,9.813 198.769,11.496 Z M205.176,1.976 L206.721,1.976 L206.721,0.715 L205.521,-1.629 L204.576,-1.629 L205.176,0.715 L205.176,1.976 Z M217.451,8.318 L217.247,7.270 L214.559,7.270 L213.687,2.817 Q213.642,2.569 213.621,2.400 Q213.600,2.231 213.600,2.137 Q213.600,1.669 213.881,1.455 Q214.163,1.242 214.786,1.242 L216.148,1.242 L215.920,0.115 L214.631,0.115 Q213.431,0.115 212.841,0.584 Q212.252,1.052 212.252,2.004 Q212.252,2.173 212.274,2.374 Q212.295,2.576 212.339,2.817 L213.211,7.270 L212.067,7.270 L212.281,8.318 L213.401,8.318 L213.856,10.648 L215.203,10.648 L214.756,8.318 L217.451,8.318 Z M218.192,11.496 L219.364,11.496 Q220.461,9.769 221.007,8.112 Q221.553,6.457 221.553,4.823 Q221.553,3.183 221.007,1.521 Q220.461,-0.141 219.364,-1.863 L218.192,-1.863 Q219.165,-0.185 219.646,1.474 Q220.126,3.134 220.126,4.823 Q220.126,6.516 219.646,8.163 Q219.165,9.813 218.192,11.496 Z M225.992,11.578 L225.992,-3.422 L224.748,-3.422 L224.748,11.578 L225.992,11.578 Z M230.054,6.728 L233.668,6.728 L233.668,5.857 L228.809,5.857 L228.809,6.728 Q229.398,7.339 230.415,8.366 Q231.434,9.394 231.695,9.693 Q232.192,10.251 232.389,10.638 Q232.587,11.025 232.587,11.399 Q232.587,12.009 232.159,12.393 Q231.731,12.779 231.043,12.779 Q230.556,12.779 230.015,12.610 Q229.475,12.441 228.860,12.096 L228.860,13.143 Q229.485,13.394 230.028,13.522 Q230.573,13.650 231.024,13.650 Q232.213,13.650 232.920,13.054 Q233.627,12.461 233.627,11.466 Q233.627,10.994 233.450,10.571 Q233.275,10.149 232.807,9.575 Q232.679,9.425 231.992,8.715 Q231.306,8.005 230.054,6.728 Z" fill="#0f172a"/></g><text x="246" y="310" text-anchor="middle" class="small">可以自由选择路径、速度参数化、条件方式</text>
  <text x="246" y="338" text-anchor="middle" class="small">重点：直接匹配连续轨迹上的速度场</text>
  <text x="246" y="382" text-anchor="middle" class="body">角色：定义“怎么训练生成流”</text>

  <rect x="470" y="154" width="340" height="278" rx="22" fill="#ecfdf5" stroke="#86efac" stroke-width="2"/>
  <text x="640" y="196" text-anchor="middle" class="h">Rectified Flow</text>
  <text x="640" y="230" text-anchor="middle" class="body">常用线性路径 / 终点预测形式</text>
  <g data-formula="$x_t=(1-t)x_0+t x_1$" transform="translate(569.696 266.000) scale(1 -1)"><path d="M9.603,8.770 L5.585,4.480 L8.047,0.020 L6.397,0.020 L4.548,3.490 L1.328,0.020 L-0.415,0.020 L3.890,4.630 L1.603,8.770 L3.250,8.770 L4.930,5.605 L7.860,8.770 L9.603,8.770 Z M14.204,3.520 L14.052,2.738 L12.045,2.738 L11.394,-0.587 Q11.361,-0.773 11.345,-0.899 Q11.329,-1.025 11.329,-1.095 Q11.329,-1.445 11.539,-1.604 Q11.749,-1.763 12.215,-1.763 L13.231,-1.763 L13.062,-2.605 L12.099,-2.605 Q11.203,-2.605 10.762,-2.255 Q10.323,-1.905 10.323,-1.195 Q10.323,-1.069 10.338,-0.918 Q10.354,-0.768 10.388,-0.587 L11.038,2.738 L10.184,2.738 L10.344,3.520 L11.180,3.520 L11.520,5.259 L12.526,5.259 L12.192,3.520 L14.204,3.520 Z M19.110,7.285 L29.125,7.285 L29.125,5.973 L19.110,5.973 L19.110,7.285 Z M19.110,4.098 L29.125,4.098 L29.125,2.770 L19.110,2.770 L19.110,4.098 Z M38.898,12.160 Q37.853,10.365 37.343,8.605 Q36.836,6.848 36.836,5.043 Q36.836,3.240 37.348,1.470 Q37.861,-0.300 38.898,-2.090 L37.648,-2.090 Q36.478,-0.253 35.896,1.520 Q35.313,3.292 35.313,5.043 Q35.313,6.785 35.891,8.550 Q36.471,10.318 37.648,12.160 L38.898,12.160 Z M42.165,1.347 L44.743,1.347 L44.743,10.248 L41.938,9.685 L41.938,11.123 L44.728,11.685 L46.305,11.685 L46.305,1.347 L48.883,1.347 L48.883,0.020 L42.165,0.020 L42.165,1.347 Z M55.172,5.700 L65.187,5.700 L65.187,4.373 L55.172,4.373 L55.172,5.700 Z M76.766,8.770 L76.548,7.652 L73.681,7.652 L72.751,2.902 Q72.703,2.638 72.681,2.458 Q72.658,2.277 72.658,2.178 Q72.658,1.677 72.958,1.450 Q73.258,1.222 73.923,1.222 L75.376,1.222 L75.133,0.020 L73.758,0.020 Q72.478,0.020 71.848,0.520 Q71.221,1.020 71.221,2.035 Q71.221,2.215 71.243,2.430 Q71.266,2.645 71.313,2.902 L72.243,7.652 L71.023,7.652 L71.251,8.770 L72.446,8.770 L72.931,11.255 L74.368,11.255 L73.891,8.770 L76.766,8.770 Z M77.557,12.160 L78.807,12.160 Q79.977,10.318 80.559,8.550 Q81.142,6.785 81.142,5.043 Q81.142,3.292 80.559,1.520 Q79.977,-0.253 78.807,-2.090 L77.557,-2.090 Q78.594,-0.300 79.107,1.470 Q79.619,3.240 79.619,5.043 Q79.619,6.848 79.107,8.605 Q78.594,10.365 77.557,12.160 Z M92.119,8.770 L88.101,4.480 L90.564,0.020 L88.914,0.020 L87.064,3.490 L83.844,0.020 L82.101,0.020 L86.406,4.630 L84.119,8.770 L85.766,8.770 L87.446,5.605 L90.376,8.770 L92.119,8.770 Z M95.545,4.833 Q94.692,4.833 94.262,3.993 Q93.833,3.154 93.833,1.469 Q93.833,-0.209 94.262,-1.049 Q94.692,-1.889 95.545,-1.889 Q96.404,-1.889 96.833,-1.049 Q97.263,-0.209 97.263,1.469 Q97.263,3.154 96.833,3.993 Q96.404,4.833 95.545,4.833 Z M95.545,5.708 Q96.918,5.708 97.643,4.621 Q98.367,3.536 98.367,1.469 Q98.367,-0.593 97.643,-1.679 Q96.918,-2.764 95.545,-2.764 Q94.173,-2.764 93.448,-1.679 Q92.724,-0.593 92.724,1.469 Q92.724,3.536 93.448,4.621 Q94.173,5.708 95.545,5.708 Z M110.026,10.053 L110.026,5.700 L114.376,5.700 L114.376,4.373 L110.026,4.373 L110.026,0.020 L108.713,0.020 L108.713,4.373 L104.361,4.373 L104.361,5.700 L108.713,5.700 L108.713,10.053 L110.026,10.053 Z M125.954,8.770 L125.737,7.652 L122.869,7.652 L121.939,2.902 Q121.892,2.638 121.869,2.458 Q121.847,2.277 121.847,2.178 Q121.847,1.677 122.147,1.450 Q122.447,1.222 123.112,1.222 L124.564,1.222 L124.322,0.020 L122.947,0.020 Q121.667,0.020 121.037,0.520 Q120.409,1.020 120.409,2.035 Q120.409,2.215 120.432,2.430 Q120.454,2.645 120.502,2.902 L121.432,7.652 L120.212,7.652 L120.439,8.770 L121.634,8.770 L122.119,11.255 L123.557,11.255 L123.079,8.770 L125.954,8.770 Z M135.065,8.770 L131.048,4.480 L133.510,0.020 L131.860,0.020 L130.010,3.490 L126.790,0.020 L125.047,0.020 L129.352,4.630 L127.065,8.770 L128.713,8.770 L130.393,5.605 L133.322,8.770 L135.065,8.770 Z M136.321,-1.676 L138.125,-1.676 L138.125,4.554 L136.161,4.160 L136.161,5.167 L138.115,5.560 L139.219,5.560 L139.219,-1.676 L141.023,-1.676 L141.023,-2.605 L136.321,-2.605 L136.321,-1.676 Z" fill="#0f172a"/></g><g data-formula="$v_\theta(x,t)=\frac{f_\theta(x,t)-x}{1-t}$" transform="translate(575.503 298.000) scale(1 -1)"><path d="M1.147,8.907 L2.672,8.907 L3.953,1.469 L8.140,8.907 L9.665,8.907 L4.688,0.157 L2.750,0.157 L1.147,8.907 Z M14.567,1.415 L11.088,1.415 Q10.853,-0.221 11.093,-0.914 Q11.394,-1.768 12.209,-1.768 Q13.028,-1.768 13.653,-0.909 Q14.199,-0.155 14.567,1.415 Z M14.734,2.344 Q14.883,3.898 14.691,4.444 Q14.392,5.309 13.587,5.309 Q12.750,5.309 12.138,4.455 Q11.656,3.767 11.278,2.344 L14.734,2.344 Z M13.746,6.129 Q15.058,6.129 15.583,4.969 Q16.108,3.816 15.709,1.770 Q15.316,-0.270 14.335,-1.429 Q13.363,-2.594 12.050,-2.594 Q10.732,-2.594 10.213,-1.429 Q9.693,-0.270 10.086,1.770 Q10.486,3.816 11.453,4.969 Q12.428,6.129 13.746,6.129 Z M21.719,12.297 Q20.674,10.502 20.164,8.742 Q19.656,6.984 19.656,5.179 Q19.656,3.377 20.169,1.607 Q20.681,-0.163 21.719,-1.953 L20.469,-1.953 Q19.299,-0.116 18.716,1.657 Q18.134,3.429 18.134,5.179 Q18.134,6.922 18.711,8.687 Q19.291,10.454 20.469,12.297 L21.719,12.297 Z M32.603,8.907 L28.586,4.617 L31.048,0.157 L29.398,0.157 L27.548,3.627 L24.328,0.157 L22.586,0.157 L26.891,4.767 L24.603,8.907 L26.251,8.907 L27.931,5.742 L30.861,8.907 L32.603,8.907 Z M34.345,2.142 L35.992,2.142 L35.992,0.797 L34.712,-1.703 L33.705,-1.703 L34.345,0.797 L34.345,2.142 Z M47.438,8.907 L47.220,7.789 L44.353,7.789 L43.423,3.039 Q43.375,2.774 43.353,2.594 Q43.330,2.414 43.330,2.314 Q43.330,1.814 43.630,1.587 Q43.930,1.359 44.595,1.359 L46.048,1.359 L45.805,0.157 L44.430,0.157 Q43.150,0.157 42.520,0.657 Q41.893,1.157 41.893,2.172 Q41.893,2.352 41.915,2.567 Q41.938,2.782 41.985,3.039 L42.915,7.789 L41.695,7.789 L41.923,8.907 L43.118,8.907 L43.603,11.392 L45.040,11.392 L44.563,8.907 L47.438,8.907 Z M48.229,12.297 L49.479,12.297 Q50.649,10.454 51.231,8.687 Q51.814,6.922 51.814,5.179 Q51.814,3.429 51.231,1.657 Q50.649,-0.116 49.479,-1.953 L48.229,-1.953 Q49.266,-0.163 49.779,1.607 Q50.291,3.377 50.291,5.179 Q50.291,6.984 49.779,8.742 Q49.266,10.502 48.229,12.297 Z M58.000,7.422 L68.015,7.422 L68.015,6.109 L58.000,6.109 L58.000,7.422 Z M58.000,4.234 L68.015,4.234 L68.015,2.907 L58.000,2.907 L58.000,4.234 Z M78.182,17.600 L78.025,16.762 L77.062,16.762 Q76.514,16.762 76.266,16.547 Q76.017,16.331 75.897,15.755 L75.788,15.215 L77.445,15.215 L77.297,14.433 L75.639,14.433 L74.602,9.090 L73.588,9.090 L74.633,14.433 L73.671,14.433 L73.814,15.215 L74.777,15.215 L74.857,15.642 Q75.065,16.725 75.587,17.163 Q76.110,17.600 77.232,17.600 L78.182,17.600 Z M80.340,9.971 L77.905,9.971 Q77.741,8.825 77.909,8.340 Q78.119,7.742 78.690,7.742 Q79.264,7.742 79.701,8.344 Q80.083,8.872 80.340,9.971 Z M80.458,10.621 Q80.562,11.709 80.427,12.091 Q80.218,12.696 79.654,12.696 Q79.069,12.696 78.640,12.098 Q78.303,11.617 78.039,10.621 L80.458,10.621 Z M79.766,13.271 Q80.685,13.271 81.052,12.458 Q81.420,11.651 81.140,10.219 Q80.865,8.791 80.179,7.980 Q79.498,7.164 78.579,7.164 Q77.656,7.164 77.293,7.980 Q76.929,8.791 77.204,10.219 Q77.484,11.651 78.161,12.458 Q78.843,13.271 79.766,13.271 Z M85.347,17.588 Q84.615,16.331 84.258,15.099 Q83.903,13.869 83.903,12.605 Q83.903,11.344 84.262,10.105 Q84.621,8.866 85.347,7.613 L84.472,7.613 Q83.653,8.899 83.245,10.140 Q82.837,11.380 82.837,12.605 Q82.837,13.825 83.242,15.061 Q83.648,16.298 84.472,17.588 L85.347,17.588 Z M92.966,15.215 L90.154,12.212 L91.878,9.090 L90.723,9.090 L89.428,11.519 L87.174,9.090 L85.954,9.090 L88.967,12.317 L87.366,15.215 L88.519,15.215 L89.695,12.999 L91.746,15.215 L92.966,15.215 Z M94.185,10.479 L95.338,10.479 L95.338,9.538 L94.442,7.788 L93.737,7.788 L94.185,9.538 L94.185,10.479 Z M103.350,15.215 L103.198,14.433 L101.191,14.433 L100.540,11.107 Q100.506,10.922 100.491,10.796 Q100.475,10.670 100.475,10.600 Q100.475,10.250 100.685,10.091 Q100.895,9.931 101.360,9.931 L102.377,9.931 L102.207,9.090 L101.245,9.090 Q100.349,9.090 99.908,9.440 Q99.469,9.790 99.469,10.500 Q99.469,10.626 99.484,10.777 Q99.500,10.927 99.533,11.107 L100.184,14.433 L99.330,14.433 L99.490,15.215 L100.326,15.215 L100.666,16.954 L101.672,16.954 L101.338,15.215 L103.350,15.215 Z M103.904,17.588 L104.779,17.588 Q105.598,16.298 106.006,15.061 Q106.413,13.825 106.413,12.605 Q106.413,11.380 106.006,10.140 Q105.598,8.899 104.779,7.613 L103.904,7.613 Q104.630,8.866 104.989,10.105 Q105.348,11.344 105.348,12.605 Q105.348,13.869 104.989,15.099 Q104.630,16.331 103.904,17.588 Z M110.744,13.066 L117.755,13.066 L117.755,12.137 L110.744,12.137 L110.744,13.066 Z M127.846,15.215 L125.033,12.212 L126.757,9.090 L125.602,9.090 L124.307,11.519 L122.053,9.090 L120.833,9.090 L123.847,12.317 L122.246,15.215 L123.399,15.215 L124.575,12.999 L126.626,15.215 L127.846,15.215 Z M89.098,-5.072 L90.903,-5.072 L90.903,1.158 L88.939,0.764 L88.939,1.770 L90.892,2.164 L91.996,2.164 L91.996,-5.072 L93.801,-5.072 L93.801,-6.001 L89.098,-6.001 L89.098,-5.072 Z M98.203,-2.025 L105.214,-2.025 L105.214,-2.955 L98.203,-2.955 L98.203,-2.025 Z M113.319,0.124 L113.166,-0.659 L111.159,-0.659 L110.508,-3.984 Q110.475,-4.169 110.459,-4.295 Q110.443,-4.421 110.443,-4.491 Q110.443,-4.841 110.653,-5.000 Q110.863,-5.160 111.329,-5.160 L112.346,-5.160 L112.176,-6.001 L111.213,-6.001 Q110.317,-6.001 109.876,-5.651 Q109.437,-5.301 109.437,-4.591 Q109.437,-4.465 109.453,-4.314 Q109.469,-4.164 109.502,-3.984 L110.153,-0.659 L109.299,-0.659 L109.458,0.124 L110.295,0.124 L110.634,1.863 L111.640,1.863 L111.306,0.124 L113.319,0.124 Z M72.829,3.164 L72.829,4.164 L127.752,4.164 L127.752,3.164 L72.829,3.164 Z" fill="#0f172a"/></g><text x="640" y="340" text-anchor="middle" class="small">希望轨迹更直、少步积分误差更小</text>
  <text x="640" y="382" text-anchor="middle" class="body">角色：规定“走哪条路径、用什么目标回归”</text>

  <rect x="864" y="154" width="340" height="278" rx="22" fill="#fff7ed" stroke="#fdba74" stroke-width="2"/>
  <text x="1034" y="196" text-anchor="middle" class="h">Consistency Model</text>
  <text x="1034" y="230" text-anchor="middle" class="body">一致性映射 / 蒸馏思路</text>
  <g data-formula="$f_\theta(x_{t_1},t_1)\approx f_\theta(x_{t_2},t_2)$" transform="translate(962.080 266.000) scale(1 -1)"><path d="M7.170,11.400 L6.959,10.277 L5.670,10.277 Q4.936,10.277 4.603,9.989 Q4.270,9.701 4.109,8.930 L3.963,8.205 L6.183,8.205 L5.984,7.158 L3.764,7.158 L2.374,0.002 L1.017,0.002 L2.416,7.158 L1.127,7.158 L1.320,8.205 L2.609,8.205 L2.716,8.777 Q2.995,10.228 3.694,10.814 Q4.395,11.400 5.897,11.400 L7.170,11.400 Z M10.060,1.182 L6.798,1.182 Q6.578,-0.352 6.803,-1.002 Q7.085,-1.802 7.850,-1.802 Q8.618,-1.802 9.203,-0.997 Q9.715,-0.290 10.060,1.182 Z M10.217,2.053 Q10.357,3.510 10.176,4.022 Q9.896,4.832 9.141,4.832 Q8.357,4.832 7.783,4.032 Q7.332,3.387 6.977,2.053 L10.217,2.053 Z M9.290,5.602 Q10.521,5.602 11.013,4.514 Q11.505,3.433 11.131,1.515 Q10.762,-0.398 9.843,-1.484 Q8.931,-2.577 7.701,-2.577 Q6.465,-2.577 5.978,-1.484 Q5.491,-0.398 5.860,1.515 Q6.234,3.433 7.141,4.514 Q8.055,5.602 9.290,5.602 Z M16.765,11.384 Q15.785,9.701 15.307,8.051 Q14.831,6.403 14.831,4.711 Q14.831,3.021 15.312,1.362 Q15.792,-0.298 16.765,-1.976 L15.593,-1.976 Q14.496,-0.253 13.950,1.409 Q13.404,3.070 13.404,4.711 Q13.404,6.345 13.945,7.999 Q14.489,9.656 15.593,11.384 L16.765,11.384 Z M26.969,8.205 L23.203,4.184 L25.512,0.002 L23.965,0.002 L22.230,3.255 L19.212,0.002 L17.578,0.002 L21.614,4.324 L19.469,8.205 L21.014,8.205 L22.589,5.238 L25.336,8.205 L26.969,8.205 Z M31.284,3.284 L31.141,2.550 L29.259,2.550 L28.649,-0.567 Q28.618,-0.741 28.603,-0.859 Q28.588,-0.977 28.588,-1.043 Q28.588,-1.371 28.785,-1.520 Q28.982,-1.669 29.418,-1.669 L30.371,-1.669 L30.212,-2.459 L29.310,-2.459 Q28.470,-2.459 28.056,-2.130 Q27.645,-1.802 27.645,-1.136 Q27.645,-1.018 27.659,-0.877 Q27.674,-0.736 27.705,-0.567 L28.316,2.550 L27.515,2.550 L27.664,3.284 L28.449,3.284 L28.767,4.914 L29.710,4.914 L29.397,3.284 L31.284,3.284 Z M31.873,-3.571 L33.057,-3.571 L33.057,0.517 L31.768,0.259 L31.768,0.919 L33.050,1.177 L33.775,1.177 L33.775,-3.571 L34.959,-3.571 L34.959,-4.181 L31.873,-4.181 L31.873,-3.571 Z M38.092,1.863 L39.637,1.863 L39.637,0.602 L38.437,-1.741 L37.492,-1.741 L38.092,0.602 L38.092,1.863 Z M50.367,8.205 L50.163,7.158 L47.475,7.158 L46.603,2.705 Q46.559,2.456 46.537,2.288 Q46.516,2.119 46.516,2.025 Q46.516,1.556 46.798,1.343 Q47.079,1.130 47.702,1.130 L49.064,1.130 L48.837,0.002 L47.548,0.002 Q46.348,0.002 45.757,0.471 Q45.169,0.940 45.169,1.891 Q45.169,2.060 45.190,2.262 Q45.211,2.463 45.255,2.705 L46.127,7.158 L44.984,7.158 L45.197,8.205 L46.317,8.205 L46.772,10.535 L48.119,10.535 L47.672,8.205 L50.367,8.205 Z M51.209,-1.587 L52.900,-1.587 L52.900,4.253 L51.060,3.884 L51.060,4.827 L52.891,5.197 L53.926,5.197 L53.926,-1.587 L55.617,-1.587 L55.617,-2.459 L51.209,-2.459 L51.209,-1.587 Z M58.199,11.384 L59.371,11.384 Q60.468,9.656 61.014,7.999 Q61.560,6.345 61.560,4.711 Q61.560,3.070 61.014,1.409 Q60.468,-0.253 59.371,-1.976 L58.199,-1.976 Q59.172,-0.298 59.652,1.362 Q60.133,3.021 60.133,4.711 Q60.133,6.403 59.652,8.051 Q59.172,9.701 58.199,11.384 Z M76.749,4.566 L76.749,3.255 Q75.981,2.684 75.324,2.430 Q74.670,2.177 73.960,2.177 Q73.154,2.177 72.085,2.611 Q72.013,2.639 71.961,2.660 Q71.917,2.677 71.806,2.719 Q70.672,3.166 69.983,3.166 Q69.338,3.166 68.708,2.887 Q68.078,2.611 67.360,1.995 L67.360,3.305 Q68.129,3.877 68.785,4.130 Q69.442,4.383 70.152,4.383 Q70.958,4.383 72.034,3.949 Q72.113,3.914 72.151,3.900 Q72.195,3.884 72.306,3.841 Q73.440,3.394 74.129,3.394 Q74.757,3.394 75.376,3.668 Q75.997,3.942 76.749,4.566 Z M76.749,7.416 L76.749,6.110 Q75.981,5.531 75.324,5.278 Q74.670,5.027 73.960,5.027 Q73.154,5.027 72.085,5.459 Q72.013,5.489 71.961,5.510 Q71.917,5.524 71.806,5.569 Q70.672,6.016 69.983,6.016 Q69.338,6.016 68.708,5.737 Q68.078,5.459 67.360,4.852 L67.360,6.155 Q68.129,6.727 68.785,6.977 Q69.442,7.230 70.152,7.230 Q70.958,7.230 72.034,6.799 Q72.106,6.771 72.144,6.755 Q72.195,6.734 72.306,6.689 Q73.440,6.244 74.129,6.244 Q74.757,6.244 75.376,6.518 Q75.997,6.792 76.749,7.416 Z M88.432,11.400 L88.221,10.277 L86.932,10.277 Q86.198,10.277 85.865,9.989 Q85.532,9.701 85.371,8.930 L85.225,8.205 L87.445,8.205 L87.246,7.158 L85.026,7.158 L83.636,0.002 L82.279,0.002 L83.678,7.158 L82.389,7.158 L82.582,8.205 L83.871,8.205 L83.978,8.777 Q84.257,10.228 84.956,10.814 Q85.657,11.400 87.159,11.400 L88.432,11.400 Z M91.322,1.182 L88.060,1.182 Q87.840,-0.352 88.065,-1.002 Q88.347,-1.802 89.112,-1.802 Q89.880,-1.802 90.465,-0.997 Q90.977,-0.290 91.322,1.182 Z M91.479,2.053 Q91.619,3.510 91.438,4.022 Q91.158,4.832 90.403,4.832 Q89.619,4.832 89.045,4.032 Q88.594,3.387 88.239,2.053 L91.479,2.053 Z M90.552,5.602 Q91.783,5.602 92.275,4.514 Q92.767,3.433 92.393,1.515 Q92.024,-0.398 91.105,-1.484 Q90.193,-2.577 88.963,-2.577 Q87.727,-2.577 87.240,-1.484 Q86.753,-0.398 87.122,1.515 Q87.496,3.433 88.403,4.514 Q89.317,5.602 90.552,5.602 Z M98.027,11.384 Q97.047,9.701 96.569,8.051 Q96.093,6.403 96.093,4.711 Q96.093,3.021 96.574,1.362 Q97.054,-0.298 98.027,-1.976 L96.855,-1.976 Q95.758,-0.253 95.212,1.409 Q94.666,3.070 94.666,4.711 Q94.666,6.345 95.207,7.999 Q95.751,9.656 96.855,11.384 L98.027,11.384 Z M108.231,8.205 L104.465,4.184 L106.774,0.002 L105.227,0.002 L103.492,3.255 L100.474,0.002 L98.840,0.002 L102.876,4.324 L100.731,8.205 L102.276,8.205 L103.851,5.238 L106.598,8.205 L108.231,8.205 Z M112.546,3.284 L112.403,2.550 L110.521,2.550 L109.911,-0.567 Q109.879,-0.741 109.865,-0.859 Q109.850,-0.977 109.850,-1.043 Q109.850,-1.371 110.047,-1.520 Q110.244,-1.669 110.680,-1.669 L111.633,-1.669 L111.474,-2.459 L110.572,-2.459 Q109.732,-2.459 109.318,-2.130 Q108.907,-1.802 108.907,-1.136 Q108.907,-1.018 108.921,-0.877 Q108.936,-0.736 108.967,-0.567 L109.578,2.550 L108.777,2.550 L108.926,3.284 L109.711,3.284 L110.029,4.914 L110.972,4.914 L110.659,3.284 L112.546,3.284 Z M113.633,-3.571 L116.163,-3.571 L116.163,-4.181 L112.762,-4.181 L112.762,-3.571 Q113.174,-3.144 113.886,-2.425 Q114.599,-1.705 114.782,-1.496 Q115.130,-1.106 115.267,-0.835 Q115.406,-0.564 115.406,-0.302 Q115.406,0.125 115.107,0.394 Q114.807,0.664 114.326,0.664 Q113.985,0.664 113.606,0.546 Q113.228,0.427 112.797,0.186 L112.797,0.919 Q113.235,1.095 113.615,1.184 Q113.996,1.274 114.312,1.274 Q115.145,1.274 115.640,0.857 Q116.135,0.441 116.135,-0.255 Q116.135,-0.585 116.010,-0.882 Q115.888,-1.177 115.560,-1.579 Q115.471,-1.683 114.990,-2.181 Q114.509,-2.678 113.633,-3.571 Z M119.354,1.863 L120.899,1.863 L120.899,0.602 L119.699,-1.741 L118.754,-1.741 L119.354,0.602 L119.354,1.863 Z M131.629,8.205 L131.425,7.158 L128.737,7.158 L127.865,2.705 Q127.821,2.456 127.799,2.288 Q127.778,2.119 127.778,2.025 Q127.778,1.556 128.060,1.343 Q128.341,1.130 128.964,1.130 L130.326,1.130 L130.099,0.002 L128.810,0.002 Q127.610,0.002 127.019,0.471 Q126.431,0.940 126.431,1.891 Q126.431,2.060 126.452,2.262 Q126.473,2.463 126.517,2.705 L127.389,7.158 L126.246,7.158 L126.459,8.205 L127.579,8.205 L128.034,10.535 L129.381,10.535 L128.934,8.205 L131.629,8.205 Z M133.183,-1.587 L136.797,-1.587 L136.797,-2.459 L131.938,-2.459 L131.938,-1.587 Q132.527,-0.977 133.544,0.050 Q134.563,1.079 134.824,1.377 Q135.321,1.935 135.518,2.322 Q135.716,2.709 135.716,3.083 Q135.716,3.694 135.288,4.078 Q134.860,4.463 134.172,4.463 Q133.685,4.463 133.144,4.294 Q132.604,4.125 131.989,3.781 L131.989,4.827 Q132.614,5.078 133.157,5.206 Q133.701,5.334 134.153,5.334 Q135.342,5.334 136.049,4.739 Q136.756,4.145 136.756,3.151 Q136.756,2.678 136.579,2.255 Q136.403,1.833 135.936,1.259 Q135.808,1.110 135.121,0.399 Q134.435,-0.311 133.183,-1.587 Z M139.461,11.384 L140.633,11.384 Q141.730,9.656 142.276,7.999 Q142.822,6.345 142.822,4.711 Q142.822,3.070 142.276,1.409 Q141.730,-0.253 140.633,-1.976 L139.461,-1.976 Q140.434,-0.298 140.914,1.362 Q141.395,3.021 141.395,4.711 Q141.395,6.403 140.914,8.051 Q140.434,9.701 139.461,11.384 Z" fill="#0f172a"/></g><text x="1034" y="310" text-anchor="middle" class="small">同一轨迹上的不同点映射到同一终点</text>
  <text x="1034" y="338" text-anchor="middle" class="small">适合 1 步或极少步采样</text>
  <text x="1034" y="382" text-anchor="middle" class="body">角色：优化“如何更快采样”</text>

  <path d="M 416 292 L 470 292" fill="none" stroke="#2563eb" stroke-width="4"/>
  <polygon points="462,286 470,292 462,298" fill="#2563eb"/>
  <text x="443" y="276" text-anchor="middle" class="small">线性路径特例</text>

  <path d="M 810 292 L 864 292" fill="none" stroke="#f59e0b" stroke-width="4"/>
  <polygon points="856,286 864,292 856,298" fill="#f59e0b"/>
  <text x="837" y="276" text-anchor="middle" class="small">可蒸馏 / 可借鉴</text>

  <rect x="96" y="488" width="1088" height="178" rx="22" fill="#0f172a"/>
  <text x="640" y="530" text-anchor="middle" style="font:700 23px 'PingFang SC','Microsoft YaHei','Noto Sans CJK SC',Arial,sans-serif; fill:#ffffff;">一句话记忆</text>
  <text x="640" y="570" text-anchor="middle" style="font:500 18px 'PingFang SC','Microsoft YaHei','Noto Sans CJK SC',Arial,sans-serif; fill:#cbd5e1;">Flow Matching 负责定义速度匹配训练框架，Rectified Flow 是其中最常见的线性路径版本，Consistency Model 则进一步把多步流压缩成一步或少步映射。</text>
  <text x="640" y="610" text-anchor="middle" style="font:500 18px 'PingFang SC','Microsoft YaHei','Noto Sans CJK SC',Arial,sans-serif; fill:#cbd5e1;">所以三者不是并列替代关系，而是“框架、特例、加速范式”三个不同层级。</text>
</svg>
