<svg xmlns="http://www.w3.org/2000/svg" width="1280" height="740" viewBox="0 0 1280 740">
  <defs>
    <style>
      .title { font: 700 30px "PingFang SC","Microsoft YaHei","Noto Sans CJK SC",Arial,sans-serif; fill: #0f172a; }
      .sub { font: 500 16px "PingFang SC","Microsoft YaHei","Noto Sans CJK SC",Arial,sans-serif; fill: #475569; }
      .h { font: 700 22px "PingFang SC","Microsoft YaHei","Noto Sans CJK SC",Arial,sans-serif; fill: #0f172a; }
      .body { font: 500 15px "PingFang SC","Microsoft YaHei","Noto Sans CJK SC",Arial,sans-serif; fill: #334155; }
      .small { font: 500 13px "PingFang SC","Microsoft YaHei","Noto Sans CJK SC",Arial,sans-serif; fill: #475569; }
      .code { font: 600 15px "Arial Unicode MS","STIXGeneral","Times New Roman","PingFang SC",serif; fill: #0f172a; }
    </style>
  </defs>

  <rect width="1280" height="740" fill="#f8fafc"/>
  <rect x="34" y="28" width="1212" height="684" rx="24" fill="#ffffff" stroke="#d7dee8" stroke-width="2"/>

  <text x="640" y="74" text-anchor="middle" class="title">Rectified Flow 与传统扩散训练目标差异</text>
  <text x="640" y="104" text-anchor="middle" class="sub">两者都常用 MSE 训练，但一个学“局部去噪方向”，一个学“全局传输方向”</text>

  <rect x="84" y="150" width="512" height="420" rx="24" fill="#eff6ff" stroke="#93c5fd" stroke-width="2"/>
  <text x="340" y="194" text-anchor="middle" class="h">传统扩散 / Score Matching</text>
  <g data-formula="$x_t=\sqrt{\bar{\alpha}_t}x_0+\sqrt{1-\bar{\alpha}_t}\epsilon$" transform="translate(255.111 234.000) scale(1 -1)"><path d="M9.603,8.890 L5.585,4.600 L8.047,0.140 L6.397,0.140 L4.548,3.610 L1.328,0.140 L-0.415,0.140 L3.890,4.750 L1.603,8.890 L3.250,8.890 L4.930,5.725 L7.860,8.890 L9.603,8.890 Z M14.204,3.640 L14.052,2.858 L12.045,2.858 L11.394,-0.467 Q11.361,-0.653 11.345,-0.779 Q11.329,-0.905 11.329,-0.975 Q11.329,-1.325 11.539,-1.484 Q11.749,-1.643 12.215,-1.643 L13.231,-1.643 L13.062,-2.485 L12.099,-2.485 Q11.203,-2.485 10.762,-2.135 Q10.323,-1.785 10.323,-1.075 Q10.323,-0.949 10.338,-0.798 Q10.354,-0.647 10.388,-0.467 L11.038,2.858 L10.184,2.858 L10.344,3.640 L11.180,3.640 L11.520,5.379 L12.526,5.379 L12.192,3.640 L14.204,3.640 Z M19.110,7.405 L29.125,7.405 L29.125,6.093 L19.110,6.093 L19.110,7.405 Z M19.110,4.218 L29.125,4.218 L29.125,2.890 L19.110,2.890 L19.110,4.218 Z M45.594,17.283 L39.579,-2.485 L39.129,-2.485 L36.657,5.552 Q36.539,5.938 36.388,6.109 Q36.239,6.281 35.993,6.281 Q35.629,6.281 35.266,5.992 L35.137,6.206 L36.891,7.554 L37.159,7.554 L39.589,-0.334 L39.632,-0.334 L44.983,17.283 L45.594,17.283 Z M51.485,12.280 L56.157,12.280 L56.157,11.123 L51.485,11.123 L51.485,12.280 Z M53.796,4.208 L53.803,6.013 Q53.811,7.857 52.421,7.865 Q51.381,7.873 50.733,7.005 Q49.921,5.935 49.646,4.505 Q49.311,2.785 49.733,1.965 Q50.171,1.130 51.116,1.130 Q52.163,1.130 53.046,2.795 L53.796,4.208 Z M52.663,9.082 Q55.101,9.123 55.068,6.598 Q55.068,6.598 56.288,8.888 L57.568,8.888 L55.046,4.145 L55.021,2.435 Q55.021,2.053 55.233,1.732 Q55.476,1.357 55.726,1.357 L56.421,1.357 L56.186,0.138 L55.318,0.138 Q54.583,0.138 54.053,0.795 Q53.803,1.123 53.796,1.810 Q53.288,0.973 52.413,0.263 Q51.998,-0.065 50.881,-0.058 Q49.053,-0.043 48.388,1.130 Q47.708,2.348 48.131,4.505 Q48.583,6.825 49.771,7.880 Q51.108,9.060 52.663,9.082 Z M62.684,3.638 L62.531,2.855 L60.524,2.855 L59.873,-0.470 Q59.840,-0.655 59.824,-0.781 Q59.808,-0.907 59.808,-0.977 Q59.808,-1.327 60.018,-1.487 Q60.228,-1.646 60.694,-1.646 L61.711,-1.646 L61.541,-2.488 L60.578,-2.488 Q59.682,-2.488 59.241,-2.138 Q58.802,-1.788 58.802,-1.077 Q58.802,-0.951 58.818,-0.801 Q58.834,-0.650 58.867,-0.470 L59.518,2.855 L58.664,2.855 L58.823,3.638 L59.660,3.638 L59.999,5.377 L61.005,5.377 L60.671,3.638 L62.684,3.638 Z M74.380,8.890 L70.362,4.600 L72.825,0.140 L71.175,0.140 L69.325,3.610 L66.105,0.140 L64.362,0.140 L68.667,4.750 L66.380,8.890 L68.027,8.890 L69.707,5.725 L72.637,8.890 L74.380,8.890 Z M77.805,4.952 Q76.953,4.952 76.523,4.112 Q76.094,3.274 76.094,1.589 Q76.094,-0.089 76.523,-0.929 Q76.953,-1.769 77.805,-1.769 Q78.665,-1.769 79.093,-0.929 Q79.524,-0.089 79.524,1.589 Q79.524,3.274 79.093,4.112 Q78.665,4.952 77.805,4.952 Z M77.805,5.827 Q79.179,5.827 79.904,4.741 Q80.628,3.656 80.628,1.589 Q80.628,-0.473 79.904,-1.559 Q79.179,-2.644 77.805,-2.644 Q76.433,-2.644 75.709,-1.559 Q74.984,-0.473 74.984,1.589 Q74.984,3.656 75.709,4.741 Q76.433,5.827 77.805,5.827 Z M92.286,10.172 L92.286,5.820 L96.636,5.820 L96.636,4.492 L92.286,4.492 L92.286,0.140 L90.974,0.140 L90.974,4.492 L86.621,4.492 L86.621,5.820 L90.974,5.820 L90.974,10.172 L92.286,10.172 Z M113.105,17.283 L107.090,-2.485 L106.640,-2.485 L104.169,5.552 Q104.050,5.938 103.900,6.109 Q103.751,6.281 103.505,6.281 Q103.140,6.281 102.777,5.992 L102.649,6.206 L104.403,7.554 L104.670,7.554 L107.100,-0.334 L107.144,-0.334 L112.495,17.283 L113.105,17.283 Z M116.745,1.465 L119.322,1.465 L119.322,10.365 L116.517,9.803 L116.517,11.240 L119.307,11.803 L120.885,11.803 L120.885,1.465 L123.462,1.465 L123.462,0.138 L116.745,0.138 L116.745,1.465 Z M129.752,5.817 L139.767,5.817 L139.767,4.490 L129.752,4.490 L129.752,5.817 Z M148.817,12.280 L153.489,12.280 L153.489,11.123 L148.817,11.123 L148.817,12.280 Z M151.127,4.208 L151.135,6.013 Q151.142,7.857 149.752,7.865 Q148.712,7.873 148.065,7.005 Q147.252,5.935 146.977,4.505 Q146.642,2.785 147.065,1.965 Q147.502,1.130 148.447,1.130 Q149.495,1.130 150.377,2.795 L151.127,4.208 Z M149.995,9.082 Q152.432,9.123 152.400,6.598 Q152.400,6.598 153.620,8.888 L154.900,8.888 L152.377,4.145 L152.352,2.435 Q152.352,2.053 152.565,1.732 Q152.807,1.357 153.057,1.357 L153.752,1.357 L153.517,0.138 L152.650,0.138 Q151.915,0.138 151.385,0.795 Q151.135,1.123 151.127,1.810 Q150.620,0.973 149.745,0.263 Q149.330,-0.065 148.212,-0.058 Q146.385,-0.043 145.720,1.130 Q145.040,2.348 145.462,4.505 Q145.915,6.825 147.102,7.880 Q148.440,9.060 149.995,9.082 Z M160.015,3.638 L159.863,2.855 L157.856,2.855 L157.205,-0.470 Q157.172,-0.655 157.156,-0.781 Q157.140,-0.907 157.140,-0.977 Q157.140,-1.327 157.350,-1.487 Q157.560,-1.646 158.026,-1.646 L159.042,-1.646 L158.873,-2.488 L157.910,-2.488 Q157.014,-2.488 156.573,-2.138 Q156.134,-1.788 156.134,-1.077 Q156.134,-0.951 156.150,-0.801 Q156.165,-0.650 156.199,-0.470 L156.850,2.855 L155.996,2.855 L156.155,3.638 L156.991,3.638 L157.331,5.377 L158.337,5.377 L158.003,3.638 L160.015,3.638 Z M165.266,4.860 Q164.421,5.048 164.054,5.555 Q163.781,5.913 163.781,6.397 Q163.781,7.725 165.046,8.500 Q166.046,9.110 167.579,9.110 Q168.171,9.110 168.819,9.015 Q169.469,8.922 170.194,8.735 L169.944,7.430 Q169.226,7.655 168.624,7.758 Q168.006,7.860 167.454,7.860 Q166.524,7.860 165.914,7.500 Q165.179,7.070 165.179,6.445 Q165.179,6.030 165.561,5.742 Q166.016,5.397 166.921,5.397 L168.131,5.397 L167.906,4.210 L166.749,4.210 Q165.671,4.210 165.039,3.812 Q164.179,3.272 164.179,2.430 Q164.179,1.897 164.641,1.548 Q165.219,1.110 166.399,1.110 Q167.124,1.110 167.819,1.250 Q168.516,1.397 169.124,1.688 L168.859,0.350 Q168.116,0.133 167.436,0.022 Q166.756,-0.088 166.131,-0.088 Q164.274,-0.088 163.399,0.625 Q162.734,1.173 162.734,2.093 Q162.734,3.335 163.609,4.100 Q164.256,4.673 165.266,4.860 Z M45.248,16.240 L45.248,17.240 L64.777,17.240 L64.777,16.240 L45.248,16.240 Z M112.760,16.240 L112.760,17.240 L162.109,17.240 L162.109,16.240 L112.760,16.240 Z" fill="#0f172a"/></g><g data-formula="$L=\mathbb{E}\,\|\epsilon-\epsilon_\theta(x_t,t)\|^2$" transform="translate(267.885 272.000) scale(1 -1)"><path d="M2.688,11.787 L4.272,11.787 L2.272,1.435 L7.953,1.435 L7.695,0.122 L0.430,0.122 L2.688,11.787 Z M13.726,7.388 L23.741,7.388 L23.741,6.075 L13.726,6.075 L13.726,7.388 Z M13.726,4.200 L23.741,4.200 L23.741,2.873 L13.726,2.873 L13.726,4.200 Z M39.180,10.570 L39.035,9.978 L33.930,9.978 L32.827,5.788 L37.340,5.788 L37.162,5.195 L32.667,5.195 L31.467,0.715 L37.162,0.715 L37.035,0.122 L28.827,0.122 L31.627,10.570 L39.180,10.570 Z M33.340,9.978 L32.090,9.978 L29.595,0.715 L30.875,0.715 L33.340,9.978 Z M44.736,12.350 L44.736,-3.650 L43.409,-3.650 L43.409,12.350 L44.736,12.350 Z M49.925,4.843 Q49.080,5.030 48.712,5.538 Q48.440,5.895 48.440,6.380 Q48.440,7.708 49.705,8.482 Q50.705,9.092 52.237,9.092 Q52.830,9.092 53.477,8.998 Q54.127,8.905 54.852,8.717 L54.602,7.413 Q53.885,7.638 53.282,7.740 Q52.665,7.843 52.112,7.843 Q51.182,7.843 50.572,7.482 Q49.837,7.053 49.837,6.428 Q49.837,6.013 50.220,5.725 Q50.675,5.380 51.580,5.380 L52.790,5.380 L52.565,4.192 L51.407,4.192 Q50.330,4.192 49.697,3.795 Q48.837,3.255 48.837,2.413 Q48.837,1.880 49.300,1.530 Q49.877,1.093 51.057,1.093 Q51.782,1.093 52.477,1.232 Q53.175,1.380 53.782,1.670 L53.517,0.333 Q52.775,0.115 52.095,0.005 Q51.415,-0.105 50.790,-0.105 Q48.932,-0.105 48.057,0.608 Q47.392,1.155 47.392,2.075 Q47.392,3.317 48.267,4.083 Q48.915,4.655 49.925,4.843 Z M60.228,5.803 L70.243,5.803 L70.243,4.475 L60.228,4.475 L60.228,5.803 Z M78.214,4.843 Q77.369,5.030 77.001,5.538 Q76.729,5.895 76.729,6.380 Q76.729,7.708 77.994,8.482 Q78.994,9.092 80.526,9.092 Q81.119,9.092 81.766,8.998 Q82.416,8.905 83.141,8.717 L82.891,7.413 Q82.174,7.638 81.571,7.740 Q80.954,7.843 80.401,7.843 Q79.471,7.843 78.861,7.482 Q78.126,7.053 78.126,6.428 Q78.126,6.013 78.509,5.725 Q78.964,5.380 79.869,5.380 L81.079,5.380 L80.854,4.192 L79.696,4.192 Q78.619,4.192 77.986,3.795 Q77.126,3.255 77.126,2.413 Q77.126,1.880 77.589,1.530 Q78.166,1.093 79.346,1.093 Q80.071,1.093 80.766,1.232 Q81.464,1.380 82.071,1.670 L81.806,0.333 Q81.064,0.115 80.384,0.005 Q79.704,-0.105 79.079,-0.105 Q77.221,-0.105 76.346,0.608 Q75.681,1.155 75.681,2.075 Q75.681,3.317 76.556,4.083 Q77.204,4.655 78.214,4.843 Z M88.802,1.381 L85.323,1.381 Q85.089,-0.256 85.329,-0.949 Q85.630,-1.802 86.445,-1.802 Q87.264,-1.802 87.889,-0.943 Q88.435,-0.189 88.802,1.381 Z M88.970,2.310 Q89.119,3.864 88.927,4.410 Q88.627,5.274 87.822,5.274 Q86.986,5.274 86.373,4.420 Q85.892,3.733 85.514,2.310 L88.970,2.310 Z M87.982,6.095 Q89.294,6.095 89.819,4.935 Q90.344,3.782 89.945,1.736 Q89.551,-0.305 88.571,-1.463 Q87.598,-2.629 86.286,-2.629 Q84.968,-2.629 84.448,-1.463 Q83.929,-0.305 84.322,1.736 Q84.721,3.782 85.689,4.935 Q86.664,6.095 87.982,6.095 Z M95.954,12.263 Q94.909,10.467 94.399,8.707 Q93.892,6.950 93.892,5.145 Q93.892,3.343 94.404,1.573 Q94.917,-0.198 95.954,-1.988 L94.704,-1.988 Q93.534,-0.150 92.952,1.623 Q92.369,3.395 92.369,5.145 Q92.369,6.888 92.947,8.652 Q93.527,10.420 94.704,12.263 L95.954,12.263 Z M106.839,8.873 L102.822,4.583 L105.284,0.122 L103.634,0.122 L101.784,3.593 L98.564,0.122 L96.822,0.122 L101.127,4.732 L98.839,8.873 L100.487,8.873 L102.167,5.708 L105.097,8.873 L106.839,8.873 Z M111.441,3.623 L111.289,2.840 L109.281,2.840 L108.630,-0.485 Q108.597,-0.670 108.581,-0.796 Q108.566,-0.922 108.566,-0.992 Q108.566,-1.342 108.776,-1.502 Q108.986,-1.661 109.451,-1.661 L110.468,-1.661 L110.298,-2.502 L109.336,-2.502 Q108.440,-2.502 107.999,-2.152 Q107.559,-1.802 107.559,-1.092 Q107.559,-0.966 107.575,-0.816 Q107.591,-0.665 107.624,-0.485 L108.275,2.840 L107.421,2.840 L107.580,3.623 L108.417,3.623 L108.756,5.362 L109.763,5.362 L109.428,3.623 L111.441,3.623 Z M113.409,2.107 L115.057,2.107 L115.057,0.763 L113.777,-1.738 L112.769,-1.738 L113.409,0.763 L113.409,2.107 Z M126.502,8.873 L126.285,7.755 L123.417,7.755 L122.487,3.005 Q122.440,2.740 122.417,2.560 Q122.395,2.380 122.395,2.280 Q122.395,1.780 122.695,1.552 Q122.995,1.325 123.660,1.325 L125.112,1.325 L124.870,0.122 L123.495,0.122 Q122.215,0.122 121.585,0.623 Q120.957,1.123 120.957,2.138 Q120.957,2.317 120.980,2.533 Q121.002,2.748 121.050,3.005 L121.980,7.755 L120.760,7.755 L120.987,8.873 L122.182,8.873 L122.667,11.357 L124.105,11.357 L123.627,8.873 L126.502,8.873 Z M127.293,12.263 L128.543,12.263 Q129.713,10.420 130.296,8.652 Q130.878,6.888 130.878,5.145 Q130.878,3.395 130.296,1.623 Q129.713,-0.150 128.543,-1.988 L127.293,-1.988 Q128.331,-0.198 128.843,1.573 Q129.356,3.343 129.356,5.145 Q129.356,6.950 128.843,8.707 Q128.331,10.467 127.293,12.263 Z M135.613,12.350 L135.613,-3.650 L134.285,-3.650 L134.285,12.350 L135.613,12.350 Z M139.946,7.177 L143.801,7.177 L143.801,6.248 L138.617,6.248 L138.617,7.177 Q139.246,7.828 140.331,8.923 Q141.417,10.021 141.696,10.339 Q142.226,10.934 142.436,11.347 Q142.648,11.760 142.648,12.159 Q142.648,12.810 142.191,13.219 Q141.734,13.631 141.001,13.631 Q140.481,13.631 139.904,13.450 Q139.328,13.270 138.672,12.903 L138.672,14.019 Q139.338,14.287 139.918,14.423 Q140.499,14.560 140.980,14.560 Q142.249,14.560 143.003,13.925 Q143.757,13.291 143.757,12.231 Q143.757,11.727 143.568,11.275 Q143.381,10.825 142.882,10.213 Q142.746,10.054 142.012,9.296 Q141.281,8.538 139.946,7.177 Z" fill="#0f172a"/></g><text x="340" y="322" text-anchor="middle" class="body">监督信号：当前噪声水平下的局部去噪方向</text>
  <text x="340" y="350" text-anchor="middle" class="body">物理直觉：先把这一步降噪，再交给下一步继续修正</text>
  <text x="340" y="402" text-anchor="middle" class="small">优点：训练范式成熟、生态完整、采样器很多</text>
  <text x="340" y="430" text-anchor="middle" class="small">难点：少步采样时，局部方向误差更容易累积</text>

  <circle cx="212" cy="488" r="26" fill="#60a5fa"/>
  <circle cx="294" cy="488" r="26" fill="#60a5fa" opacity="0.82"/>
  <circle cx="376" cy="488" r="26" fill="#60a5fa" opacity="0.68"/>
  <circle cx="458" cy="488" r="26" fill="#60a5fa" opacity="0.52"/>
  <path d="M 212 488 L 268 488" stroke="#2563eb" stroke-width="3" stroke-dasharray="6 6"/>
  <path d="M 294 488 L 350 488" stroke="#2563eb" stroke-width="3" stroke-dasharray="6 6"/>
  <path d="M 376 488 L 432 488" stroke="#2563eb" stroke-width="3" stroke-dasharray="6 6"/>
  <text x="340" y="542" text-anchor="middle" class="small">更像“沿时间轴反复做局部修正”</text>

  <rect x="684" y="150" width="512" height="420" rx="24" fill="#ecfdf5" stroke="#86efac" stroke-width="2"/>
  <text x="940" y="194" text-anchor="middle" class="h">Rectified Flow</text>
  <g data-formula="$x_t=(1-t)x_0+t x_1$" transform="translate(869.696 234.000) scale(1 -1)"><path d="M9.603,8.770 L5.585,4.480 L8.047,0.020 L6.397,0.020 L4.548,3.490 L1.328,0.020 L-0.415,0.020 L3.890,4.630 L1.603,8.770 L3.250,8.770 L4.930,5.605 L7.860,8.770 L9.603,8.770 Z M14.204,3.520 L14.052,2.738 L12.045,2.738 L11.394,-0.587 Q11.361,-0.773 11.345,-0.899 Q11.329,-1.025 11.329,-1.095 Q11.329,-1.445 11.539,-1.604 Q11.749,-1.763 12.215,-1.763 L13.231,-1.763 L13.062,-2.605 L12.099,-2.605 Q11.203,-2.605 10.762,-2.255 Q10.323,-1.905 10.323,-1.195 Q10.323,-1.069 10.338,-0.918 Q10.354,-0.768 10.388,-0.587 L11.038,2.738 L10.184,2.738 L10.344,3.520 L11.180,3.520 L11.520,5.259 L12.526,5.259 L12.192,3.520 L14.204,3.520 Z M19.110,7.285 L29.125,7.285 L29.125,5.973 L19.110,5.973 L19.110,7.285 Z M19.110,4.098 L29.125,4.098 L29.125,2.770 L19.110,2.770 L19.110,4.098 Z M38.898,12.160 Q37.853,10.365 37.343,8.605 Q36.836,6.848 36.836,5.043 Q36.836,3.240 37.348,1.470 Q37.861,-0.300 38.898,-2.090 L37.648,-2.090 Q36.478,-0.253 35.896,1.520 Q35.313,3.292 35.313,5.043 Q35.313,6.785 35.891,8.550 Q36.471,10.318 37.648,12.160 L38.898,12.160 Z M42.165,1.347 L44.743,1.347 L44.743,10.248 L41.938,9.685 L41.938,11.123 L44.728,11.685 L46.305,11.685 L46.305,1.347 L48.883,1.347 L48.883,0.020 L42.165,0.020 L42.165,1.347 Z M55.172,5.700 L65.187,5.700 L65.187,4.373 L55.172,4.373 L55.172,5.700 Z M76.766,8.770 L76.548,7.652 L73.681,7.652 L72.751,2.902 Q72.703,2.638 72.681,2.458 Q72.658,2.277 72.658,2.178 Q72.658,1.677 72.958,1.450 Q73.258,1.222 73.923,1.222 L75.376,1.222 L75.133,0.020 L73.758,0.020 Q72.478,0.020 71.848,0.520 Q71.221,1.020 71.221,2.035 Q71.221,2.215 71.243,2.430 Q71.266,2.645 71.313,2.902 L72.243,7.652 L71.023,7.652 L71.251,8.770 L72.446,8.770 L72.931,11.255 L74.368,11.255 L73.891,8.770 L76.766,8.770 Z M77.557,12.160 L78.807,12.160 Q79.977,10.318 80.559,8.550 Q81.142,6.785 81.142,5.043 Q81.142,3.292 80.559,1.520 Q79.977,-0.253 78.807,-2.090 L77.557,-2.090 Q78.594,-0.300 79.107,1.470 Q79.619,3.240 79.619,5.043 Q79.619,6.848 79.107,8.605 Q78.594,10.365 77.557,12.160 Z M92.119,8.770 L88.101,4.480 L90.564,0.020 L88.914,0.020 L87.064,3.490 L83.844,0.020 L82.101,0.020 L86.406,4.630 L84.119,8.770 L85.766,8.770 L87.446,5.605 L90.376,8.770 L92.119,8.770 Z M95.545,4.833 Q94.692,4.833 94.262,3.993 Q93.833,3.154 93.833,1.469 Q93.833,-0.209 94.262,-1.049 Q94.692,-1.889 95.545,-1.889 Q96.404,-1.889 96.833,-1.049 Q97.263,-0.209 97.263,1.469 Q97.263,3.154 96.833,3.993 Q96.404,4.833 95.545,4.833 Z M95.545,5.708 Q96.918,5.708 97.643,4.621 Q98.367,3.536 98.367,1.469 Q98.367,-0.593 97.643,-1.679 Q96.918,-2.764 95.545,-2.764 Q94.173,-2.764 93.448,-1.679 Q92.724,-0.593 92.724,1.469 Q92.724,3.536 93.448,4.621 Q94.173,5.708 95.545,5.708 Z M110.026,10.053 L110.026,5.700 L114.376,5.700 L114.376,4.373 L110.026,4.373 L110.026,0.020 L108.713,0.020 L108.713,4.373 L104.361,4.373 L104.361,5.700 L108.713,5.700 L108.713,10.053 L110.026,10.053 Z M125.954,8.770 L125.737,7.652 L122.869,7.652 L121.939,2.902 Q121.892,2.638 121.869,2.458 Q121.847,2.277 121.847,2.178 Q121.847,1.677 122.147,1.450 Q122.447,1.222 123.112,1.222 L124.564,1.222 L124.322,0.020 L122.947,0.020 Q121.667,0.020 121.037,0.520 Q120.409,1.020 120.409,2.035 Q120.409,2.215 120.432,2.430 Q120.454,2.645 120.502,2.902 L121.432,7.652 L120.212,7.652 L120.439,8.770 L121.634,8.770 L122.119,11.255 L123.557,11.255 L123.079,8.770 L125.954,8.770 Z M135.065,8.770 L131.048,4.480 L133.510,0.020 L131.860,0.020 L130.010,3.490 L126.790,0.020 L125.047,0.020 L129.352,4.630 L127.065,8.770 L128.713,8.770 L130.393,5.605 L133.322,8.770 L135.065,8.770 Z M136.321,-1.676 L138.125,-1.676 L138.125,4.554 L136.161,4.160 L136.161,5.167 L138.115,5.560 L139.219,5.560 L139.219,-1.676 L141.023,-1.676 L141.023,-2.605 L136.321,-2.605 L136.321,-1.676 Z" fill="#0f172a"/></g><g data-formula="$L=\mathbb{E}\,\|f_\theta(x_t,t)-x_1\|^2$" transform="translate(865.201 272.000) scale(1 -1)"><path d="M2.688,11.787 L4.272,11.787 L2.272,1.435 L7.953,1.435 L7.695,0.122 L0.430,0.122 L2.688,11.787 Z M13.726,7.388 L23.741,7.388 L23.741,6.075 L13.726,6.075 L13.726,7.388 Z M13.726,4.200 L23.741,4.200 L23.741,2.873 L13.726,2.873 L13.726,4.200 Z M39.180,10.570 L39.035,9.978 L33.930,9.978 L32.827,5.788 L37.340,5.788 L37.162,5.195 L32.667,5.195 L31.467,0.715 L37.162,0.715 L37.035,0.122 L28.827,0.122 L31.627,10.570 L39.180,10.570 Z M33.340,9.978 L32.090,9.978 L29.595,0.715 L30.875,0.715 L33.340,9.978 Z M44.736,12.350 L44.736,-3.650 L43.409,-3.650 L43.409,12.350 L44.736,12.350 Z M54.415,12.280 L54.190,11.082 L52.815,11.082 Q52.032,11.082 51.677,10.775 Q51.322,10.467 51.150,9.645 L50.995,8.873 L53.362,8.873 L53.150,7.755 L50.782,7.755 L49.300,0.122 L47.852,0.122 L49.345,7.755 L47.970,7.755 L48.175,8.873 L49.550,8.873 L49.665,9.482 Q49.962,11.030 50.707,11.655 Q51.455,12.280 53.057,12.280 L54.415,12.280 Z M57.498,1.381 L54.019,1.381 Q53.784,-0.256 54.024,-0.949 Q54.325,-1.802 55.140,-1.802 Q55.959,-1.802 56.584,-0.943 Q57.130,-0.189 57.498,1.381 Z M57.666,2.310 Q57.814,3.864 57.622,4.410 Q57.323,5.274 56.518,5.274 Q55.681,5.274 55.069,4.420 Q54.587,3.733 54.209,2.310 L57.666,2.310 Z M56.677,6.095 Q57.989,6.095 58.514,4.935 Q59.039,3.782 58.640,1.736 Q58.247,-0.305 57.267,-1.463 Q56.294,-2.629 54.981,-2.629 Q53.663,-2.629 53.144,-1.463 Q52.624,-0.305 53.018,1.736 Q53.417,3.782 54.384,4.935 Q55.359,6.095 56.677,6.095 Z M64.650,12.263 Q63.605,10.467 63.095,8.707 Q62.587,6.950 62.587,5.145 Q62.587,3.343 63.100,1.573 Q63.612,-0.198 64.650,-1.988 L63.400,-1.988 Q62.230,-0.150 61.647,1.623 Q61.065,3.395 61.065,5.145 Q61.065,6.888 61.642,8.652 Q62.222,10.420 63.400,12.263 L64.650,12.263 Z M75.534,8.873 L71.517,4.583 L73.979,0.122 L72.329,0.122 L70.479,3.593 L67.259,0.122 L65.517,0.122 L69.822,4.732 L67.534,8.873 L69.182,8.873 L70.862,5.708 L73.792,8.873 L75.534,8.873 Z M80.136,3.623 L79.984,2.840 L77.977,2.840 L77.326,-0.485 Q77.292,-0.670 77.277,-0.796 Q77.261,-0.922 77.261,-0.992 Q77.261,-1.342 77.471,-1.502 Q77.681,-1.661 78.146,-1.661 L79.163,-1.661 L78.993,-2.502 L78.031,-2.502 Q77.135,-2.502 76.694,-2.152 Q76.255,-1.802 76.255,-1.092 Q76.255,-0.966 76.270,-0.816 Q76.286,-0.665 76.319,-0.485 L76.970,2.840 L76.116,2.840 L76.276,3.623 L77.112,3.623 L77.452,5.362 L78.458,5.362 L78.124,3.623 L80.136,3.623 Z M82.105,2.107 L83.752,2.107 L83.752,0.763 L82.472,-1.738 L81.465,-1.738 L82.105,0.763 L82.105,2.107 Z M95.198,8.873 L94.980,7.755 L92.113,7.755 L91.183,3.005 Q91.135,2.740 91.113,2.560 Q91.090,2.380 91.090,2.280 Q91.090,1.780 91.390,1.552 Q91.690,1.325 92.355,1.325 L93.808,1.325 L93.565,0.122 L92.190,0.122 Q90.910,0.122 90.280,0.623 Q89.653,1.123 89.653,2.138 Q89.653,2.317 89.675,2.533 Q89.698,2.748 89.745,3.005 L90.675,7.755 L89.455,7.755 L89.683,8.873 L90.878,8.873 L91.363,11.357 L92.800,11.357 L92.323,8.873 L95.198,8.873 Z M95.989,12.263 L97.239,12.263 Q98.409,10.420 98.991,8.652 Q99.574,6.888 99.574,5.145 Q99.574,3.395 98.991,1.623 Q98.409,-0.150 97.239,-1.988 L95.989,-1.988 Q97.026,-0.198 97.539,1.573 Q98.051,3.343 98.051,5.145 Q98.051,6.950 97.539,8.707 Q97.026,10.467 95.989,12.263 Z M105.760,5.803 L115.775,5.803 L115.775,4.475 L105.760,4.475 L105.760,5.803 Z M130.191,8.873 L126.174,4.583 L128.636,0.122 L126.986,0.122 L125.136,3.593 L121.916,0.122 L120.174,0.122 L124.479,4.732 L122.191,8.873 L123.839,8.873 L125.519,5.708 L128.449,8.873 L130.191,8.873 Z M131.447,-1.573 L133.251,-1.573 L133.251,4.657 L131.288,4.263 L131.288,5.269 L133.241,5.663 L134.345,5.663 L134.345,-1.573 L136.149,-1.573 L136.149,-2.502 L131.447,-2.502 L131.447,-1.573 Z M140.981,12.350 L140.981,-3.650 L139.653,-3.650 L139.653,12.350 L140.981,12.350 Z M145.314,7.177 L149.169,7.177 L149.169,6.248 L143.985,6.248 L143.985,7.177 Q144.614,7.828 145.699,8.923 Q146.785,10.021 147.064,10.339 Q147.594,10.934 147.804,11.347 Q148.016,11.760 148.016,12.159 Q148.016,12.810 147.559,13.219 Q147.102,13.631 146.369,13.631 Q145.849,13.631 145.272,13.450 Q144.696,13.270 144.040,12.903 L144.040,14.019 Q144.706,14.287 145.286,14.423 Q145.867,14.560 146.348,14.560 Q147.617,14.560 148.371,13.925 Q149.125,13.291 149.125,12.231 Q149.125,11.727 148.936,11.275 Q148.749,10.825 148.250,10.213 Q148.114,10.054 147.380,9.296 Q146.649,8.538 145.314,7.177 Z" fill="#0f172a"/></g><text x="940" y="322" text-anchor="middle" class="body">监督信号：最终干净样本或指向终点的速度</text>
  <text x="940" y="350" text-anchor="middle" class="body">物理直觉：在当前位置直接估计“最终应该走向哪里”</text>
  <text x="940" y="402" text-anchor="middle" class="small">优点：更具全局性，更适合少步 ODE 采样</text>
  <text x="940" y="430" text-anchor="middle" class="small">难点：依赖路径是否足够直、速度场是否足够准</text>

  <circle cx="812" cy="502" r="28" fill="#22c55e" opacity="0.48"/>
  <circle cx="1068" cy="476" r="28" fill="#16a34a"/>
  <path d="M 812 502 C 872 490, 930 480, 996 478" fill="none" stroke="#16a34a" stroke-width="4"/>
  <polygon points="988,472 1000,478 988,484" fill="#16a34a"/>
  <path d="M 1000 478 C 1020 477, 1040 476, 1068 476" fill="none" stroke="#16a34a" stroke-width="4"/>
  <text x="940" y="542" text-anchor="middle" class="small">更像“持续朝终点推进的全局运输方向”</text>

  <rect x="128" y="606" width="1024" height="64" rx="18" fill="#0f172a"/>
  <text x="640" y="646" text-anchor="middle" style="font:700 19px 'PingFang SC','Microsoft YaHei','Noto Sans CJK SC',Arial,sans-serif; fill:#ffffff;">一句话：扩散模型学“当前位置如何局部去噪”，Rectified Flow 学“当前位置应朝最终数据点如何整体移动”</text>
</svg>
