<svg xmlns="http://www.w3.org/2000/svg" width="1280" height="720" viewBox="0 0 1280 720">
  <defs>
    <marker id="axisArrow" viewBox="0 0 10 10" refX="9" refY="5" markerWidth="7" markerHeight="7" orient="auto">
      <path d="M 0 0 L 10 5 L 0 10 z" fill="#334155"/>
    </marker>
    <style>
      .title { font: 700 30px "PingFang SC","Microsoft YaHei","Noto Sans CJK SC",Arial,sans-serif; fill: #0f172a; }
      .subtitle { font: 500 16px "PingFang SC","Microsoft YaHei","Noto Sans CJK SC",Arial,sans-serif; fill: #475569; }
      .label { font: 700 18px "PingFang SC","Microsoft YaHei","Noto Sans CJK SC",Arial,sans-serif; fill: #0f172a; }
      .body { font: 500 15px "PingFang SC","Microsoft YaHei","Noto Sans CJK SC",Arial,sans-serif; fill: #334155; }
      .small { font: 500 13px "PingFang SC","Microsoft YaHei","Noto Sans CJK SC",Arial,sans-serif; fill: #475569; }
      .code { font: 600 14px "Menlo","Consolas","Courier New",monospace; fill: #111827; }
    </style>
  </defs>

  <rect width="1280" height="720" fill="#ffffff"/>

  <text x="640" y="46" text-anchor="middle" class="title">VP / VE / sub-VP 三类正向噪声过程</text>
  <text x="640" y="76" text-anchor="middle" class="subtitle">三者的区别不是“谁更高级”，而是信号衰减和噪声方差增长方式不同</text>

  <rect x="72" y="116" width="348" height="300" rx="18" fill="#eff6ff" stroke="#93c5fd" stroke-width="2"/>
  <text x="246" y="150" text-anchor="middle" class="label">VP-SDE</text>
  <text x="246" y="178" text-anchor="middle" class="small">信号衰减，噪声增加，尺度较稳定</text>
  <line x1="118" y1="354" x2="374" y2="354" stroke="#334155" stroke-width="2" marker-end="url(#axisArrow)"/>
  <line x1="118" y1="354" x2="118" y2="214" stroke="#334155" stroke-width="2" marker-end="url(#axisArrow)"/>
  <text x="384" y="360" class="small">t</text>
  <text x="96" y="208" class="small">强度</text>
  <path d="M 126 226 C 190 245, 262 286, 365 338" fill="none" stroke="#2563eb" stroke-width="4"/>
  <path d="M 126 338 C 196 318, 270 270, 365 226" fill="none" stroke="#f97316" stroke-width="4"/>
  <circle cx="148" cy="232" r="5" fill="#2563eb"/>
  <circle cx="148" cy="334" r="5" fill="#f97316"/>
  <text x="176" y="234" class="small" fill="#2563eb">信号衰减</text>
  <text x="176" y="334" class="small" fill="#f97316">噪声增强</text>
  <g data-formula="$dx=-\frac{1}{2}\beta(t)x\,dt+\sqrt{\beta(t)}\,dw$" transform="translate(137.762 390.000) scale(1 -1)"><path d="M6.688,1.340 Q6.110,0.583 5.320,0.190 Q4.532,-0.200 3.570,-0.200 Q2.257,-0.200 1.495,0.695 Q0.735,1.590 0.735,3.145 Q0.735,4.442 1.195,5.617 Q1.657,6.793 2.533,7.723 Q3.110,8.340 3.835,8.662 Q4.562,8.988 5.360,8.988 Q6.203,8.988 6.848,8.580 Q7.492,8.175 7.845,7.418 L8.783,12.185 L10.228,12.185 L7.860,0.028 L6.415,0.028 L6.688,1.340 Z M2.228,3.402 Q2.228,2.270 2.738,1.637 Q3.250,1.005 4.157,1.005 Q4.827,1.005 5.402,1.328 Q5.978,1.653 6.415,2.285 Q6.875,2.942 7.140,3.800 Q7.407,4.660 7.407,5.498 Q7.407,6.583 6.895,7.190 Q6.383,7.800 5.485,7.800 Q4.805,7.800 4.218,7.480 Q3.633,7.160 3.220,6.560 Q2.765,5.910 2.495,5.050 Q2.228,4.192 2.228,3.402 Z M19.759,8.777 L15.741,4.487 L18.204,0.028 L16.554,0.028 L14.704,3.498 L11.484,0.028 L9.741,0.028 L14.046,4.638 L11.759,8.777 L13.406,8.777 L15.086,5.612 L18.016,8.777 L19.759,8.777 Z M24.437,7.293 L34.452,7.293 L34.452,5.980 L24.437,5.980 L24.437,7.293 Z M24.437,4.105 L34.452,4.105 L34.452,2.777 L24.437,2.777 L24.437,4.105 Z M44.078,5.708 L54.093,5.708 L54.093,4.380 L44.078,4.380 L44.078,5.708 Z M60.296,7.964 L62.100,7.964 L62.100,14.194 L60.136,13.801 L60.136,14.807 L62.090,15.201 L63.194,15.201 L63.194,7.964 L64.998,7.964 L64.998,7.035 L60.296,7.035 L60.296,7.964 Z M61.055,-5.348 L64.910,-5.348 L64.910,-6.277 L59.727,-6.277 L59.727,-5.348 Q60.355,-4.697 61.440,-3.602 Q62.527,-2.505 62.805,-2.186 Q63.336,-1.591 63.546,-1.178 Q63.757,-0.765 63.757,-0.366 Q63.757,0.285 63.301,0.694 Q62.844,1.106 62.111,1.106 Q61.591,1.106 61.013,0.925 Q60.438,0.745 59.781,0.378 L59.781,1.494 Q60.448,1.762 61.027,1.898 Q61.608,2.035 62.090,2.035 Q63.358,2.035 64.112,1.400 Q64.867,0.766 64.867,-0.294 Q64.867,-0.798 64.678,-1.250 Q64.490,-1.700 63.992,-2.312 Q63.855,-2.471 63.122,-3.229 Q62.391,-3.987 61.055,-5.348 Z M70.212,0.568 L69.462,-3.300 L68.017,-3.300 L70.352,8.723 Q71.047,12.285 74.377,12.285 Q77.752,12.285 77.180,9.277 Q76.790,7.138 75.267,6.355 Q77.315,5.652 76.915,3.567 Q76.212,-0.145 72.430,-0.138 Q70.775,-0.130 70.212,0.568 Z M70.580,2.442 Q71.180,1.083 72.720,1.090 Q74.970,1.090 75.447,3.542 Q75.877,5.748 72.220,5.575 L72.477,6.902 Q75.305,6.855 75.797,9.402 Q76.135,11.123 74.305,11.113 Q72.260,11.113 71.790,8.675 L70.580,2.442 Z M83.203,12.168 Q82.158,10.373 81.648,8.613 Q81.140,6.855 81.140,5.050 Q81.140,3.248 81.653,1.478 Q82.165,-0.292 83.203,-2.083 L81.953,-2.083 Q80.783,-0.245 80.200,1.528 Q79.618,3.300 79.618,5.050 Q79.618,6.793 80.195,8.558 Q80.775,10.325 81.953,12.168 L83.203,12.168 Z M91.250,8.777 L91.033,7.660 L88.165,7.660 L87.235,2.910 Q87.188,2.645 87.165,2.465 Q87.143,2.285 87.143,2.185 Q87.143,1.685 87.443,1.458 Q87.743,1.230 88.408,1.230 L89.860,1.230 L89.618,0.028 L88.243,0.028 Q86.963,0.028 86.333,0.527 Q85.705,1.028 85.705,2.042 Q85.705,2.223 85.728,2.438 Q85.750,2.652 85.798,2.910 L86.728,7.660 L85.508,7.660 L85.735,8.777 L86.930,8.777 L87.415,11.263 L88.853,11.263 L88.375,8.777 L91.250,8.777 Z M92.041,12.168 L93.291,12.168 Q94.461,10.325 95.044,8.558 Q95.626,6.793 95.626,5.050 Q95.626,3.300 95.044,1.528 Q94.461,-0.245 93.291,-2.083 L92.041,-2.083 Q93.079,-0.292 93.591,1.478 Q94.104,3.248 94.104,5.050 Q94.104,6.855 93.591,8.613 Q93.079,10.373 92.041,12.168 Z M106.603,8.777 L102.586,4.487 L105.048,0.028 L103.398,0.028 L101.548,3.498 L98.328,0.028 L96.586,0.028 L100.891,4.638 L98.603,8.777 L100.251,8.777 L101.931,5.612 L104.861,8.777 L106.603,8.777 Z M115.755,1.340 Q115.177,0.583 114.387,0.190 Q113.600,-0.200 112.637,-0.200 Q111.325,-0.200 110.562,0.695 Q109.802,1.590 109.802,3.145 Q109.802,4.442 110.262,5.617 Q110.725,6.793 111.600,7.723 Q112.177,8.340 112.902,8.662 Q113.630,8.988 114.427,8.988 Q115.270,8.988 115.915,8.580 Q116.560,8.175 116.912,7.418 L117.850,12.185 L119.295,12.185 L116.927,0.028 L115.482,0.028 L115.755,1.340 Z M111.295,3.402 Q111.295,2.270 111.805,1.637 Q112.317,1.005 113.225,1.005 Q113.895,1.005 114.470,1.328 Q115.045,1.653 115.482,2.285 Q115.942,2.942 116.207,3.800 Q116.475,4.660 116.475,5.498 Q116.475,6.583 115.962,7.190 Q115.450,7.800 114.552,7.800 Q113.872,7.800 113.285,7.480 Q112.700,7.160 112.287,6.560 Q111.832,5.910 111.562,5.050 Q111.295,4.192 111.295,3.402 Z M125.988,8.777 L125.771,7.660 L122.903,7.660 L121.973,2.910 Q121.926,2.645 121.903,2.465 Q121.881,2.285 121.881,2.185 Q121.881,1.685 122.181,1.458 Q122.481,1.230 123.146,1.230 L124.598,1.230 L124.356,0.028 L122.981,0.028 Q121.701,0.028 121.071,0.527 Q120.443,1.028 120.443,2.042 Q120.443,2.223 120.466,2.438 Q120.488,2.652 120.536,2.910 L121.466,7.660 L120.246,7.660 L120.473,8.777 L121.668,8.777 L122.153,11.263 L123.591,11.263 L123.113,8.777 L125.988,8.777 Z M135.974,10.060 L135.974,5.708 L140.324,5.708 L140.324,4.380 L135.974,4.380 L135.974,0.028 L134.662,0.028 L134.662,4.380 L130.309,4.380 L130.309,5.708 L134.662,5.708 L134.662,10.060 L135.974,10.060 Z M157.275,17.285 L151.011,-3.300 L150.543,-3.300 L147.969,5.069 Q147.845,5.471 147.689,5.649 Q147.534,5.828 147.278,5.828 Q146.898,5.828 146.520,5.527 L146.386,5.750 L148.213,7.153 L148.491,7.153 L151.022,-1.061 L151.067,-1.061 L156.639,17.285 L157.275,17.285 Z M161.095,0.562 L160.345,-3.305 L158.900,-3.305 L161.235,8.717 Q161.930,12.280 165.260,12.280 Q168.635,12.280 168.063,9.273 Q167.673,7.133 166.150,6.350 Q168.198,5.647 167.798,3.562 Q167.095,-0.150 163.313,-0.143 Q161.658,-0.135 161.095,0.562 Z M161.463,2.438 Q162.063,1.078 163.603,1.085 Q165.853,1.085 166.330,3.538 Q166.760,5.742 163.103,5.570 L163.360,6.897 Q166.188,6.850 166.680,9.398 Q167.018,11.117 165.188,11.107 Q163.143,11.107 162.673,8.670 L161.463,2.438 Z M174.086,12.162 Q173.041,10.367 172.531,8.607 Q172.024,6.850 172.024,5.045 Q172.024,3.243 172.536,1.472 Q173.049,-0.297 174.086,-2.087 L172.836,-2.087 Q171.666,-0.250 171.084,1.522 Q170.501,3.295 170.501,5.045 Q170.501,6.788 171.079,8.553 Q171.659,10.320 172.836,12.162 L174.086,12.162 Z M182.133,8.773 L181.916,7.655 L179.048,7.655 L178.118,2.905 Q178.071,2.640 178.048,2.460 Q178.026,2.280 178.026,2.180 Q178.026,1.680 178.326,1.453 Q178.626,1.225 179.291,1.225 L180.743,1.225 L180.501,0.022 L179.126,0.022 Q177.846,0.022 177.216,0.522 Q176.588,1.022 176.588,2.038 Q176.588,2.218 176.611,2.433 Q176.633,2.647 176.681,2.905 L177.611,7.655 L176.391,7.655 L176.618,8.773 L177.813,8.773 L178.298,11.258 L179.736,11.258 L179.258,8.773 L182.133,8.773 Z M182.924,12.162 L184.174,12.162 Q185.344,10.320 185.927,8.553 Q186.509,6.788 186.509,5.045 Q186.509,3.295 185.927,1.522 Q185.344,-0.250 184.174,-2.087 L182.924,-2.087 Q183.962,-0.297 184.474,1.472 Q184.987,3.243 184.987,5.045 Q184.987,6.850 184.474,8.607 Q183.962,10.367 182.924,12.162 Z M199.169,1.340 Q198.592,0.583 197.802,0.190 Q197.014,-0.200 196.052,-0.200 Q194.739,-0.200 193.977,0.695 Q193.217,1.590 193.217,3.145 Q193.217,4.442 193.677,5.617 Q194.139,6.793 195.014,7.723 Q195.592,8.340 196.317,8.662 Q197.044,8.988 197.842,8.988 Q198.684,8.988 199.329,8.580 Q199.974,8.175 200.327,7.418 L201.264,12.185 L202.709,12.185 L200.342,0.028 L198.897,0.028 L199.169,1.340 Z M194.709,3.402 Q194.709,2.270 195.219,1.637 Q195.732,1.005 196.639,1.005 Q197.309,1.005 197.884,1.328 Q198.459,1.653 198.897,2.285 Q199.357,2.942 199.622,3.800 Q199.889,4.660 199.889,5.498 Q199.889,6.583 199.377,7.190 Q198.864,7.800 197.967,7.800 Q197.287,7.800 196.699,7.480 Q196.114,7.160 195.702,6.560 Q195.247,5.910 194.977,5.050 Q194.709,4.192 194.709,3.402 Z M203.998,8.777 L205.420,8.777 L205.785,1.738 L209.053,8.777 L210.715,8.777 L211.200,1.738 L214.303,8.777 L215.740,8.777 L211.740,0.028 L210.060,0.028 L209.630,7.277 L206.285,0.028 L204.590,0.028 L203.998,8.777 Z M58.906,3.035 L58.906,4.035 L66.032,4.035 L66.032,3.035 L58.906,3.035 Z M156.915,16.240 L156.915,17.240 L189.884,17.240 L189.884,16.240 L156.915,16.240 Z" fill="#0f172a"/></g><rect x="466" y="116" width="348" height="300" rx="18" fill="#ecfdf5" stroke="#86efac" stroke-width="2"/>
  <text x="640" y="150" text-anchor="middle" class="label">VE-SDE</text>
  <text x="640" y="178" text-anchor="middle" class="small">信号均值不主动衰减，噪声尺度快速增大</text>
  <line x1="512" y1="354" x2="768" y2="354" stroke="#334155" stroke-width="2" marker-end="url(#axisArrow)"/>
  <line x1="512" y1="354" x2="512" y2="214" stroke="#334155" stroke-width="2" marker-end="url(#axisArrow)"/>
  <text x="778" y="360" class="small">t</text>
  <text x="490" y="208" class="small">强度</text>
  <path d="M 520 260 C 590 260, 660 260, 759 260" fill="none" stroke="#2563eb" stroke-width="4"/>
  <path d="M 520 342 C 590 336, 678 306, 759 222" fill="none" stroke="#f97316" stroke-width="4"/>
  <circle cx="542" cy="260" r="5" fill="#2563eb"/>
  <circle cx="542" cy="340" r="5" fill="#f97316"/>
  <text x="570" y="262" class="small" fill="#2563eb">信号均值保持</text>
  <text x="570" y="340" class="small" fill="#f97316">噪声尺度放大</text>
  <g data-formula="$dx=\sqrt{\frac{d\sigma^2(t)}{dt}}\,dw$" transform="translate(578.849 390.000) scale(1 -1)"><path d="M6.688,1.404 Q6.110,0.647 5.320,0.254 Q4.532,-0.136 3.570,-0.136 Q2.257,-0.136 1.495,0.759 Q0.735,1.654 0.735,3.209 Q0.735,4.507 1.195,5.682 Q1.657,6.857 2.533,7.787 Q3.110,8.404 3.835,8.727 Q4.562,9.052 5.360,9.052 Q6.203,9.052 6.848,8.644 Q7.492,8.239 7.845,7.482 L8.783,12.249 L10.228,12.249 L7.860,0.092 L6.415,0.092 L6.688,1.404 Z M2.228,3.467 Q2.228,2.334 2.738,1.702 Q3.250,1.069 4.157,1.069 Q4.827,1.069 5.402,1.392 Q5.978,1.717 6.415,2.349 Q6.875,3.007 7.140,3.864 Q7.407,4.724 7.407,5.562 Q7.407,6.647 6.895,7.254 Q6.383,7.864 5.485,7.864 Q4.805,7.864 4.218,7.544 Q3.633,7.224 3.220,6.624 Q2.765,5.974 2.495,5.114 Q2.228,4.257 2.228,3.467 Z M19.759,8.842 L15.741,4.552 L18.204,0.092 L16.554,0.092 L14.704,3.562 L11.484,0.092 L9.741,0.092 L14.046,4.702 L11.759,8.842 L13.406,8.842 L15.086,5.677 L18.016,8.842 L19.759,8.842 Z M24.437,7.357 L34.452,7.357 L34.452,6.044 L24.437,6.044 L24.437,7.357 Z M24.437,4.169 L34.452,4.169 L34.452,2.842 L24.437,2.842 L24.437,4.169 Z M57.104,23.683 L47.898,-6.569 L47.209,-6.569 L43.427,5.730 Q43.245,6.322 43.015,6.583 Q42.787,6.846 42.411,6.846 Q41.853,6.846 41.298,6.403 L41.101,6.731 L43.785,8.794 L44.195,8.794 L47.913,-3.278 L47.980,-3.278 L56.169,23.683 L57.104,23.683 Z M63.258,9.492 Q62.854,8.962 62.301,8.688 Q61.749,8.415 61.076,8.415 Q60.157,8.415 59.623,9.041 Q59.091,9.668 59.091,10.756 Q59.091,11.664 59.413,12.487 Q59.737,13.309 60.349,13.960 Q60.754,14.393 61.261,14.618 Q61.770,14.846 62.329,14.846 Q62.918,14.846 63.370,14.560 Q63.821,14.277 64.068,13.747 L64.724,17.084 L65.736,17.084 L64.079,8.574 L63.067,8.574 L63.258,9.492 Z M60.136,10.936 Q60.136,10.144 60.493,9.701 Q60.852,9.258 61.487,9.258 Q61.956,9.258 62.358,9.484 Q62.761,9.711 63.067,10.154 Q63.389,10.614 63.575,11.215 Q63.762,11.817 63.762,12.403 Q63.762,13.162 63.403,13.588 Q63.044,14.014 62.416,14.014 Q61.940,14.014 61.529,13.790 Q61.119,13.567 60.831,13.147 Q60.512,12.692 60.323,12.090 Q60.136,11.489 60.136,10.936 Z M69.569,13.901 Q68.738,13.901 68.175,13.299 Q67.578,12.671 67.382,11.631 Q67.163,10.532 67.513,9.897 Q67.858,9.269 68.672,9.269 Q69.477,9.269 70.066,9.902 Q70.663,10.537 70.877,11.631 Q71.067,12.632 70.728,13.299 Q70.411,13.901 69.569,13.901 Z M69.727,14.704 L73.069,14.699 L72.872,13.693 L71.746,13.693 Q72.172,12.840 71.942,11.631 Q71.647,10.128 70.733,9.274 Q69.814,8.415 68.502,8.415 Q67.184,8.415 66.605,9.274 Q66.026,10.128 66.321,11.631 Q66.610,13.139 67.524,13.993 Q68.283,14.704 69.727,14.704 Z M74.790,13.512 L77.488,13.512 L77.488,12.861 L73.860,12.861 L73.860,13.512 Q74.300,13.967 75.059,14.734 Q75.820,15.502 76.015,15.725 Q76.386,16.142 76.533,16.431 Q76.681,16.720 76.681,16.999 Q76.681,17.455 76.361,17.742 Q76.042,18.030 75.528,18.030 Q75.165,18.030 74.760,17.903 Q74.357,17.777 73.898,17.520 L73.898,18.301 Q74.365,18.489 74.770,18.584 Q75.177,18.680 75.514,18.680 Q76.402,18.680 76.930,18.235 Q77.458,17.792 77.458,17.050 Q77.458,16.697 77.325,16.381 Q77.194,16.066 76.845,15.637 Q76.750,15.526 76.236,14.995 Q75.724,14.465 74.790,13.512 Z M82.052,17.072 Q81.320,15.815 80.963,14.583 Q80.608,13.353 80.608,12.090 Q80.608,10.828 80.967,9.589 Q81.325,8.350 82.052,7.097 L81.177,7.097 Q80.358,8.383 79.950,9.624 Q79.542,10.865 79.542,12.090 Q79.542,13.309 79.946,14.545 Q80.352,15.782 81.177,17.072 L82.052,17.072 Z M87.685,14.699 L87.532,13.917 L85.525,13.917 L84.874,10.592 Q84.841,10.406 84.825,10.280 Q84.809,10.154 84.809,10.084 Q84.809,9.734 85.019,9.575 Q85.229,9.415 85.695,9.415 L86.712,9.415 L86.542,8.574 L85.579,8.574 Q84.683,8.574 84.242,8.924 Q83.803,9.274 83.803,9.984 Q83.803,10.110 83.819,10.261 Q83.835,10.411 83.868,10.592 L84.519,13.917 L83.665,13.917 L83.824,14.699 L84.661,14.699 L85.000,16.438 L86.006,16.438 L85.672,14.699 L87.685,14.699 Z M88.238,17.072 L89.113,17.072 Q89.932,15.782 90.340,14.545 Q90.748,13.309 90.748,12.090 Q90.748,10.865 90.340,9.624 Q89.932,8.383 89.113,7.097 L88.238,7.097 Q88.965,8.350 89.323,9.589 Q89.682,10.828 89.682,12.090 Q89.682,13.353 89.323,14.583 Q88.965,15.815 88.238,17.072 Z M74.138,-5.495 Q73.734,-6.025 73.181,-6.300 Q72.629,-6.573 71.956,-6.573 Q71.037,-6.573 70.503,-5.946 Q69.971,-5.320 69.971,-4.231 Q69.971,-3.323 70.293,-2.500 Q70.617,-1.678 71.229,-1.027 Q71.634,-0.595 72.141,-0.369 Q72.650,-0.141 73.209,-0.141 Q73.798,-0.141 74.250,-0.427 Q74.701,-0.710 74.948,-1.240 L75.604,2.097 L76.616,2.097 L74.959,-6.413 L73.947,-6.413 L74.138,-5.495 Z M71.016,-4.051 Q71.016,-4.844 71.373,-5.286 Q71.732,-5.729 72.367,-5.729 Q72.836,-5.729 73.238,-5.503 Q73.641,-5.276 73.947,-4.833 Q74.269,-4.373 74.455,-3.773 Q74.642,-3.171 74.642,-2.584 Q74.642,-1.825 74.283,-1.400 Q73.924,-0.973 73.296,-0.973 Q72.820,-0.973 72.409,-1.197 Q71.999,-1.421 71.711,-1.841 Q71.392,-2.296 71.203,-2.898 Q71.016,-3.498 71.016,-4.051 Z M81.302,-0.288 L81.149,-1.071 L79.142,-1.071 L78.491,-4.396 Q78.458,-4.581 78.442,-4.707 Q78.426,-4.833 78.426,-4.903 Q78.426,-5.253 78.636,-5.412 Q78.846,-5.572 79.312,-5.572 L80.329,-5.572 L80.159,-6.413 L79.196,-6.413 Q78.300,-6.413 77.859,-6.063 Q77.420,-5.713 77.420,-5.003 Q77.420,-4.877 77.436,-4.726 Q77.452,-4.576 77.485,-4.396 L78.136,-1.071 L77.282,-1.071 L77.441,-0.288 L78.278,-0.288 L78.617,1.451 L79.623,1.451 L79.289,-0.288 L81.302,-0.288 Z M104.995,1.404 Q104.418,0.647 103.628,0.254 Q102.840,-0.136 101.878,-0.136 Q100.565,-0.136 99.803,0.759 Q99.043,1.654 99.043,3.209 Q99.043,4.507 99.503,5.682 Q99.965,6.857 100.840,7.787 Q101.418,8.404 102.143,8.727 Q102.870,9.052 103.668,9.052 Q104.510,9.052 105.155,8.644 Q105.800,8.239 106.153,7.482 L107.090,12.249 L108.535,12.249 L106.168,0.092 L104.723,0.092 L104.995,1.404 Z M100.535,3.467 Q100.535,2.334 101.045,1.702 Q101.558,1.069 102.465,1.069 Q103.135,1.069 103.710,1.392 Q104.285,1.717 104.723,2.349 Q105.183,3.007 105.448,3.864 Q105.715,4.724 105.715,5.562 Q105.715,6.647 105.203,7.254 Q104.690,7.864 103.793,7.864 Q103.113,7.864 102.525,7.544 Q101.940,7.224 101.528,6.624 Q101.073,5.974 100.803,5.114 Q100.535,4.257 100.535,3.467 Z M109.824,8.842 L111.247,8.842 L111.612,1.802 L114.879,8.842 L116.542,8.842 L117.027,1.802 L120.129,8.842 L121.567,8.842 L117.567,0.092 L115.887,0.092 L115.457,7.342 L112.112,0.092 L110.417,0.092 L109.824,8.842 Z M56.577,22.640 L56.577,23.640 L95.710,23.640 L95.710,22.640 L56.577,22.640 Z M58.577,3.097 L58.577,4.097 L91.710,4.097 L91.710,3.097 L58.577,3.097 Z" fill="#0f172a"/></g><rect x="860" y="116" width="348" height="300" rx="18" fill="#fff7ed" stroke="#fdba74" stroke-width="2"/>
  <text x="1034" y="150" text-anchor="middle" class="label">sub-VP SDE</text>
  <text x="1034" y="178" text-anchor="middle" class="small">VP 的连续时间变体，扩散强度重新设计</text>
  <line x1="906" y1="354" x2="1162" y2="354" stroke="#334155" stroke-width="2" marker-end="url(#axisArrow)"/>
  <line x1="906" y1="354" x2="906" y2="214" stroke="#334155" stroke-width="2" marker-end="url(#axisArrow)"/>
  <text x="1172" y="360" class="small">t</text>
  <text x="884" y="208" class="small">强度</text>
  <path d="M 914 226 C 984 250, 1062 292, 1153 338" fill="none" stroke="#2563eb" stroke-width="4"/>
  <path d="M 914 342 C 988 332, 1076 296, 1153 246" fill="none" stroke="#f97316" stroke-width="4"/>
  <path d="M 914 338 C 988 318, 1072 270, 1153 226" fill="none" stroke="#f97316" stroke-width="2" stroke-dasharray="8 6" opacity="0.55"/>
  <circle cx="936" cy="232" r="5" fill="#2563eb"/>
  <circle cx="936" cy="340" r="5" fill="#f97316"/>
  <text x="964" y="234" class="small" fill="#2563eb">信号衰减</text>
  <text x="964" y="340" class="small" fill="#f97316">扩散弱于 VP</text>
  <g data-formula="$dx=-\frac{1}{2}\beta(t)x\,dt+g_{sub}(t)\,dw$" transform="translate(923.438 390.000) scale(1 -1)"><path d="M6.688,1.339 Q6.110,0.582 5.320,0.189 Q4.532,-0.201 3.570,-0.201 Q2.257,-0.201 1.495,0.694 Q0.735,1.589 0.735,3.144 Q0.735,4.442 1.195,5.617 Q1.657,6.792 2.533,7.722 Q3.110,8.339 3.835,8.662 Q4.562,8.987 5.360,8.987 Q6.203,8.987 6.848,8.579 Q7.492,8.174 7.845,7.417 L8.783,12.184 L10.228,12.184 L7.860,0.027 L6.415,0.027 L6.688,1.339 Z M2.228,3.402 Q2.228,2.269 2.738,1.637 Q3.250,1.004 4.157,1.004 Q4.827,1.004 5.402,1.327 Q5.978,1.652 6.415,2.284 Q6.875,2.942 7.140,3.799 Q7.407,4.659 7.407,5.497 Q7.407,6.582 6.895,7.189 Q6.383,7.799 5.485,7.799 Q4.805,7.799 4.218,7.479 Q3.633,7.159 3.220,6.559 Q2.765,5.909 2.495,5.049 Q2.228,4.192 2.228,3.402 Z M19.759,8.777 L15.741,4.487 L18.204,0.027 L16.554,0.027 L14.704,3.497 L11.484,0.027 L9.741,0.027 L14.046,4.637 L11.759,8.777 L13.406,8.777 L15.086,5.612 L18.016,8.777 L19.759,8.777 Z M24.437,7.292 L34.452,7.292 L34.452,5.979 L24.437,5.979 L24.437,7.292 Z M24.437,4.104 L34.452,4.104 L34.452,2.777 L24.437,2.777 L24.437,4.104 Z M44.078,5.707 L54.093,5.707 L54.093,4.379 L44.078,4.379 L44.078,5.707 Z M60.296,7.964 L62.100,7.964 L62.100,14.194 L60.136,13.800 L60.136,14.806 L62.090,15.200 L63.194,15.200 L63.194,7.964 L64.998,7.964 L64.998,7.035 L60.296,7.035 L60.296,7.964 Z M61.055,-5.349 L64.910,-5.349 L64.910,-6.278 L59.727,-6.278 L59.727,-5.349 Q60.355,-4.698 61.440,-3.602 Q62.527,-2.505 62.805,-2.187 Q63.336,-1.592 63.546,-1.179 Q63.757,-0.766 63.757,-0.367 Q63.757,0.284 63.301,0.694 Q62.844,1.105 62.111,1.105 Q61.591,1.105 61.013,0.925 Q60.438,0.745 59.781,0.377 L59.781,1.494 Q60.448,1.761 61.027,1.898 Q61.608,2.034 62.090,2.034 Q63.358,2.034 64.112,1.399 Q64.867,0.766 64.867,-0.295 Q64.867,-0.799 64.678,-1.250 Q64.490,-1.700 63.992,-2.313 Q63.855,-2.472 63.122,-3.230 Q62.391,-3.987 61.055,-5.349 Z M70.212,0.567 L69.462,-3.301 L68.017,-3.301 L70.352,8.722 Q71.047,12.284 74.377,12.284 Q77.752,12.284 77.180,9.277 Q76.790,7.137 75.267,6.354 Q77.315,5.652 76.915,3.567 Q76.212,-0.146 72.430,-0.138 Q70.775,-0.131 70.212,0.567 Z M70.580,2.442 Q71.180,1.082 72.720,1.089 Q74.970,1.089 75.447,3.542 Q75.877,5.747 72.220,5.574 L72.477,6.902 Q75.305,6.854 75.797,9.402 Q76.135,11.122 74.305,11.112 Q72.260,11.112 71.790,8.674 L70.580,2.442 Z M83.203,12.167 Q82.158,10.372 81.648,8.612 Q81.140,6.854 81.140,5.049 Q81.140,3.247 81.653,1.477 Q82.165,-0.293 83.203,-2.083 L81.953,-2.083 Q80.783,-0.246 80.200,1.527 Q79.618,3.299 79.618,5.049 Q79.618,6.792 80.195,8.557 Q80.775,10.324 81.953,12.167 L83.203,12.167 Z M91.250,8.777 L91.033,7.659 L88.165,7.659 L87.235,2.909 Q87.188,2.644 87.165,2.464 Q87.143,2.284 87.143,2.184 Q87.143,1.684 87.443,1.457 Q87.743,1.229 88.408,1.229 L89.860,1.229 L89.618,0.027 L88.243,0.027 Q86.963,0.027 86.333,0.527 Q85.705,1.027 85.705,2.042 Q85.705,2.222 85.728,2.437 Q85.750,2.652 85.798,2.909 L86.728,7.659 L85.508,7.659 L85.735,8.777 L86.930,8.777 L87.415,11.262 L88.853,11.262 L88.375,8.777 L91.250,8.777 Z M92.041,12.167 L93.291,12.167 Q94.461,10.324 95.044,8.557 Q95.626,6.792 95.626,5.049 Q95.626,3.299 95.044,1.527 Q94.461,-0.246 93.291,-2.083 L92.041,-2.083 Q93.079,-0.293 93.591,1.477 Q94.104,3.247 94.104,5.049 Q94.104,6.854 93.591,8.612 Q93.079,10.372 92.041,12.167 Z M106.603,8.777 L102.586,4.487 L105.048,0.027 L103.398,0.027 L101.548,3.497 L98.328,0.027 L96.586,0.027 L100.891,4.637 L98.603,8.777 L100.251,8.777 L101.931,5.612 L104.861,8.777 L106.603,8.777 Z M115.755,1.339 Q115.177,0.582 114.387,0.189 Q113.600,-0.201 112.637,-0.201 Q111.325,-0.201 110.562,0.694 Q109.802,1.589 109.802,3.144 Q109.802,4.442 110.262,5.617 Q110.725,6.792 111.600,7.722 Q112.177,8.339 112.902,8.662 Q113.630,8.987 114.427,8.987 Q115.270,8.987 115.915,8.579 Q116.560,8.174 116.912,7.417 L117.850,12.184 L119.295,12.184 L116.927,0.027 L115.482,0.027 L115.755,1.339 Z M111.295,3.402 Q111.295,2.269 111.805,1.637 Q112.317,1.004 113.225,1.004 Q113.895,1.004 114.470,1.327 Q115.045,1.652 115.482,2.284 Q115.942,2.942 116.207,3.799 Q116.475,4.659 116.475,5.497 Q116.475,6.582 115.962,7.189 Q115.450,7.799 114.552,7.799 Q113.872,7.799 113.285,7.479 Q112.700,7.159 112.287,6.559 Q111.832,5.909 111.562,5.049 Q111.295,4.192 111.295,3.402 Z M125.988,8.777 L125.771,7.659 L122.903,7.659 L121.973,2.909 Q121.926,2.644 121.903,2.464 Q121.881,2.284 121.881,2.184 Q121.881,1.684 122.181,1.457 Q122.481,1.229 123.146,1.229 L124.598,1.229 L124.356,0.027 L122.981,0.027 Q121.701,0.027 121.071,0.527 Q120.443,1.027 120.443,2.042 Q120.443,2.222 120.466,2.437 Q120.488,2.652 120.536,2.909 L121.466,7.659 L120.246,7.659 L120.473,8.777 L121.668,8.777 L122.153,11.262 L123.591,11.262 L123.113,8.777 L125.988,8.777 Z M135.974,10.059 L135.974,5.707 L140.324,5.707 L140.324,4.379 L135.974,4.379 L135.974,0.027 L134.662,0.027 L134.662,4.379 L130.309,4.379 L130.309,5.707 L134.662,5.707 L134.662,10.059 L135.974,10.059 Z M154.678,8.777 L153.185,1.112 Q152.755,-1.113 151.540,-2.206 Q150.325,-3.301 148.270,-3.301 Q147.513,-3.301 146.863,-3.188 Q146.215,-3.076 145.653,-2.841 L145.920,-1.443 Q146.450,-1.786 147.043,-1.948 Q147.638,-2.113 148.310,-2.113 Q149.678,-2.113 150.555,-1.366 Q151.435,-0.621 151.715,0.777 L151.840,1.434 Q151.240,0.747 150.443,0.387 Q149.645,0.027 148.723,0.027 Q147.395,0.027 146.633,0.904 Q145.873,1.784 145.873,3.324 Q145.873,4.534 146.333,5.694 Q146.795,6.854 147.630,7.754 Q148.185,8.347 148.923,8.667 Q149.660,8.987 150.465,8.987 Q151.348,8.987 152.003,8.577 Q152.660,8.167 152.983,7.417 L153.233,8.777 L154.678,8.777 Z M152.513,5.567 Q152.513,6.629 152.013,7.207 Q151.513,7.784 150.590,7.784 Q150.020,7.784 149.505,7.557 Q148.990,7.332 148.623,6.924 Q148.028,6.254 147.695,5.344 Q147.365,4.434 147.365,3.464 Q147.365,2.387 147.868,1.807 Q148.373,1.229 149.318,1.229 Q150.685,1.229 151.598,2.467 Q152.513,3.707 152.513,5.567 Z M160.894,3.347 L160.703,2.395 Q160.304,2.613 159.860,2.722 Q159.417,2.832 158.948,2.832 Q158.153,2.832 157.697,2.561 Q157.242,2.291 157.242,1.826 Q157.242,1.285 158.302,0.995 Q158.384,0.974 158.423,0.961 L158.745,0.863 Q159.751,0.585 160.087,0.279 Q160.423,-0.027 160.423,-0.558 Q160.423,-1.532 159.650,-2.145 Q158.876,-2.757 157.623,-2.757 Q157.137,-2.757 156.601,-2.663 Q156.066,-2.570 155.420,-2.374 L155.616,-1.335 Q156.169,-1.620 156.704,-1.767 Q157.242,-1.914 157.733,-1.914 Q158.472,-1.914 158.934,-1.597 Q159.396,-1.280 159.396,-0.794 Q159.396,-0.269 158.181,0.055 L158.078,0.081 L157.733,0.169 Q156.967,0.372 156.612,0.702 Q156.256,1.033 156.256,1.548 Q156.256,2.526 156.991,3.100 Q157.728,3.674 158.992,3.674 Q159.489,3.674 159.961,3.592 Q160.435,3.511 160.894,3.347 Z M161.878,-0.169 L162.595,3.527 L163.607,3.527 L162.889,-0.132 Q162.835,-0.400 162.811,-0.591 Q162.786,-0.782 162.786,-0.908 Q162.786,-1.373 163.070,-1.629 Q163.355,-1.882 163.875,-1.882 Q164.683,-1.882 165.273,-1.336 Q165.864,-0.789 166.045,0.137 L166.718,3.527 L167.725,3.527 L166.538,-2.598 L165.532,-2.598 L165.733,-1.636 Q165.308,-2.171 164.720,-2.465 Q164.132,-2.757 163.470,-2.757 Q162.665,-2.757 162.217,-2.316 Q161.769,-1.875 161.769,-1.088 Q161.769,-0.925 161.796,-0.678 Q161.824,-0.432 161.878,-0.169 Z M173.773,1.143 Q173.773,1.936 173.409,2.384 Q173.045,2.832 172.406,2.832 Q171.941,2.832 171.533,2.605 Q171.125,2.379 170.824,1.947 Q170.508,1.493 170.324,0.893 Q170.142,0.295 170.142,-0.300 Q170.142,-1.056 170.499,-1.485 Q170.858,-1.914 171.488,-1.914 Q171.962,-1.914 172.366,-1.693 Q172.772,-1.471 173.078,-1.039 Q173.390,-0.591 173.581,0.004 Q173.773,0.601 173.773,1.143 Z M170.644,2.598 Q171.017,3.100 171.577,3.387 Q172.137,3.674 172.749,3.674 Q173.691,3.674 174.246,3.039 Q174.800,2.405 174.800,1.324 Q174.800,0.436 174.475,-0.395 Q174.149,-1.226 173.549,-1.870 Q173.155,-2.297 172.641,-2.528 Q172.126,-2.757 171.563,-2.757 Q170.968,-2.757 170.530,-2.484 Q170.093,-2.210 169.818,-1.669 L169.638,-2.598 L168.632,-2.598 L170.289,5.912 L171.295,5.912 L170.644,2.598 Z M180.734,12.167 Q179.689,10.372 179.179,8.612 Q178.672,6.854 178.672,5.049 Q178.672,3.247 179.184,1.477 Q179.697,-0.293 180.734,-2.083 L179.484,-2.083 Q178.314,-0.246 177.732,1.527 Q177.149,3.299 177.149,5.049 Q177.149,6.792 177.727,8.557 Q178.307,10.324 179.484,12.167 L180.734,12.167 Z M188.781,8.777 L188.564,7.659 L185.696,7.659 L184.766,2.909 Q184.719,2.644 184.696,2.464 Q184.674,2.284 184.674,2.184 Q184.674,1.684 184.974,1.457 Q185.274,1.229 185.939,1.229 L187.391,1.229 L187.149,0.027 L185.774,0.027 Q184.494,0.027 183.864,0.527 Q183.236,1.027 183.236,2.042 Q183.236,2.222 183.259,2.437 Q183.281,2.652 183.329,2.909 L184.259,7.659 L183.039,7.659 L183.266,8.777 L184.461,8.777 L184.946,11.262 L186.384,11.262 L185.906,8.777 L188.781,8.777 Z M189.572,12.167 L190.822,12.167 Q191.992,10.324 192.575,8.557 Q193.157,6.792 193.157,5.049 Q193.157,3.299 192.575,1.527 Q191.992,-0.246 190.822,-2.083 L189.572,-2.083 Q190.610,-0.293 191.122,1.477 Q191.635,3.247 191.635,5.049 Q191.635,6.854 191.122,8.612 Q190.610,10.372 189.572,12.167 Z M203.817,1.339 Q203.240,0.582 202.450,0.189 Q201.662,-0.201 200.700,-0.201 Q199.387,-0.201 198.625,0.694 Q197.865,1.589 197.865,3.144 Q197.865,4.442 198.325,5.617 Q198.787,6.792 199.662,7.722 Q200.240,8.339 200.965,8.662 Q201.692,8.987 202.490,8.987 Q203.332,8.987 203.977,8.579 Q204.622,8.174 204.975,7.417 L205.912,12.184 L207.357,12.184 L204.990,0.027 L203.545,0.027 L203.817,1.339 Z M199.357,3.402 Q199.357,2.269 199.867,1.637 Q200.380,1.004 201.287,1.004 Q201.957,1.004 202.532,1.327 Q203.107,1.652 203.545,2.284 Q204.005,2.942 204.270,3.799 Q204.537,4.659 204.537,5.497 Q204.537,6.582 204.025,7.189 Q203.512,7.799 202.615,7.799 Q201.935,7.799 201.347,7.479 Q200.762,7.159 200.350,6.559 Q199.895,5.909 199.625,5.049 Q199.357,4.192 199.357,3.402 Z M208.646,8.777 L210.069,8.777 L210.434,1.737 L213.701,8.777 L215.364,8.777 L215.849,1.737 L218.951,8.777 L220.389,8.777 L216.389,0.027 L214.709,0.027 L214.279,7.277 L210.934,0.027 L209.239,0.027 L208.646,8.777 Z M58.906,3.035 L58.906,4.035 L66.032,4.035 L66.032,3.035 L58.906,3.035 Z" fill="#0f172a"/></g><rect x="125" y="494" width="1030" height="118" rx="18" fill="#0f172a"/>
  <text x="640" y="532" text-anchor="middle" style="font:700 21px 'PingFang SC','Microsoft YaHei','Noto Sans CJK SC',Arial,sans-serif; fill:#ffffff;">读图方式</text>
  <text x="640" y="566" text-anchor="middle" style="font:500 16px 'PingFang SC','Microsoft YaHei','Noto Sans CJK SC',Arial,sans-serif; fill:#cbd5e1;">VP 更像 DDPM 的连续极限；VE 更像多尺度噪声扰动；sub-VP 更常用于连续时间似然和理论分析</text>
  <text x="640" y="594" text-anchor="middle" style="font:500 16px 'PingFang SC','Microsoft YaHei','Noto Sans CJK SC',Arial,sans-serif; fill:#cbd5e1;">选择哪一类 SDE，本质是在“噪声尺度、数值求解、似然估计、工程稳定性”之间做取舍</text>
</svg>
