<svg xmlns="http://www.w3.org/2000/svg" width="1280" height="720" viewBox="0 0 1280 720">
  <defs>
    <marker id="arrowBlue" viewBox="0 0 10 10" refX="9" refY="5" markerWidth="8" markerHeight="8" orient="auto">
      <path d="M 0 0 L 10 5 L 0 10 z" fill="#2563eb"/>
    </marker>
    <marker id="arrowGreen" viewBox="0 0 10 10" refX="9" refY="5" markerWidth="8" markerHeight="8" orient="auto">
      <path d="M 0 0 L 10 5 L 0 10 z" fill="#16a34a"/>
    </marker>
    <style>
      .title { font: 700 30px "PingFang SC","Microsoft YaHei","Noto Sans CJK SC",Arial,sans-serif; fill: #0f172a; }
      .subtitle { font: 500 16px "PingFang SC","Microsoft YaHei","Noto Sans CJK SC",Arial,sans-serif; fill: #475569; }
      .label { font: 700 18px "PingFang SC","Microsoft YaHei","Noto Sans CJK SC",Arial,sans-serif; fill: #0f172a; }
      .body { font: 500 15px "PingFang SC","Microsoft YaHei","Noto Sans CJK SC",Arial,sans-serif; fill: #334155; }
      .small { font: 500 13px "PingFang SC","Microsoft YaHei","Noto Sans CJK SC",Arial,sans-serif; fill: #475569; }
      .code { font: 600 15px "Arial Unicode MS","STIXGeneral","Times New Roman","PingFang SC",serif; fill: #111827; }
    </style>
  </defs>

  <rect width="1280" height="720" fill="#ffffff"/>

  <text x="640" y="46" text-anchor="middle" class="title">SDE 框架如何统一 DDPM 与 Score-Based Model</text>
  <text x="640" y="76" text-anchor="middle" class="subtitle">正向过程由人工设计，反向生成只需要学习同一个核心量：Score 函数</text>

  <rect x="70" y="132" width="220" height="120" rx="18" fill="#ecfdf5" stroke="#86efac" stroke-width="2"/>
  <text x="180" y="168" text-anchor="middle" class="label">数据分布</text>
  <g data-formula="$p_0(x)$" transform="translate(160.875 200.000) scale(1 -1)"><path d="M7.938,5.410 Q7.938,6.560 7.438,7.168 Q6.938,7.777 6.000,7.777 Q5.360,7.777 4.777,7.450 Q4.195,7.123 3.743,6.498 Q3.297,5.880 3.030,5.005 Q2.765,4.130 2.765,3.270 Q2.765,2.178 3.265,1.588 Q3.765,0.998 4.688,0.998 Q5.367,0.998 5.950,1.318 Q6.532,1.637 6.945,2.248 Q7.390,2.888 7.663,3.755 Q7.938,4.623 7.938,5.410 Z M3.485,7.442 Q4.062,8.200 4.848,8.590 Q5.633,8.980 6.595,8.980 Q7.938,8.980 8.680,8.100 Q9.422,7.223 9.422,5.638 Q9.422,4.340 8.960,3.165 Q8.500,1.990 7.633,1.060 Q7.055,0.443 6.328,0.118 Q5.603,-0.208 4.798,-0.208 Q3.868,-0.208 3.235,0.180 Q2.603,0.568 2.290,1.333 L1.390,-3.308 L-0.048,-3.308 L2.305,8.770 L3.743,8.770 L3.485,7.442 Z M13.716,4.833 Q12.864,4.833 12.433,3.993 Q12.004,3.154 12.004,1.469 Q12.004,-0.209 12.433,-1.049 Q12.864,-1.889 13.716,-1.889 Q14.575,-1.889 15.004,-1.049 Q15.434,-0.209 15.434,1.469 Q15.434,3.154 15.004,3.993 Q14.575,4.833 13.716,4.833 Z M13.716,5.708 Q15.090,5.708 15.814,4.621 Q16.538,3.536 16.538,1.469 Q16.538,-0.593 15.814,-1.679 Q15.090,-2.764 13.716,-2.764 Q12.344,-2.764 11.619,-1.679 Q10.895,-0.593 10.895,1.469 Q10.895,3.536 11.619,4.621 Q12.344,5.708 13.716,5.708 Z M22.680,12.160 Q21.635,10.365 21.125,8.605 Q20.617,6.848 20.617,5.043 Q20.617,3.240 21.130,1.470 Q21.642,-0.300 22.680,-2.090 L21.430,-2.090 Q20.260,-0.253 19.677,1.520 Q19.095,3.292 19.095,5.043 Q19.095,6.785 19.672,8.550 Q20.252,10.318 21.430,12.160 L22.680,12.160 Z M33.564,8.770 L29.547,4.480 L32.009,0.020 L30.359,0.020 L28.509,3.490 L25.289,0.020 L23.547,0.020 L27.852,4.630 L25.564,8.770 L27.212,8.770 L28.892,5.605 L31.822,8.770 L33.564,8.770 Z M34.713,12.160 L35.963,12.160 Q37.133,10.318 37.715,8.550 Q38.298,6.785 38.298,5.043 Q38.298,3.292 37.715,1.520 Q37.133,-0.253 35.963,-2.090 L34.713,-2.090 Q35.750,-0.300 36.263,1.470 Q36.775,3.240 36.775,5.043 Q36.775,6.848 36.263,8.605 Q35.750,10.365 34.713,12.160 Z" fill="#0f172a"/></g><text x="180" y="226" text-anchor="middle" class="small">真实图像 / 训练样本</text>

  <rect x="990" y="132" width="220" height="120" rx="18" fill="#eff6ff" stroke="#93c5fd" stroke-width="2"/>
  <text x="1100" y="168" text-anchor="middle" class="label">简单先验</text>
  <g data-formula="$p_T(x)$" transform="translate(1081.017 200.000) scale(1 -1)"><path d="M7.938,5.410 Q7.938,6.560 7.438,7.168 Q6.938,7.777 6.000,7.777 Q5.360,7.777 4.777,7.450 Q4.195,7.123 3.743,6.498 Q3.297,5.880 3.030,5.005 Q2.765,4.130 2.765,3.270 Q2.765,2.178 3.265,1.588 Q3.765,0.998 4.688,0.998 Q5.367,0.998 5.950,1.318 Q6.532,1.637 6.945,2.248 Q7.390,2.888 7.663,3.755 Q7.938,4.623 7.938,5.410 Z M3.485,7.442 Q4.062,8.200 4.848,8.590 Q5.633,8.980 6.595,8.980 Q7.938,8.980 8.680,8.100 Q9.422,7.223 9.422,5.638 Q9.422,4.340 8.960,3.165 Q8.500,1.990 7.633,1.060 Q7.055,0.443 6.328,0.118 Q5.603,-0.208 4.798,-0.208 Q3.868,-0.208 3.235,0.180 Q2.603,0.568 2.290,1.333 L1.390,-3.308 L-0.048,-3.308 L2.305,8.770 L3.743,8.770 L3.485,7.442 Z M10.818,5.560 L17.725,5.560 L17.550,4.629 L14.635,4.629 L13.235,-2.605 L12.125,-2.605 L13.525,4.629 L10.638,4.629 L10.818,5.560 Z M22.395,12.160 Q21.350,10.365 20.840,8.605 Q20.333,6.848 20.333,5.043 Q20.333,3.240 20.845,1.470 Q21.358,-0.300 22.395,-2.090 L21.145,-2.090 Q19.975,-0.253 19.393,1.520 Q18.810,3.292 18.810,5.043 Q18.810,6.785 19.388,8.550 Q19.968,10.318 21.145,12.160 L22.395,12.160 Z M33.280,8.770 L29.262,4.480 L31.725,0.020 L30.075,0.020 L28.225,3.490 L25.005,0.020 L23.262,0.020 L27.567,4.630 L25.280,8.770 L26.927,8.770 L28.607,5.605 L31.537,8.770 L33.280,8.770 Z M34.429,12.160 L35.679,12.160 Q36.849,10.318 37.431,8.550 Q38.014,6.785 38.014,5.043 Q38.014,3.292 37.431,1.520 Q36.849,-0.253 35.679,-2.090 L34.429,-2.090 Q35.466,-0.300 35.979,1.470 Q36.491,3.240 36.491,5.043 Q36.491,6.848 35.979,8.605 Q35.466,10.365 34.429,12.160 Z" fill="#0f172a"/></g><text x="1100" y="226" text-anchor="middle" class="small">高斯噪声分布</text>

  <path d="M 300 190 C 430 104, 850 104, 980 190" fill="none" stroke="#2563eb" stroke-width="4" marker-end="url(#arrowBlue)"/>
  <text x="640" y="130" text-anchor="middle" class="label">正向 SDE：数据逐渐加噪</text>
  <g data-formula="$dx=f(x,t)\,dt+g(t)\,dw$" transform="translate(552.249 158.000) scale(1 -1)"><path d="M6.688,1.315 Q6.110,0.557 5.320,0.165 Q4.532,-0.225 3.570,-0.225 Q2.257,-0.225 1.495,0.670 Q0.735,1.565 0.735,3.120 Q0.735,4.418 1.195,5.593 Q1.657,6.768 2.533,7.697 Q3.110,8.315 3.835,8.638 Q4.562,8.963 5.360,8.963 Q6.203,8.963 6.848,8.555 Q7.492,8.150 7.845,7.393 L8.783,12.160 L10.228,12.160 L7.860,0.003 L6.415,0.003 L6.688,1.315 Z M2.228,3.377 Q2.228,2.245 2.738,1.613 Q3.250,0.980 4.157,0.980 Q4.827,0.980 5.402,1.302 Q5.978,1.627 6.415,2.260 Q6.875,2.917 7.140,3.775 Q7.407,4.635 7.407,5.473 Q7.407,6.558 6.895,7.165 Q6.383,7.775 5.485,7.775 Q4.805,7.775 4.218,7.455 Q3.633,7.135 3.220,6.535 Q2.765,5.885 2.495,5.025 Q2.228,4.168 2.228,3.377 Z M19.759,8.752 L15.741,4.463 L18.204,0.003 L16.554,0.003 L14.704,3.473 L11.484,0.003 L9.741,0.003 L14.046,4.612 L11.759,8.752 L13.406,8.752 L15.086,5.588 L18.016,8.752 L19.759,8.752 Z M24.437,7.268 L34.452,7.268 L34.452,5.955 L24.437,5.955 L24.437,7.268 Z M24.437,4.080 L34.452,4.080 L34.452,2.752 L24.437,2.752 L24.437,4.080 Z M46.913,12.160 L46.688,10.963 L45.313,10.963 Q44.531,10.963 44.176,10.655 Q43.821,10.348 43.648,9.525 L43.493,8.752 L45.861,8.752 L45.648,7.635 L43.281,7.635 L41.798,0.003 L40.351,0.003 L41.843,7.635 L40.468,7.635 L40.673,8.752 L42.048,8.752 L42.163,9.363 Q42.461,10.910 43.206,11.535 Q43.953,12.160 45.556,12.160 L46.913,12.160 Z M49.858,12.143 Q48.813,10.348 48.303,8.588 Q47.796,6.830 47.796,5.025 Q47.796,3.223 48.308,1.453 Q48.821,-0.318 49.858,-2.107 L48.608,-2.107 Q47.438,-0.270 46.856,1.502 Q46.273,3.275 46.273,5.025 Q46.273,6.768 46.851,8.533 Q47.431,10.300 48.608,12.143 L49.858,12.143 Z M60.743,8.752 L56.726,4.463 L59.188,0.003 L57.538,0.003 L55.688,3.473 L52.468,0.003 L50.726,0.003 L55.031,4.612 L52.743,8.752 L54.391,8.752 L56.071,5.588 L59.001,8.752 L60.743,8.752 Z M62.484,1.988 L64.132,1.988 L64.132,0.642 L62.852,-1.857 L61.844,-1.857 L62.484,0.642 L62.484,1.988 Z M75.578,8.752 L75.360,7.635 L72.493,7.635 L71.562,2.885 Q71.515,2.620 71.493,2.440 Q71.470,2.260 71.470,2.160 Q71.470,1.660 71.770,1.433 Q72.070,1.205 72.735,1.205 L74.188,1.205 L73.945,0.003 L72.570,0.003 Q71.290,0.003 70.660,0.503 Q70.032,1.002 70.032,2.018 Q70.032,2.198 70.055,2.413 Q70.078,2.627 70.125,2.885 L71.055,7.635 L69.835,7.635 L70.062,8.752 L71.258,8.752 L71.743,11.238 L73.180,11.238 L72.703,8.752 L75.578,8.752 Z M76.368,12.143 L77.618,12.143 Q78.788,10.300 79.371,8.533 Q79.953,6.768 79.953,5.025 Q79.953,3.275 79.371,1.502 Q78.788,-0.270 77.618,-2.107 L76.368,-2.107 Q77.406,-0.318 77.918,1.453 Q78.431,3.223 78.431,5.025 Q78.431,6.830 77.918,8.588 Q77.406,10.348 76.368,12.143 Z M90.613,1.315 Q90.036,0.557 89.246,0.165 Q88.458,-0.225 87.496,-0.225 Q86.183,-0.225 85.421,0.670 Q84.661,1.565 84.661,3.120 Q84.661,4.418 85.121,5.593 Q85.583,6.768 86.458,7.697 Q87.036,8.315 87.761,8.638 Q88.488,8.963 89.286,8.963 Q90.128,8.963 90.773,8.555 Q91.418,8.150 91.771,7.393 L92.708,12.160 L94.153,12.160 L91.786,0.003 L90.341,0.003 L90.613,1.315 Z M86.153,3.377 Q86.153,2.245 86.663,1.613 Q87.176,0.980 88.083,0.980 Q88.753,0.980 89.328,1.302 Q89.903,1.627 90.341,2.260 Q90.801,2.917 91.066,3.775 Q91.333,4.635 91.333,5.473 Q91.333,6.558 90.821,7.165 Q90.308,7.775 89.411,7.775 Q88.731,7.775 88.143,7.455 Q87.558,7.135 87.146,6.535 Q86.691,5.885 86.421,5.025 Q86.153,4.168 86.153,3.377 Z M100.847,8.752 L100.630,7.635 L97.762,7.635 L96.832,2.885 Q96.785,2.620 96.762,2.440 Q96.740,2.260 96.740,2.160 Q96.740,1.660 97.040,1.433 Q97.340,1.205 98.005,1.205 L99.457,1.205 L99.215,0.003 L97.840,0.003 Q96.560,0.003 95.930,0.503 Q95.302,1.002 95.302,2.018 Q95.302,2.198 95.325,2.413 Q95.347,2.627 95.395,2.885 L96.325,7.635 L95.105,7.635 L95.332,8.752 L96.527,8.752 L97.012,11.238 L98.450,11.238 L97.972,8.752 L100.847,8.752 Z M110.833,10.035 L110.833,5.683 L115.183,5.683 L115.183,4.355 L110.833,4.355 L110.833,0.003 L109.520,0.003 L109.520,4.355 L105.168,4.355 L105.168,5.683 L109.520,5.683 L109.520,10.035 L110.833,10.035 Z M129.536,8.752 L128.044,1.088 Q127.614,-1.137 126.399,-2.230 Q125.184,-3.325 123.129,-3.325 Q122.371,-3.325 121.721,-3.212 Q121.074,-3.100 120.511,-2.865 L120.779,-1.468 Q121.309,-1.810 121.901,-1.973 Q122.496,-2.138 123.169,-2.138 Q124.536,-2.138 125.414,-1.390 Q126.294,-0.645 126.574,0.753 L126.699,1.410 Q126.099,0.723 125.301,0.362 Q124.504,0.003 123.581,0.003 Q122.254,0.003 121.491,0.880 Q120.731,1.760 120.731,3.300 Q120.731,4.510 121.191,5.670 Q121.654,6.830 122.489,7.730 Q123.044,8.322 123.781,8.643 Q124.519,8.963 125.324,8.963 Q126.206,8.963 126.861,8.553 Q127.519,8.143 127.841,7.393 L128.091,8.752 L129.536,8.752 Z M127.371,5.543 Q127.371,6.605 126.871,7.183 Q126.371,7.760 125.449,7.760 Q124.879,7.760 124.364,7.532 Q123.849,7.308 123.481,6.900 Q122.886,6.230 122.554,5.320 Q122.224,4.410 122.224,3.440 Q122.224,2.363 122.726,1.782 Q123.231,1.205 124.176,1.205 Q125.544,1.205 126.456,2.442 Q127.371,3.683 127.371,5.543 Z M135.112,12.143 Q134.067,10.348 133.557,8.588 Q133.050,6.830 133.050,5.025 Q133.050,3.223 133.562,1.453 Q134.075,-0.318 135.112,-2.107 L133.862,-2.107 Q132.692,-0.270 132.110,1.502 Q131.527,3.275 131.527,5.025 Q131.527,6.768 132.105,8.533 Q132.685,10.300 133.862,12.143 L135.112,12.143 Z M143.160,8.752 L142.942,7.635 L140.075,7.635 L139.145,2.885 Q139.097,2.620 139.075,2.440 Q139.052,2.260 139.052,2.160 Q139.052,1.660 139.352,1.433 Q139.652,1.205 140.317,1.205 L141.770,1.205 L141.527,0.003 L140.152,0.003 Q138.872,0.003 138.242,0.503 Q137.615,1.002 137.615,2.018 Q137.615,2.198 137.637,2.413 Q137.660,2.627 137.707,2.885 L138.637,7.635 L137.417,7.635 L137.645,8.752 L138.840,8.752 L139.325,11.238 L140.762,11.238 L140.285,8.752 L143.160,8.752 Z M143.951,12.143 L145.201,12.143 Q146.371,10.300 146.953,8.533 Q147.536,6.768 147.536,5.025 Q147.536,3.275 146.953,1.502 Q146.371,-0.270 145.201,-2.107 L143.951,-2.107 Q144.988,-0.318 145.501,1.453 Q146.013,3.223 146.013,5.025 Q146.013,6.830 145.501,8.588 Q144.988,10.348 143.951,12.143 Z M158.195,1.315 Q157.618,0.557 156.828,0.165 Q156.040,-0.225 155.078,-0.225 Q153.765,-0.225 153.003,0.670 Q152.243,1.565 152.243,3.120 Q152.243,4.418 152.703,5.593 Q153.165,6.768 154.040,7.697 Q154.618,8.315 155.343,8.638 Q156.070,8.963 156.868,8.963 Q157.710,8.963 158.355,8.555 Q159.000,8.150 159.353,7.393 L160.290,12.160 L161.735,12.160 L159.368,0.003 L157.923,0.003 L158.195,1.315 Z M153.735,3.377 Q153.735,2.245 154.245,1.613 Q154.758,0.980 155.665,0.980 Q156.335,0.980 156.910,1.302 Q157.485,1.627 157.923,2.260 Q158.383,2.917 158.648,3.775 Q158.915,4.635 158.915,5.473 Q158.915,6.558 158.403,7.165 Q157.890,7.775 156.993,7.775 Q156.313,7.775 155.725,7.455 Q155.140,7.135 154.728,6.535 Q154.273,5.885 154.003,5.025 Q153.735,4.168 153.735,3.377 Z M163.024,8.752 L164.447,8.752 L164.812,1.713 L168.079,8.752 L169.742,8.752 L170.227,1.713 L173.329,8.752 L174.767,8.752 L170.767,0.003 L169.087,0.003 L168.657,7.253 L165.312,0.003 L163.617,0.003 L163.024,8.752 Z" fill="#0f172a"/></g><path d="M 980 218 C 850 304, 430 304, 300 218" fill="none" stroke="#16a34a" stroke-width="4" marker-end="url(#arrowGreen)"/>
  <text x="640" y="276" text-anchor="middle" class="label">反向 SDE：噪声逐渐生成数据</text>
  <g data-formula="$dx=[f(x,t)-g^2(t)s_\theta(x,t)]dt+g(t)d\bar{w}$" transform="translate(503.262 304.000) scale(1 -1)"><path d="M6.270,1.345 Q5.728,0.635 4.987,0.267 Q4.249,-0.098 3.347,-0.098 Q2.116,-0.098 1.402,0.741 Q0.689,1.580 0.689,3.038 Q0.689,4.254 1.120,5.355 Q1.554,6.457 2.374,7.329 Q2.916,7.908 3.595,8.210 Q4.277,8.515 5.025,8.515 Q5.815,8.515 6.420,8.133 Q7.024,7.753 7.355,7.043 L8.234,11.512 L9.588,11.512 L7.369,0.115 L6.014,0.115 L6.270,1.345 Z M2.088,3.279 Q2.088,2.217 2.566,1.624 Q3.047,1.031 3.898,1.031 Q4.526,1.031 5.065,1.334 Q5.604,1.638 6.014,2.231 Q6.445,2.848 6.694,3.652 Q6.945,4.458 6.945,5.243 Q6.945,6.260 6.464,6.830 Q5.984,7.402 5.142,7.402 Q4.505,7.402 3.954,7.102 Q3.405,6.802 3.019,6.239 Q2.592,5.630 2.339,4.823 Q2.088,4.020 2.088,3.279 Z M18.524,8.318 L14.757,4.296 L17.066,0.115 L15.519,0.115 L13.785,3.368 L10.766,0.115 L9.132,0.115 L13.168,4.437 L11.024,8.318 L12.568,8.318 L14.143,5.351 L16.890,8.318 L18.524,8.318 Z M22.910,6.926 L32.299,6.926 L32.299,5.695 L22.910,5.695 L22.910,6.926 Z M22.910,3.938 L32.299,3.938 L32.299,2.693 L22.910,2.693 L22.910,3.938 Z M38.101,11.512 L41.206,11.512 L41.206,10.465 L39.448,10.465 L39.448,-0.816 L41.206,-0.816 L41.206,-1.863 L38.101,-1.863 L38.101,11.512 Z M49.833,11.512 L49.622,10.390 L48.333,10.390 Q47.600,10.390 47.267,10.102 Q46.934,9.813 46.772,9.042 L46.627,8.318 L48.846,8.318 L48.647,7.270 L46.428,7.270 L45.038,0.115 L43.681,0.115 L45.080,7.270 L43.791,7.270 L43.983,8.318 L45.272,8.318 L45.380,8.890 Q45.659,10.341 46.357,10.927 Q47.058,11.512 48.560,11.512 L49.833,11.512 Z M52.594,11.496 Q51.615,9.813 51.137,8.163 Q50.661,6.516 50.661,4.823 Q50.661,3.134 51.141,1.474 Q51.622,-0.185 52.594,-1.863 L51.422,-1.863 Q50.326,-0.141 49.779,1.521 Q49.233,3.183 49.233,4.823 Q49.233,6.457 49.775,8.112 Q50.319,9.769 51.422,11.496 L52.594,11.496 Z M62.799,8.318 L59.032,4.296 L61.341,0.115 L59.794,0.115 L58.060,3.368 L55.041,0.115 L53.407,0.115 L57.443,4.437 L55.299,8.318 L56.843,8.318 L58.418,5.351 L61.165,8.318 L62.799,8.318 Z M64.431,1.976 L65.976,1.976 L65.976,0.715 L64.776,-1.629 L63.831,-1.629 L64.431,0.715 L64.431,1.976 Z M76.706,8.318 L76.502,7.270 L73.814,7.270 L72.942,2.817 Q72.897,2.569 72.876,2.400 Q72.855,2.231 72.855,2.137 Q72.855,1.669 73.136,1.455 Q73.418,1.242 74.041,1.242 L75.403,1.242 L75.175,0.115 L73.886,0.115 Q72.686,0.115 72.096,0.584 Q71.508,1.052 71.508,2.004 Q71.508,2.173 71.529,2.374 Q71.550,2.576 71.594,2.817 L72.466,7.270 L71.322,7.270 L71.536,8.318 L72.656,8.318 L73.111,10.648 L74.458,10.648 L74.011,8.318 L76.706,8.318 Z M77.447,11.496 L78.619,11.496 Q79.716,9.769 80.262,8.112 Q80.808,6.457 80.808,4.823 Q80.808,3.183 80.262,1.521 Q79.716,-0.141 78.619,-1.863 L77.447,-1.863 Q78.420,-0.185 78.901,1.474 Q79.381,3.134 79.381,4.823 Q79.381,6.516 78.901,8.163 Q78.420,9.813 77.447,11.496 Z M86.609,5.440 L95.998,5.440 L95.998,4.195 L86.609,4.195 L86.609,5.440 Z M109.454,8.318 L108.055,1.132 Q107.652,-0.954 106.513,-1.978 Q105.374,-3.005 103.447,-3.005 Q102.737,-3.005 102.127,-2.899 Q101.520,-2.794 100.993,-2.573 L101.244,-1.263 Q101.741,-1.584 102.296,-1.737 Q102.854,-1.891 103.484,-1.891 Q104.767,-1.891 105.589,-1.191 Q106.414,-0.492 106.677,0.818 L106.794,1.434 Q106.231,0.790 105.484,0.452 Q104.736,0.115 103.871,0.115 Q102.627,0.115 101.912,0.938 Q101.199,1.762 101.199,3.206 Q101.199,4.341 101.631,5.428 Q102.064,6.516 102.847,7.359 Q103.367,7.915 104.059,8.215 Q104.750,8.515 105.505,8.515 Q106.332,8.515 106.946,8.130 Q107.563,7.746 107.865,7.043 L108.099,8.318 L109.454,8.318 Z M107.424,5.309 Q107.424,6.305 106.956,6.846 Q106.487,7.387 105.622,7.387 Q105.088,7.387 104.605,7.174 Q104.122,6.963 103.777,6.581 Q103.220,5.953 102.908,5.100 Q102.599,4.247 102.599,3.337 Q102.599,2.327 103.070,1.784 Q103.543,1.242 104.429,1.242 Q105.711,1.242 106.567,2.402 Q107.424,3.565 107.424,5.309 Z M112.744,6.728 L116.358,6.728 L116.358,5.857 L111.499,5.857 L111.499,6.728 Q112.088,7.339 113.105,8.366 Q114.124,9.394 114.385,9.693 Q114.882,10.251 115.079,10.638 Q115.277,11.025 115.277,11.399 Q115.277,12.009 114.849,12.393 Q114.421,12.779 113.733,12.779 Q113.246,12.779 112.705,12.610 Q112.165,12.441 111.550,12.096 L111.550,13.143 Q112.175,13.394 112.718,13.522 Q113.262,13.650 113.714,13.650 Q114.903,13.650 115.610,13.054 Q116.317,12.461 116.317,11.466 Q116.317,10.994 116.140,10.571 Q115.964,10.149 115.497,9.575 Q115.369,9.425 114.681,8.715 Q113.996,8.005 112.744,6.728 Z M122.470,11.496 Q121.490,9.813 121.012,8.163 Q120.536,6.516 120.536,4.823 Q120.536,3.134 121.017,1.474 Q121.497,-0.185 122.470,-1.863 L121.298,-1.863 Q120.201,-0.141 119.655,1.521 Q119.109,3.183 119.109,4.823 Q119.109,6.457 119.650,8.112 Q120.194,9.769 121.298,11.496 L122.470,11.496 Z M130.014,8.318 L129.810,7.270 L127.122,7.270 L126.250,2.817 Q126.205,2.569 126.184,2.400 Q126.163,2.231 126.163,2.137 Q126.163,1.669 126.445,1.455 Q126.726,1.242 127.349,1.242 L128.711,1.242 L128.484,0.115 L127.195,0.115 Q125.995,0.115 125.404,0.584 Q124.816,1.052 124.816,2.004 Q124.816,2.173 124.837,2.374 Q124.858,2.576 124.902,2.817 L125.774,7.270 L124.630,7.270 L124.844,8.318 L125.964,8.318 L126.419,10.648 L127.766,10.648 L127.319,8.318 L130.014,8.318 Z M130.756,11.496 L131.927,11.496 Q133.024,9.769 133.570,8.112 Q134.116,6.457 134.116,4.823 Q134.116,3.183 133.570,1.521 Q133.024,-0.141 131.927,-1.863 L130.756,-1.863 Q131.728,-0.185 132.209,1.474 Q132.689,3.134 132.689,4.823 Q132.689,6.516 132.209,8.163 Q131.728,9.813 130.756,11.496 Z M142.905,8.077 L142.650,6.802 Q142.115,7.095 141.520,7.240 Q140.927,7.387 140.299,7.387 Q139.235,7.387 138.623,7.024 Q138.014,6.663 138.014,6.040 Q138.014,5.316 139.434,4.927 Q139.544,4.898 139.596,4.882 L140.027,4.751 Q141.375,4.378 141.825,3.968 Q142.275,3.558 142.275,2.848 Q142.275,1.542 141.239,0.722 Q140.203,-0.098 138.525,-0.098 Q137.873,-0.098 137.156,0.028 Q136.439,0.152 135.574,0.415 L135.836,1.807 Q136.577,1.425 137.294,1.228 Q138.014,1.031 138.672,1.031 Q139.661,1.031 140.280,1.455 Q140.899,1.880 140.899,2.531 Q140.899,3.234 139.272,3.668 L139.134,3.703 L138.672,3.820 Q137.646,4.092 137.170,4.535 Q136.694,4.978 136.694,5.667 Q136.694,6.977 137.679,7.746 Q138.665,8.515 140.358,8.515 Q141.023,8.515 141.656,8.405 Q142.291,8.297 142.905,8.077 Z M147.999,1.294 L144.738,1.294 Q144.518,-0.240 144.743,-0.889 Q145.025,-1.690 145.789,-1.690 Q146.557,-1.690 147.143,-0.884 Q147.655,-0.177 147.999,1.294 Z M148.157,2.166 Q148.296,3.622 148.116,4.134 Q147.835,4.945 147.081,4.945 Q146.296,4.945 145.722,4.144 Q145.271,3.499 144.917,2.166 L148.157,2.166 Z M147.230,5.714 Q148.460,5.714 148.953,4.627 Q149.445,3.545 149.071,1.627 Q148.702,-0.285 147.783,-1.372 Q146.871,-2.464 145.640,-2.464 Q144.405,-2.464 143.917,-1.372 Q143.430,-0.285 143.799,1.627 Q144.173,3.545 145.081,4.627 Q145.994,5.714 147.230,5.714 Z M154.704,11.496 Q153.725,9.813 153.247,8.163 Q152.771,6.516 152.771,4.823 Q152.771,3.134 153.251,1.474 Q153.732,-0.185 154.704,-1.863 L153.533,-1.863 Q152.436,-0.141 151.890,1.521 Q151.343,3.183 151.343,4.823 Q151.343,6.457 151.885,8.112 Q152.429,9.769 153.533,11.496 L154.704,11.496 Z M164.909,8.318 L161.142,4.296 L163.451,0.115 L161.904,0.115 L160.170,3.368 L157.151,0.115 L155.517,0.115 L159.553,4.437 L157.409,8.318 L158.953,8.318 L160.528,5.351 L163.275,8.318 L164.909,8.318 Z M166.541,1.976 L168.086,1.976 L168.086,0.715 L166.886,-1.629 L165.941,-1.629 L166.541,0.715 L166.541,1.976 Z M178.816,8.318 L178.612,7.270 L175.924,7.270 L175.052,2.817 Q175.007,2.569 174.986,2.400 Q174.965,2.231 174.965,2.137 Q174.965,1.669 175.247,1.455 Q175.528,1.242 176.151,1.242 L177.513,1.242 L177.286,0.115 L175.997,0.115 Q174.797,0.115 174.206,0.584 Q173.618,1.052 173.618,2.004 Q173.618,2.173 173.639,2.374 Q173.660,2.576 173.704,2.817 L174.576,7.270 L173.432,7.270 L173.646,8.318 L174.766,8.318 L175.221,10.648 L176.568,10.648 L176.121,8.318 L178.816,8.318 Z M179.558,11.496 L180.729,11.496 Q181.826,9.769 182.372,8.112 Q182.918,6.457 182.918,4.823 Q182.918,3.183 182.372,1.521 Q181.826,-0.141 180.729,-1.863 L179.558,-1.863 Q180.530,-0.185 181.011,1.474 Q181.491,3.134 181.491,4.823 Q181.491,6.516 181.011,8.163 Q180.530,9.813 179.558,11.496 Z M188.771,11.512 L188.771,-1.863 L185.665,-1.863 L185.665,-0.816 L187.416,-0.816 L187.416,10.465 L185.665,10.465 L185.665,11.512 L188.771,11.512 Z M196.329,1.345 Q195.787,0.635 195.047,0.267 Q194.309,-0.098 193.406,-0.098 Q192.176,-0.098 191.461,0.741 Q190.748,1.580 190.748,3.038 Q190.748,4.254 191.180,5.355 Q191.613,6.457 192.434,7.329 Q192.975,7.908 193.655,8.210 Q194.337,8.515 195.084,8.515 Q195.874,8.515 196.479,8.133 Q197.084,7.753 197.414,7.043 L198.293,11.512 L199.648,11.512 L197.428,0.115 L196.073,0.115 L196.329,1.345 Z M192.148,3.279 Q192.148,2.217 192.626,1.624 Q193.106,1.031 193.957,1.031 Q194.585,1.031 195.124,1.334 Q195.663,1.638 196.073,2.231 Q196.505,2.848 196.753,3.652 Q197.004,4.458 197.004,5.243 Q197.004,6.260 196.523,6.830 Q196.043,7.402 195.201,7.402 Q194.564,7.402 194.013,7.102 Q193.465,6.802 193.078,6.239 Q192.651,5.630 192.398,4.823 Q192.148,4.020 192.148,3.279 Z M205.923,8.318 L205.719,7.270 L203.031,7.270 L202.159,2.817 Q202.114,2.569 202.093,2.400 Q202.072,2.231 202.072,2.137 Q202.072,1.669 202.353,1.455 Q202.635,1.242 203.258,1.242 L204.620,1.242 L204.393,0.115 L203.103,0.115 Q201.903,0.115 201.313,0.584 Q200.725,1.052 200.725,2.004 Q200.725,2.173 200.746,2.374 Q200.767,2.576 200.811,2.817 L201.683,7.270 L200.539,7.270 L200.753,8.318 L201.873,8.318 L202.328,10.648 L203.675,10.648 L203.228,8.318 L205.923,8.318 Z M215.284,9.520 L215.284,5.440 L219.363,5.440 L219.363,4.195 L215.284,4.195 L215.284,0.115 L214.054,0.115 L214.054,4.195 L209.974,4.195 L209.974,5.440 L214.054,5.440 L214.054,9.520 L215.284,9.520 Z M232.819,8.318 L231.420,1.132 Q231.017,-0.954 229.878,-1.978 Q228.738,-3.005 226.812,-3.005 Q226.102,-3.005 225.492,-2.899 Q224.885,-2.794 224.358,-2.573 L224.609,-1.263 Q225.106,-1.584 225.661,-1.737 Q226.219,-1.891 226.849,-1.891 Q228.131,-1.891 228.954,-1.191 Q229.779,-0.492 230.042,0.818 L230.159,1.434 Q229.596,0.790 228.849,0.452 Q228.101,0.115 227.236,0.115 Q225.992,0.115 225.277,0.938 Q224.564,1.762 224.564,3.206 Q224.564,4.341 224.996,5.428 Q225.429,6.516 226.212,7.359 Q226.732,7.915 227.424,8.215 Q228.115,8.515 228.870,8.515 Q229.697,8.515 230.311,8.130 Q230.928,7.746 231.230,7.043 L231.464,8.318 L232.819,8.318 Z M230.789,5.309 Q230.789,6.305 230.321,6.846 Q229.852,7.387 228.987,7.387 Q228.453,7.387 227.970,7.174 Q227.487,6.963 227.142,6.581 Q226.585,5.953 226.273,5.100 Q225.963,4.247 225.963,3.337 Q225.963,2.327 226.435,1.784 Q226.908,1.242 227.794,1.242 Q229.076,1.242 229.931,2.402 Q230.789,3.565 230.789,5.309 Z M238.047,11.496 Q237.067,9.813 236.589,8.163 Q236.113,6.516 236.113,4.823 Q236.113,3.134 236.594,1.474 Q237.074,-0.185 238.047,-1.863 L236.875,-1.863 Q235.778,-0.141 235.232,1.521 Q234.686,3.183 234.686,4.823 Q234.686,6.457 235.227,8.112 Q235.771,9.769 236.875,11.496 L238.047,11.496 Z M245.591,8.318 L245.387,7.270 L242.699,7.270 L241.827,2.817 Q241.782,2.569 241.761,2.400 Q241.740,2.231 241.740,2.137 Q241.740,1.669 242.021,1.455 Q242.303,1.242 242.926,1.242 L244.288,1.242 L244.060,0.115 L242.771,0.115 Q241.571,0.115 240.981,0.584 Q240.393,1.052 240.393,2.004 Q240.393,2.173 240.414,2.374 Q240.435,2.576 240.479,2.817 L241.351,7.270 L240.207,7.270 L240.421,8.318 L241.541,8.318 L241.996,10.648 L243.343,10.648 L242.896,8.318 L245.591,8.318 Z M246.332,11.496 L247.504,11.496 Q248.601,9.769 249.147,8.112 Q249.693,6.457 249.693,4.823 Q249.693,3.183 249.147,1.521 Q248.601,-0.141 247.504,-1.863 L246.332,-1.863 Q247.305,-0.185 247.786,1.474 Q248.266,3.134 248.266,4.823 Q248.266,6.516 247.786,8.163 Q247.305,9.813 246.332,11.496 Z M257.252,1.345 Q256.710,0.635 255.970,0.267 Q255.231,-0.098 254.329,-0.098 Q253.099,-0.098 252.384,0.741 Q251.671,1.580 251.671,3.038 Q251.671,4.254 252.102,5.355 Q252.536,6.457 253.356,7.329 Q253.898,7.908 254.577,8.210 Q255.259,8.515 256.007,8.515 Q256.797,8.515 257.402,8.133 Q258.006,7.753 258.337,7.043 L259.216,11.512 L260.570,11.512 L258.351,0.115 L256.996,0.115 L257.252,1.345 Z M253.070,3.279 Q253.070,2.217 253.549,1.624 Q254.029,1.031 254.880,1.031 Q255.508,1.031 256.047,1.334 Q256.586,1.638 256.996,2.231 Q257.427,2.848 257.676,3.652 Q257.927,4.458 257.927,5.243 Q257.927,6.260 257.446,6.830 Q256.966,7.402 256.124,7.402 Q255.487,7.402 254.936,7.102 Q254.388,6.802 254.001,6.239 Q253.574,5.630 253.321,4.823 Q253.070,4.020 253.070,3.279 Z M265.971,11.278 L270.351,11.278 L270.351,10.193 L265.971,10.193 L265.971,11.278 Z M261.779,8.318 L263.112,8.318 L263.454,1.718 L266.518,8.318 L268.076,8.318 L268.531,1.718 L271.440,8.318 L272.787,8.318 L269.037,0.115 L267.462,0.115 L267.059,6.912 L263.923,0.115 L262.334,0.115 L261.779,8.318 Z" fill="#0f172a"/></g><rect x="395" y="352" width="490" height="126" rx="20" fill="#fff7ed" stroke="#fdba74" stroke-width="2"/>
  <text x="640" y="388" text-anchor="middle" class="label">真正需要训练的部分</text>
  <g data-formula="$s_\theta(x,t)\approx\nabla_x\log p_t(x)$" transform="translate(563.825 424.000) scale(1 -1)"><path d="M8.000,8.495 L7.728,7.135 Q7.157,7.447 6.522,7.603 Q5.890,7.760 5.220,7.760 Q4.085,7.760 3.433,7.373 Q2.783,6.987 2.783,6.322 Q2.783,5.550 4.298,5.135 Q4.415,5.105 4.470,5.088 L4.930,4.947 Q6.367,4.550 6.848,4.112 Q7.328,3.675 7.328,2.917 Q7.328,1.525 6.223,0.650 Q5.117,-0.225 3.328,-0.225 Q2.632,-0.225 1.867,-0.090 Q1.103,0.043 0.180,0.323 L0.460,1.808 Q1.250,1.400 2.015,1.190 Q2.783,0.980 3.485,0.980 Q4.540,0.980 5.200,1.433 Q5.860,1.885 5.860,2.580 Q5.860,3.330 4.125,3.792 L3.978,3.830 L3.485,3.955 Q2.390,4.245 1.883,4.718 Q1.375,5.190 1.375,5.925 Q1.375,7.322 2.425,8.143 Q3.478,8.963 5.282,8.963 Q5.992,8.963 6.668,8.845 Q7.345,8.730 8.000,8.495 Z M13.434,1.261 L9.955,1.261 Q9.720,-0.376 9.960,-1.069 Q10.261,-1.923 11.076,-1.923 Q11.895,-1.923 12.520,-1.063 Q13.066,-0.309 13.434,1.261 Z M13.602,2.190 Q13.750,3.744 13.558,4.290 Q13.259,5.154 12.454,5.154 Q11.617,5.154 11.005,4.300 Q10.523,3.613 10.145,2.190 L13.602,2.190 Z M12.613,5.975 Q13.925,5.975 14.450,4.815 Q14.975,3.662 14.576,1.616 Q14.183,-0.425 13.203,-1.583 Q12.230,-2.749 10.917,-2.749 Q9.599,-2.749 9.080,-1.583 Q8.560,-0.425 8.954,1.616 Q9.353,3.662 10.320,4.815 Q11.295,5.975 12.613,5.975 Z M20.586,12.143 Q19.541,10.348 19.031,8.588 Q18.523,6.830 18.523,5.025 Q18.523,3.223 19.036,1.453 Q19.548,-0.318 20.586,-2.107 L19.336,-2.107 Q18.166,-0.270 17.583,1.502 Q17.001,3.275 17.001,5.025 Q17.001,6.768 17.578,8.533 Q18.158,10.300 19.336,12.143 L20.586,12.143 Z M31.470,8.752 L27.453,4.463 L29.915,0.003 L28.265,0.003 L26.415,3.473 L23.195,0.003 L21.453,0.003 L25.758,4.612 L23.470,8.752 L25.118,8.752 L26.798,5.588 L29.728,8.752 L31.470,8.752 Z M33.212,1.988 L34.859,1.988 L34.859,0.642 L33.579,-1.857 L32.572,-1.857 L33.212,0.642 L33.212,1.988 Z M46.305,8.752 L46.087,7.635 L43.220,7.635 L42.290,2.885 Q42.242,2.620 42.220,2.440 Q42.197,2.260 42.197,2.160 Q42.197,1.660 42.497,1.433 Q42.797,1.205 43.462,1.205 L44.915,1.205 L44.672,0.003 L43.297,0.003 Q42.017,0.003 41.387,0.503 Q40.760,1.002 40.760,2.018 Q40.760,2.198 40.782,2.413 Q40.805,2.627 40.852,2.885 L41.782,7.635 L40.562,7.635 L40.790,8.752 L41.985,8.752 L42.470,11.238 L43.907,11.238 L43.430,8.752 L46.305,8.752 Z M47.096,12.143 L48.346,12.143 Q49.516,10.300 50.098,8.533 Q50.681,6.768 50.681,5.025 Q50.681,3.275 50.098,1.502 Q49.516,-0.270 48.346,-2.107 L47.096,-2.107 Q48.133,-0.318 48.646,1.453 Q49.158,3.223 49.158,5.025 Q49.158,6.830 48.646,8.588 Q48.133,10.348 47.096,12.143 Z M66.883,4.870 L66.883,3.473 Q66.063,2.863 65.363,2.593 Q64.665,2.323 63.908,2.323 Q63.048,2.323 61.908,2.785 Q61.830,2.815 61.775,2.837 Q61.728,2.855 61.610,2.900 Q60.400,3.377 59.665,3.377 Q58.978,3.377 58.305,3.080 Q57.633,2.785 56.868,2.127 L56.868,3.525 Q57.688,4.135 58.388,4.405 Q59.088,4.675 59.845,4.675 Q60.705,4.675 61.853,4.213 Q61.938,4.175 61.978,4.160 Q62.025,4.143 62.143,4.098 Q63.353,3.620 64.088,3.620 Q64.758,3.620 65.418,3.913 Q66.080,4.205 66.883,4.870 Z M66.883,7.910 L66.883,6.518 Q66.063,5.900 65.363,5.630 Q64.665,5.362 63.908,5.362 Q63.048,5.362 61.908,5.822 Q61.830,5.855 61.775,5.878 Q61.728,5.893 61.610,5.940 Q60.400,6.418 59.665,6.418 Q58.978,6.418 58.305,6.120 Q57.633,5.822 56.868,5.175 L56.868,6.565 Q57.688,7.175 58.388,7.442 Q59.088,7.713 59.845,7.713 Q60.705,7.713 61.853,7.253 Q61.930,7.223 61.970,7.205 Q62.025,7.183 62.143,7.135 Q63.353,6.660 64.088,6.660 Q64.758,6.660 65.418,6.953 Q66.080,7.245 66.883,7.910 Z M77.041,1.650 L80.306,10.120 L73.774,10.120 L77.041,1.650 Z M76.174,0.003 L71.649,11.510 L82.446,11.510 L77.924,0.003 L76.174,0.003 Z M89.274,3.502 L86.462,0.499 L88.186,-2.623 L87.031,-2.623 L85.736,-0.194 L83.482,-2.623 L82.262,-2.623 L85.275,0.604 L83.674,3.502 L84.827,3.502 L86.003,1.287 L88.054,3.502 L89.274,3.502 Z M91.125,12.160 L92.563,12.160 L92.563,0.003 L91.125,0.003 L91.125,12.160 Z M98.961,7.745 Q97.806,7.745 97.133,6.843 Q96.461,5.940 96.461,4.370 Q96.461,2.800 97.128,1.897 Q97.798,0.995 98.961,0.995 Q100.111,0.995 100.781,1.900 Q101.453,2.808 101.453,4.370 Q101.453,5.925 100.781,6.835 Q100.111,7.745 98.961,7.745 Z M98.961,8.963 Q100.836,8.963 101.906,7.743 Q102.978,6.525 102.978,4.370 Q102.978,2.223 101.906,0.998 Q100.836,-0.225 98.961,-0.225 Q97.078,-0.225 96.011,0.998 Q94.946,2.223 94.946,4.370 Q94.946,6.525 96.011,7.743 Q97.078,8.963 98.961,8.963 Z M111.117,4.480 Q111.117,6.043 110.472,6.900 Q109.830,7.760 108.665,7.760 Q107.510,7.760 106.865,6.900 Q106.220,6.043 106.220,4.480 Q106.220,2.925 106.865,2.065 Q107.510,1.205 108.665,1.205 Q109.830,1.205 110.472,2.065 Q111.117,2.925 111.117,4.480 Z M112.555,1.088 Q112.555,-1.145 111.562,-2.235 Q110.572,-3.325 108.525,-3.325 Q107.767,-3.325 107.095,-3.212 Q106.422,-3.100 105.790,-2.865 L105.790,-1.468 Q106.422,-1.810 107.040,-1.973 Q107.657,-2.138 108.297,-2.138 Q109.712,-2.138 110.415,-1.400 Q111.117,-0.662 111.117,0.830 L111.117,1.542 Q110.672,0.768 109.977,0.385 Q109.282,0.003 108.312,0.003 Q106.705,0.003 105.720,1.228 Q104.735,2.455 104.735,4.480 Q104.735,6.510 105.720,7.735 Q106.705,8.963 108.312,8.963 Q109.282,8.963 109.977,8.580 Q110.672,8.197 111.117,7.425 L111.117,8.752 L112.555,8.752 L112.555,1.088 Z M124.544,5.393 Q124.544,6.543 124.044,7.150 Q123.544,7.760 122.606,7.760 Q121.966,7.760 121.384,7.433 Q120.801,7.105 120.349,6.480 Q119.904,5.862 119.636,4.987 Q119.371,4.112 119.371,3.252 Q119.371,2.160 119.871,1.570 Q120.371,0.980 121.294,0.980 Q121.974,0.980 122.556,1.300 Q123.139,1.620 123.551,2.230 Q123.996,2.870 124.269,3.738 Q124.544,4.605 124.544,5.393 Z M120.091,7.425 Q120.669,8.183 121.454,8.572 Q122.239,8.963 123.201,8.963 Q124.544,8.963 125.286,8.082 Q126.029,7.205 126.029,5.620 Q126.029,4.322 125.566,3.147 Q125.106,1.973 124.239,1.042 Q123.661,0.425 122.934,0.100 Q122.209,-0.225 121.404,-0.225 Q120.474,-0.225 119.841,0.163 Q119.209,0.550 118.896,1.315 L117.996,-3.325 L116.559,-3.325 L118.911,8.752 L120.349,8.752 L120.091,7.425 Z M131.498,3.502 L131.346,2.720 L129.339,2.720 L128.688,-0.605 Q128.654,-0.790 128.639,-0.916 Q128.623,-1.042 128.623,-1.112 Q128.623,-1.462 128.833,-1.622 Q129.043,-1.781 129.508,-1.781 L130.525,-1.781 L130.355,-2.623 L129.393,-2.623 Q128.497,-2.623 128.056,-2.272 Q127.617,-1.923 127.617,-1.212 Q127.617,-1.086 127.632,-0.936 Q127.648,-0.785 127.681,-0.605 L128.332,2.720 L127.478,2.720 L127.638,3.502 L128.474,3.502 L128.814,5.242 L129.820,5.242 L129.486,3.502 L131.498,3.502 Z M136.551,12.143 Q135.506,10.348 134.996,8.588 Q134.489,6.830 134.489,5.025 Q134.489,3.223 135.001,1.453 Q135.514,-0.318 136.551,-2.107 L135.301,-2.107 Q134.131,-0.270 133.549,1.502 Q132.966,3.275 132.966,5.025 Q132.966,6.768 133.544,8.533 Q134.124,10.300 135.301,12.143 L136.551,12.143 Z M147.436,8.752 L143.419,4.463 L145.881,0.003 L144.231,0.003 L142.381,3.473 L139.161,0.003 L137.419,0.003 L141.724,4.612 L139.436,8.752 L141.084,8.752 L142.764,5.588 L145.694,8.752 L147.436,8.752 Z M148.585,12.143 L149.835,12.143 Q151.005,10.300 151.587,8.533 Q152.170,6.768 152.170,5.025 Q152.170,3.275 151.587,1.502 Q151.005,-0.270 149.835,-2.107 L148.585,-2.107 Q149.622,-0.318 150.135,1.453 Q150.647,3.223 150.647,5.025 Q150.647,6.830 150.135,8.588 Q149.622,10.348 148.585,12.143 Z" fill="#0f172a"/></g><text x="640" y="452" text-anchor="middle" class="body">Score 网络告诉采样器：当前位置应该往高概率区域怎么走</text>

  <rect x="92" y="540" width="315" height="110" rx="16" fill="#f8fafc" stroke="#cbd5e1" stroke-width="2"/>
  <text x="250" y="574" text-anchor="middle" class="label">DDPM</text>
  <text x="250" y="604" text-anchor="middle" class="body">VP-SDE 的离散化视角</text>
  <text x="250" y="630" text-anchor="middle" class="small">常用噪声预测 ε<tspan baseline-shift="sub" font-size="10">θ</tspan><tspan>(x</tspan><tspan baseline-shift="sub" font-size="10">t</tspan><tspan>, t)</tspan></text>

  <rect x="482" y="540" width="315" height="110" rx="16" fill="#f8fafc" stroke="#cbd5e1" stroke-width="2"/>
  <text x="640" y="574" text-anchor="middle" class="label">Score-Based / NCSN</text>
  <text x="640" y="604" text-anchor="middle" class="body">VE-SDE 的多尺度噪声视角</text>
  <text x="640" y="630" text-anchor="middle" class="small">直接学习不同噪声尺度下的 Score</text>

  <rect x="872" y="540" width="315" height="110" rx="16" fill="#f8fafc" stroke="#cbd5e1" stroke-width="2"/>
  <text x="1030" y="574" text-anchor="middle" class="label">统一结论</text>
  <text x="1030" y="604" text-anchor="middle" class="body">噪声过程不同，目标本质相通</text>
  <text x="1030" y="630" text-anchor="middle" class="small">都是估计带噪分布的 Score</text>
</svg>
